<svg id="Layer_1" data-name="Layer 1" xmlns="http://www.w3.org/2000/svg" viewBox="0 0 741.01 201.01"><defs><style>.cls-1{fill:#00df94;}.cls-2{fill:#2c0e5e;}.cls-3{fill:#f10000;}</style></defs><title>Logo_black</title><path d="M1414.89,929.25v-50h19.73c9.14,0,17.13,3.6,22.1,11.38a24.49,24.49,0,0,1,3.75,13.68c0,10.44-5.55,18.5-13.25,22.18a28.42,28.42,0,0,1-12.6,2.8Zm10.72-9.79h7.85a17,17,0,0,0,11.31-3.74c3-2.45,4.54-6.27,4.54-11.52s-1.52-9-4.54-11.53a17.4,17.4,0,0,0-11.31-3.67h-7.85Z" transform="translate(-1069.63 -799.25)"/><path d="M1472.75,929.25v-50h10.73v50Z" transform="translate(-1069.63 -799.25)"/><path d="M1501.81,925.94a13.15,13.15,0,0,1-5.69-11.09,20.89,20.89,0,0,1,1-6.12l10.3,2.38a9.36,9.36,0,0,0-.58,3.31c0,4.32,4.32,7.06,11,7.06,6,0,9.64-2.38,9.64-6.34,0-3-2.23-5-6.76-5.83l-6.63-1.15c-11.59-2-16.7-6.85-16.7-14.91a13.35,13.35,0,0,1,5.25-10.8c3.46-2.81,8.07-4.25,13.83-4.25,13.17,0,20,6,20.81,16.92l-10.59,1.3c-.79-6.27-4.32-9.43-10.58-9.43-4.68,0-8,2.23-8,5.68,0,3.1,2.6,5.12,7.85,6.05l6.63,1.15c10.94,2,15.55,6.56,15.55,14.26a14.13,14.13,0,0,1-5.62,11.67c-3.81,3-8.78,4.46-14.9,4.46Q1507.53,930.26,1501.81,925.94Z" transform="translate(-1069.63 -799.25)"/><path d="M1554.66,923c-4.61-4.83-6.92-11-6.92-18.72s2.38-13.76,7.13-18.72,10.73-7.35,18-7.35c12.17,0,20.24,7.13,23.05,19.8l-10.59,2.74c-2-8.5-6.33-12.75-12.89-12.75a12,12,0,0,0-9.65,4.54c-2.52,3-3.81,6.91-3.81,11.74s1.29,8.71,3.81,11.66a12.26,12.26,0,0,0,9.87,4.54c6.48,0,10.66-3.46,12.53-10.3l11.09,1.8c-3.17,12.17-11.09,18.29-23.84,18.29C1565.17,930.26,1559.27,927.81,1554.66,923Z" transform="translate(-1069.63 -799.25)"/><path d="M1631,930.26c-7.42,0-13.61-2.45-18.43-7.34s-7.27-11.09-7.27-18.65,2.44-13.76,7.27-18.72,11-7.35,18.43-7.35,13.61,2.45,18.44,7.35,7.27,11.16,7.27,18.72-2.45,13.75-7.27,18.65S1638.44,930.26,1631,930.26ZM1641.46,916c2.67-3,4-6.91,4-11.73s-1.37-8.79-4-11.81a14.34,14.34,0,0,0-20.81,0c-2.66,3-4,7-4,11.81s1.37,8.78,4,11.73a14.34,14.34,0,0,0,20.81,0Z" transform="translate(-1069.63 -799.25)"/><path d="M1678.92,929.25l-17.06-50h11.23l13,39.17,12.6-39.17H1710l-17.07,50Z" transform="translate(-1069.63 -799.25)"/><path d="M1719.34,929.25v-50h36v9.29h-25.27v10.87h20.66v9.29h-20.66V920h25.63v9.29Z" transform="translate(-1069.63 -799.25)"/><path d="M1810.64,919.17v9.94a9.66,9.66,0,0,1-3.1.43,19.08,19.08,0,0,1-11.45-3.31c-3.09-2.16-6-6.27-8.71-12.31l-1.51-3.1h-6.77v18.43h-10.73v-50h22.47c5.4,0,9.79,1.44,13.1,4.25s5,6.69,5,11.66c0,7.56-4.32,12.68-11.81,14.19,4.11,7.85,7.49,10.08,11.74,10.08A6.23,6.23,0,0,0,1810.64,919.17ZM1779.1,888.5v13.1h10.59c5.32,0,8-2.16,8-6.55s-2.74-6.55-8.14-6.55Z" transform="translate(-1069.63 -799.25)"/><path d="M1414.89,999.25v-50h19.73c9.14,0,17.13,3.6,22.1,11.38a24.49,24.49,0,0,1,3.75,13.68c0,10.44-5.55,18.5-13.25,22.18a28.42,28.42,0,0,1-12.6,2.8Zm10.72-9.79h7.85a17,17,0,0,0,11.31-3.74c3-2.45,4.54-6.27,4.54-11.52s-1.52-9-4.54-11.53a17.4,17.4,0,0,0-11.31-3.67h-7.85Z" transform="translate(-1069.63 -799.25)"/><path d="M1472.8,999.25v-50h36v9.29h-25.28v10.87h20.67v9.29h-20.67V990h25.64v9.29Z" transform="translate(-1069.63 -799.25)"/><path d="M1524.61,995.94a13.15,13.15,0,0,1-5.69-11.09,20.89,20.89,0,0,1,1-6.12l10.29,2.38a9.36,9.36,0,0,0-.57,3.31c0,4.32,4.32,7.06,10.94,7.06,6,0,9.65-2.38,9.65-6.34,0-3-2.23-5-6.77-5.83l-6.62-1.15c-11.6-2-16.71-6.85-16.71-14.91a13.36,13.36,0,0,1,5.26-10.8c3.45-2.81,8.06-4.25,13.82-4.25,13.18,0,20,6,20.81,16.92l-10.58,1.3c-.79-6.27-4.32-9.43-10.59-9.43-4.68,0-8,2.23-8,5.68,0,3.1,2.59,5.12,7.85,6.05l6.62,1.15c11,2,15.56,6.56,15.56,14.26a14.16,14.16,0,0,1-5.62,11.67c-3.82,3-8.78,4.46-14.9,4.46Q1530.33,1000.26,1524.61,995.94Z" transform="translate(-1069.63 -799.25)"/><path d="M1573.59,999.25v-50h10.73v50Z" transform="translate(-1069.63 -799.25)"/><path d="M1603.43,993c-4.54-4.83-6.84-11-6.84-18.72s2.45-13.76,7.27-18.72,11-7.35,18.36-7.35c12.1,0,20.38,6,22.76,16.42l-10.88,2.81c-1.51-6.34-6-9.65-12.24-9.65a12.64,12.64,0,0,0-10.08,4.61c-2.66,3.09-4,7.05-4,11.88,0,5.11,1.44,9.14,4.25,12.09a14.06,14.06,0,0,0,10.66,4.47c7.41,0,13-4.18,13.89-10.8h-14.25v-8.5H1647v27.72h-9.72V991.4c-3.09,5.91-8.57,8.86-16.49,8.86A22.79,22.79,0,0,1,1603.43,993Z" transform="translate(-1069.63 -799.25)"/><path d="M1661.38,999.25v-50h10.72l22.54,33.63V949.21H1705v50h-10.8l-22.47-33.55v33.55Z" transform="translate(-1069.63 -799.25)"/><path class="cls-1" d="M1283.1,799.25l-90,200h-40l2.69-6A60,60,0,0,0,1187.4,923l55.7-123.77Z" transform="translate(-1069.63 -799.25)"/><path class="cls-2" d="M1189.63,939.25a60,60,0,0,1-33.84,54L1187.4,923A59.56,59.56,0,0,1,1189.63,939.25Z" transform="translate(-1069.63 -799.25)"/><path class="cls-3" d="M1187.4,923l-31.61,70.24A60,60,0,1,1,1187.4,923Z" transform="translate(-1069.63 -799.25)"/><path class="cls-2" d="M1283.1,839.25a80,80,0,0,1,0,160Z" transform="translate(-1069.63 -799.25)"/></svg>