<svg width="1440" height="186" viewBox="0 0 1440 186" fill="none" xmlns="http://www.w3.org/2000/svg">
<path d="M-65.42 38.88L-66.2876 38.3827L-66.2896 38.3862L-65.42 38.88ZM-42.56 16.02L-42.0697 16.8916L-42.0662 16.8896L-42.56 16.02ZM49.06 48.42V49.42H50.4433L50.0096 48.1065L49.06 48.42ZM20.08 48.42L19.1785 48.8527L19.4508 49.42H20.08V48.42ZM7.84 34.92L7.33736 35.7845L7.34599 35.7894L7.84 34.92ZM-29.78 35.64L-29.2682 36.4991L-29.2629 36.4959L-29.78 35.64ZM-43.1 50.04L-43.9875 49.5792L-43.991 49.586L-43.9944 49.5928L-43.1 50.04ZM-43.1 93.96L-43.9978 94.4004L-43.9928 94.4107L-43.9875 94.4208L-43.1 93.96ZM-29.78 108.54L-30.3051 109.391L-30.2946 109.398L-30.2839 109.404L-29.78 108.54ZM7.84 109.08L8.34264 109.945L8.34874 109.941L7.84 109.08ZM20.08 95.4V94.4H19.4508L19.1785 94.9673L20.08 95.4ZM49.06 95.4L50.0105 95.7109L50.4392 94.4H49.06V95.4ZM26.92 125.46L27.4813 126.288L27.4833 126.286L26.92 125.46ZM-42.56 127.98L-43.0585 128.847L-43.0521 128.851L-43.0456 128.854L-42.56 127.98ZM-65.42 105.12L-66.2896 105.614L-66.2849 105.622L-65.42 105.12ZM-72.7 72C-72.7 59.7944 -69.9761 48.9278 -64.5504 39.3738L-66.2896 38.3862C-71.9039 48.2722 -74.7 59.4856 -74.7 72H-72.7ZM-64.5524 39.3773C-58.9993 29.6889 -51.5077 22.2004 -42.0697 16.8916L-43.0503 15.1484C-52.8123 20.6396 -60.5607 28.3911 -66.2876 38.3827L-64.5524 39.3773ZM-42.0662 16.8896C-32.5077 11.4613 -21.82 8.74 -9.98 8.74V6.74C-22.14 6.74 -33.1722 9.53868 -43.0538 15.1504L-42.0662 16.8896ZM-9.98 8.74C3.87971 8.74 15.979 12.2906 26.3567 19.3662L27.4833 17.7138C16.741 10.3894 4.2403 6.74 -9.98 6.74V8.74ZM26.3567 19.3662C36.7259 26.4362 43.9758 36.2115 48.1104 48.7335L50.0096 48.1065C45.7442 35.1885 38.2341 25.0438 27.4833 17.7138L26.3567 19.3662ZM49.06 47.42H20.08V49.42H49.06V47.42ZM20.9815 47.9873C18.0222 41.822 13.8082 37.1609 8.33401 34.0505L7.34599 35.7894C12.4318 38.6791 16.3778 43.018 19.1785 48.8527L20.9815 47.9873ZM8.34263 34.0555C3.00884 30.9544 -3.16961 29.42 -10.16 29.42V31.42C-3.47038 31.42 2.35117 32.8855 7.33739 35.7845L8.34263 34.0555ZM-10.16 29.42C-17.6457 29.42 -24.3675 31.2016 -30.2971 34.7841L-29.2629 36.4959C-23.6725 33.1184 -17.3143 31.42 -10.16 31.42V29.42ZM-30.2918 34.7809C-36.1031 38.2429 -40.6681 43.1863 -43.9875 49.5792L-42.2125 50.5008C-39.0519 44.4137 -34.7369 39.7571 -29.2682 36.4991L-30.2918 34.7809ZM-43.9944 49.5928C-47.1966 55.9972 -48.78 63.4761 -48.78 72H-46.78C-46.78 63.7239 -45.2434 56.5628 -42.2056 50.4872L-43.9944 49.5928ZM-48.78 72C-48.78 80.407 -47.1955 87.882 -43.9978 94.4004L-42.2022 93.5196C-45.2445 87.318 -46.78 80.153 -46.78 72H-48.78ZM-43.9875 94.4208C-40.6695 100.811 -36.1084 105.81 -30.3051 109.391L-29.2549 107.689C-34.7316 104.31 -39.0505 99.5889 -42.2125 93.4992L-43.9875 94.4208ZM-30.2839 109.404C-24.3563 112.862 -17.6393 114.58 -10.16 114.58V112.58C-17.3207 112.58 -23.6837 110.938 -29.2761 107.676L-30.2839 109.404ZM-10.16 114.58C-3.16961 114.58 3.00884 113.046 8.34263 109.945L7.33739 108.215C2.35117 111.114 -3.47038 112.58 -10.16 112.58V114.58ZM8.34874 109.941C13.8137 106.712 18.0235 101.995 20.9815 95.8327L19.1785 94.9673C16.3765 100.805 12.4263 105.208 7.33128 108.219L8.34874 109.941ZM20.08 96.4H49.06V94.4H20.08V96.4ZM48.1096 95.0891C43.974 107.732 36.7235 117.566 26.3567 124.634L27.4833 126.286C38.2365 118.954 45.746 108.748 50.0105 95.7109L48.1096 95.0891ZM26.3587 124.632C16.1042 131.587 4.00533 135.08 -9.98 135.08V137.08C4.35469 137.08 16.8558 133.493 27.4813 126.288L26.3587 124.632ZM-9.98 135.08C-21.8239 135.08 -32.5146 132.417 -42.0744 127.106L-43.0456 128.854C-33.1654 134.343 -22.1361 137.08 -9.98 137.08V135.08ZM-42.0615 127.113C-51.5071 121.682 -59.0017 114.189 -64.5551 104.618L-66.2849 105.622C-60.5583 115.491 -52.8129 123.238 -43.0585 128.847L-42.0615 127.113ZM-64.5504 104.626C-69.9761 95.0722 -72.7 84.2056 -72.7 72H-74.7C-74.7 84.5144 -71.9039 95.7278 -66.2896 105.614L-64.5504 104.626ZM78.1441 130.32L77.6538 131.192L77.6642 131.197L78.1441 130.32ZM59.9641 112.14L59.0892 112.625L59.095 112.635L59.9641 112.14ZM60.1441 58.14L59.2807 57.6353L59.275 57.6453L60.1441 58.14ZM78.6841 40.14L79.1582 41.0205L79.1686 41.0148L78.6841 40.14ZM130.884 40.14L130.4 41.0149L130.41 41.0205L130.884 40.14ZM149.244 58.14L148.375 58.6347L148.381 58.6447L149.244 58.14ZM149.064 112.14L148.207 111.625L148.201 111.635L149.064 112.14ZM130.344 130.32L130.818 131.2L130.823 131.198L130.344 130.32ZM116.844 111.42L117.323 112.298L117.332 112.293L116.844 111.42ZM126.564 101.34L127.444 101.816L126.564 101.34ZM122.604 63.36L121.88 64.0501L121.889 64.0587L121.897 64.0671L122.604 63.36ZM86.2441 63.36L85.5203 62.6699L85.5199 62.6703L86.2441 63.36ZM86.0641 107.1L85.3233 107.772L85.3315 107.781L85.3399 107.79L86.0641 107.1ZM104.064 135.62C94.6152 135.62 86.1428 133.555 78.6239 129.443L77.6642 131.197C85.5053 135.485 94.313 137.62 104.064 137.62V135.62ZM78.6343 129.448C71.1155 125.219 65.1851 119.291 60.8331 111.645L59.095 112.635C63.623 120.589 69.8126 126.781 77.6538 131.192L78.6343 129.448ZM60.8389 111.656C56.6122 104.024 54.4841 95.1952 54.4841 85.14H52.4841C52.4841 95.4848 54.676 104.656 59.0893 112.624L60.8389 111.656ZM54.4841 85.14C54.4841 75.0894 56.6701 66.2643 61.0131 58.6347L59.275 57.6453C54.738 65.6157 52.4841 74.7906 52.4841 85.14H54.4841ZM61.0074 58.6447C65.4766 51 71.5233 45.1315 79.1582 41.0205L78.21 39.2595C70.2448 43.5485 63.9316 49.68 59.2808 57.6353L61.0074 58.6447ZM79.1686 41.0148C86.809 36.7832 95.3402 34.66 104.784 34.66V32.66C95.0279 32.66 86.1591 34.8568 78.1996 39.2652L79.1686 41.0148ZM104.784 34.66C114.228 34.66 122.759 36.7832 130.4 41.0148L131.369 39.2652C123.409 34.8568 114.54 32.66 104.784 32.66V34.66ZM130.41 41.0205C138.042 45.1303 144.027 50.9955 148.375 58.6347L150.113 57.6453C145.582 49.6845 139.326 43.5497 131.358 39.2595L130.41 41.0205ZM148.381 58.6447C152.84 66.2726 155.084 75.094 155.084 85.14H157.084C157.084 74.786 154.768 65.6074 150.107 57.6353L148.381 58.6447ZM155.084 85.14C155.084 95.1813 152.782 103.999 148.207 111.626L149.922 112.654C154.706 104.681 157.084 95.4987 157.084 85.14H155.084ZM148.201 111.635C143.732 119.279 137.625 125.209 129.865 129.442L130.823 131.198C138.903 126.791 145.276 120.602 149.927 112.645L148.201 111.635ZM129.87 129.44C122.229 133.554 113.635 135.62 104.064 135.62V137.62C113.933 137.62 122.859 135.486 130.818 131.2L129.87 129.44ZM104.064 115.66C108.789 115.66 113.214 114.539 117.323 112.298L116.365 110.542C112.554 112.621 108.459 113.66 104.064 113.66V115.66ZM117.332 112.293C121.591 109.913 124.961 106.409 127.444 101.816L125.684 100.864C123.367 105.151 120.257 108.367 116.356 110.547L117.332 112.293ZM127.444 101.816C129.941 97.1963 131.164 91.6237 131.164 85.14H129.164C129.164 91.3763 127.987 96.6037 125.684 100.864L127.444 101.816ZM131.164 85.14C131.164 75.4853 128.594 67.936 123.311 62.6529L121.897 64.0671C126.694 68.864 129.164 75.8347 129.164 85.14H131.164ZM123.328 62.6699C118.217 57.3098 111.894 54.62 104.424 54.62V56.62C111.354 56.62 117.151 59.0902 121.88 64.0501L123.328 62.6699ZM104.424 54.62C96.9536 54.62 90.6311 57.3098 85.5203 62.6699L86.9678 64.0501C91.697 59.0902 97.4945 56.62 104.424 56.62V54.62ZM85.5199 62.6703C80.4869 67.9551 78.0441 75.4978 78.0441 85.14H80.0441C80.0441 75.8222 82.4013 68.8449 86.9682 64.0497L85.5199 62.6703ZM78.0441 85.14C78.0441 94.7778 80.4243 102.37 85.3233 107.772L86.8048 106.428C82.3439 101.51 80.0441 94.4622 80.0441 85.14H78.0441ZM85.3399 107.79C90.3359 113.035 96.601 115.66 104.064 115.66V113.66C97.1271 113.66 91.3923 111.245 86.7882 106.41L85.3399 107.79ZM188.969 1.8H189.969V0.799998H188.969V1.8ZM188.969 135V136H189.969V135H188.969ZM163.769 135H162.769V136H163.769V135ZM163.769 1.8V0.799998H162.769V1.8H163.769ZM187.969 1.8V135H189.969V1.8H187.969ZM188.969 134H163.769V136H188.969V134ZM164.769 135V1.8H162.769V135H164.769ZM163.769 2.8H188.969V0.799998H163.769V2.8ZM221.427 130.32L220.937 131.192L220.947 131.197L221.427 130.32ZM203.247 112.14L202.372 112.625L202.378 112.635L203.247 112.14ZM203.427 58.14L202.564 57.6353L202.558 57.6453L203.427 58.14ZM221.967 40.14L222.441 41.0205L222.451 41.0148L221.967 40.14ZM274.167 40.14L273.682 41.0149L273.693 41.0205L274.167 40.14ZM292.527 58.14L291.658 58.6347L291.664 58.6447L292.527 58.14ZM292.347 112.14L291.489 111.625L291.484 111.635L292.347 112.14ZM273.627 130.32L274.101 131.2L274.106 131.198L273.627 130.32ZM260.127 111.42L260.606 112.298L260.615 112.293L260.127 111.42ZM269.847 101.34L270.727 101.816L269.847 101.34ZM265.887 63.36L265.163 64.0501L265.171 64.0587L265.18 64.0671L265.887 63.36ZM229.527 63.36L228.803 62.6699L228.803 62.6703L229.527 63.36ZM229.347 107.1L228.606 107.772L228.614 107.781L228.623 107.79L229.347 107.1ZM247.347 135.62C237.898 135.62 229.426 133.555 221.907 129.443L220.947 131.197C228.788 135.485 237.596 137.62 247.347 137.62V135.62ZM221.917 129.448C214.398 125.219 208.468 119.291 204.116 111.645L202.378 112.635C206.906 120.589 213.095 126.781 220.937 131.192L221.917 129.448ZM204.122 111.656C199.895 104.024 197.767 95.1952 197.767 85.14H195.767C195.767 95.4848 197.959 104.656 202.372 112.624L204.122 111.656ZM197.767 85.14C197.767 75.0894 199.953 66.2643 204.296 58.6347L202.558 57.6453C198.021 65.6157 195.767 74.7906 195.767 85.14H197.767ZM204.29 58.6447C208.759 51 214.806 45.1315 222.441 41.0205L221.493 39.2595C213.528 43.5485 207.214 49.68 202.564 57.6353L204.29 58.6447ZM222.451 41.0148C230.092 36.7832 238.623 34.66 248.067 34.66V32.66C238.311 32.66 229.442 34.8568 221.482 39.2652L222.451 41.0148ZM248.067 34.66C257.511 34.66 266.042 36.7832 273.682 41.0148L274.651 39.2652C266.692 34.8568 257.823 32.66 248.067 32.66V34.66ZM273.693 41.0205C281.325 45.1303 287.309 50.9955 291.658 58.6347L293.396 57.6453C288.864 49.6845 282.609 43.5497 274.641 39.2595L273.693 41.0205ZM291.664 58.6447C296.123 66.2726 298.367 75.094 298.367 85.14H300.367C300.367 74.786 298.051 65.6074 293.39 57.6353L291.664 58.6447ZM298.367 85.14C298.367 95.1813 296.065 103.999 291.489 111.626L293.204 112.654C297.989 104.681 300.367 95.4987 300.367 85.14H298.367ZM291.484 111.635C287.015 119.279 280.908 125.209 273.148 129.442L274.106 131.198C282.186 126.791 288.559 120.602 293.21 112.645L291.484 111.635ZM273.153 129.44C265.512 133.554 256.918 135.62 247.347 135.62V137.62C257.216 137.62 266.141 135.486 274.101 131.2L273.153 129.44ZM247.347 115.66C252.072 115.66 256.497 114.539 260.606 112.298L259.648 110.542C255.837 112.621 251.741 113.66 247.347 113.66V115.66ZM260.615 112.293C264.874 109.913 268.244 106.409 270.727 101.816L268.967 100.864C266.65 105.151 263.54 108.367 259.639 110.547L260.615 112.293ZM270.727 101.816C273.223 97.1963 274.447 91.6237 274.447 85.14H272.447C272.447 91.3763 271.27 96.6037 268.967 100.864L270.727 101.816ZM274.447 85.14C274.447 75.4853 271.877 67.936 266.594 62.6529L265.18 64.0671C269.977 68.864 272.447 75.8347 272.447 85.14H274.447ZM266.611 62.6699C261.5 57.3098 255.177 54.62 247.707 54.62V56.62C254.636 56.62 260.434 59.0902 265.163 64.0501L266.611 62.6699ZM247.707 54.62C240.236 54.62 233.914 57.3098 228.803 62.6699L230.251 64.0501C234.98 59.0902 240.777 56.62 247.707 56.62V54.62ZM228.803 62.6703C223.77 67.9551 221.327 75.4978 221.327 85.14H223.327C223.327 75.8222 225.684 68.8449 230.251 64.0497L228.803 62.6703ZM221.327 85.14C221.327 94.7778 223.707 102.37 228.606 107.772L230.088 106.428C225.627 101.51 223.327 94.4622 223.327 85.14H221.327ZM228.623 107.79C233.619 113.035 239.884 115.66 247.347 115.66V113.66C240.41 113.66 234.675 111.245 230.071 106.41L228.623 107.79ZM332.252 50.76H331.252V54.3016L333.104 51.283L332.252 50.76ZM344.852 38.34L344.358 37.4705L344.349 37.4755L344.852 38.34ZM362.852 33.84H363.852V32.84H362.852V33.84ZM362.852 60.3V61.3H363.852V60.3H362.852ZM338.192 65.88L337.518 65.141L337.513 65.1461L337.507 65.1512L338.192 65.88ZM332.252 135V136H333.252V135H332.252ZM307.052 135H306.052V136H307.052V135ZM307.052 35.28V34.28H306.052V35.28H307.052ZM332.252 35.28H333.252V34.28H332.252V35.28ZM333.104 51.283C336.261 46.1385 340.343 42.1181 345.355 39.2045L344.349 37.4755C339.041 40.5618 334.723 44.8215 331.4 50.237L333.104 51.283ZM345.346 39.2095C350.46 36.3039 356.286 34.84 362.852 34.84V32.84C355.978 32.84 349.804 34.3761 344.358 37.4705L345.346 39.2095ZM361.852 33.84V60.3H363.852V33.84H361.852ZM362.852 59.3H356.192V61.3H362.852V59.3ZM356.192 59.3C348.13 59.3 341.849 61.1926 337.518 65.141L338.866 66.619C342.695 63.1274 348.414 61.3 356.192 61.3V59.3ZM337.507 65.1512C333.243 69.1568 331.252 75.9869 331.252 85.32H333.252C333.252 76.1731 335.221 70.0432 338.877 66.6088L337.507 65.1512ZM331.252 85.32V135H333.252V85.32H331.252ZM332.252 134H307.052V136H332.252V134ZM308.052 135V35.28H306.052V135H308.052ZM307.052 36.28H332.252V34.28H307.052V36.28ZM331.252 35.28V50.76H333.252V35.28H331.252ZM385.225 132.3L384.805 133.207L384.812 133.211L384.819 133.214L385.225 132.3ZM369.745 120.24L368.941 120.834L368.945 120.84L368.95 120.846L369.745 120.24ZM363.625 103.5V102.5H362.565L362.627 103.559L363.625 103.5ZM389.005 103.5L389.998 103.376L389.888 102.5H389.005V103.5ZM394.585 113.04L393.972 113.829L393.978 113.835L393.985 113.84L394.585 113.04ZM418.165 113.94L417.594 113.119L417.586 113.125L417.577 113.131L418.165 113.94ZM417.265 99.36L416.805 100.248L416.825 100.258L416.844 100.267L417.265 99.36ZM401.605 93.96L401.863 92.9938L401.852 92.9908L401.841 92.988L401.605 93.96ZM383.245 88.38L382.866 89.3052L382.874 89.3085L383.245 88.38ZM371.005 79.56L370.243 80.207L370.249 80.2136L370.254 80.2201L371.005 79.56ZM370.645 48.42L369.83 47.8408L369.825 47.848L369.82 47.8553L370.645 48.42ZM384.325 37.62L383.923 36.7047L383.916 36.7077L384.325 37.62ZM433.826 42.66L433.179 43.4229L433.187 43.4293L433.826 42.66ZM445.525 66.6V67.6H446.599L446.523 66.5287L445.525 66.6ZM421.405 66.6L420.41 66.6905L420.492 67.6H421.405V66.6ZM416.365 57.24L415.725 58.0082L415.743 58.0226L415.76 58.0362L416.365 57.24ZM394.045 56.16L393.491 55.3279L393.481 55.3343L393.472 55.3408L394.045 56.16ZM395.485 70.92L395.013 71.8015L395.026 71.8081L395.038 71.8144L395.485 70.92ZM411.145 76.14L410.899 77.1092L410.903 77.1101L411.145 76.14ZM441.025 90.72L440.254 91.3557L440.264 91.3681L440.274 91.3801L441.025 90.72ZM446.425 106.56H447.425V106.551L447.425 106.542L446.425 106.56ZM441.565 122.04L440.75 121.461L440.745 121.468L440.74 121.475L441.565 122.04ZM427.885 132.84L428.279 133.759L428.288 133.755L427.885 132.84ZM407.185 135.62C399.144 135.62 391.966 134.201 385.632 131.386L384.819 133.214C391.445 136.159 398.907 137.62 407.185 137.62V135.62ZM385.646 131.393C379.294 128.452 374.27 124.529 370.541 119.634L368.95 120.846C372.901 126.031 378.197 130.148 384.805 133.207L385.646 131.393ZM370.55 119.646C366.942 114.758 364.972 109.363 364.624 103.441L362.627 103.559C362.999 109.877 365.109 115.642 368.941 120.834L370.55 119.646ZM363.625 104.5H389.005V102.5H363.625V104.5ZM388.013 103.624C388.528 107.744 390.536 111.157 393.972 113.829L395.199 112.251C392.155 109.883 390.443 106.936 389.998 103.376L388.013 103.624ZM393.985 113.84C397.547 116.511 401.908 117.82 407.005 117.82V115.82C402.263 115.82 398.344 114.609 395.185 112.24L393.985 113.84ZM407.005 117.82C411.922 117.82 415.879 116.839 418.754 114.749L417.577 113.131C415.172 114.881 411.689 115.82 407.005 115.82V117.82ZM418.737 114.761C421.728 112.68 423.305 109.931 423.305 106.56H421.305C421.305 109.189 420.123 111.36 417.594 113.119L418.737 114.761ZM423.305 106.56C423.305 104.758 422.835 103.142 421.865 101.757C420.9 100.379 419.485 99.2878 417.687 98.453L416.844 100.267C418.406 100.992 419.511 101.881 420.226 102.903C420.936 103.918 421.305 105.122 421.305 106.56H423.305ZM417.726 98.4722C414.384 96.7397 409.077 94.9173 401.863 92.9938L401.348 94.9262C408.534 96.8427 413.667 98.6203 416.805 100.248L417.726 98.4722ZM401.841 92.988C394.427 91.1945 388.357 89.3476 383.617 87.4515L382.874 89.3085C387.734 91.2524 393.904 93.1255 401.37 94.932L401.841 92.988ZM383.625 87.4548C379.094 85.5958 375.139 82.7491 371.757 78.8999L370.254 80.2201C373.832 84.2909 378.037 87.3242 382.866 89.3052L383.625 87.4548ZM371.768 78.913C368.602 75.1814 366.965 70.094 366.965 63.54H364.965C364.965 70.426 366.689 76.0186 370.243 80.207L371.768 78.913ZM366.965 63.54C366.965 58.2217 368.464 53.3785 371.471 48.9847L369.82 47.8553C366.586 52.5815 364.965 57.8183 364.965 63.54H366.965ZM371.461 48.9992C374.583 44.6052 378.992 41.1106 384.735 38.5323L383.916 36.7077C377.899 39.4094 373.188 43.1147 369.83 47.8408L371.461 48.9992ZM384.728 38.5353C390.576 35.9623 397.454 34.66 405.385 34.66V32.66C397.237 32.66 390.075 33.9977 383.923 36.7047L384.728 38.5353ZM405.385 34.66C417.097 34.66 426.325 37.6148 433.179 43.4229L434.472 41.8971C427.166 35.7052 417.434 32.66 405.385 32.66V34.66ZM433.187 43.4293C440.035 49.1172 443.825 56.8336 444.528 66.6712L446.523 66.5287C445.786 56.2064 441.776 47.9628 434.464 41.8907L433.187 43.4293ZM445.525 65.6H421.405V67.6H445.525V65.6ZM422.401 66.5095C422.018 62.2872 420.208 58.9041 416.971 56.4438L415.76 58.0362C418.523 60.1359 420.073 62.9928 420.41 66.6905L422.401 66.5095ZM417.006 56.4718C413.896 53.8807 409.745 52.64 404.665 52.64V54.64C409.425 54.64 413.075 55.7993 415.725 58.0082L417.006 56.4718ZM404.665 52.64C400.002 52.64 396.239 53.4961 393.491 55.3279L394.6 56.992C396.892 55.4639 400.209 54.64 404.665 54.64V52.64ZM393.472 55.3408C390.797 57.2132 389.445 59.863 389.445 63.18H391.445C391.445 60.497 392.494 58.4668 394.619 56.9792L393.472 55.3408ZM389.445 63.18C389.445 65.0353 389.912 66.7135 390.867 68.1807C391.819 69.6413 393.22 70.8407 395.013 71.8015L395.958 70.0385C394.391 69.1993 393.272 68.2086 392.543 67.0893C391.819 65.9765 391.445 64.6847 391.445 63.18H389.445ZM395.038 71.8144C398.497 73.5439 403.802 75.3048 410.899 77.1092L411.392 75.1708C404.329 73.3752 399.194 71.6561 395.933 70.0256L395.038 71.8144ZM410.903 77.1101C418.076 78.9033 423.966 80.7497 428.586 82.6452L429.345 80.7948C424.605 78.8503 418.615 76.9767 411.388 75.1699L410.903 77.1101ZM428.586 82.6452C433.106 84.4997 436.994 87.3972 440.254 91.3557L441.797 90.0843C438.337 85.8828 434.185 82.7803 429.345 80.7948L428.586 82.6452ZM440.274 91.3801C443.562 95.121 445.309 100.153 445.426 106.578L447.425 106.542C447.302 99.7666 445.449 94.239 441.777 90.0599L440.274 91.3801ZM445.425 106.56C445.425 112.119 443.866 117.075 440.75 121.461L442.381 122.619C445.745 117.885 447.425 112.521 447.425 106.56H445.425ZM440.74 121.475C437.744 125.855 433.344 129.346 427.483 131.925L428.288 133.755C434.427 131.054 439.147 127.345 442.391 122.605L440.74 121.475ZM427.492 131.921C421.762 134.376 415.001 135.62 407.185 135.62V137.62C415.21 137.62 422.249 136.344 428.279 133.759L427.492 131.921ZM585.062 135L584.36 135.712L584.652 136H585.062V135ZM571.382 121.5L572.084 120.788L571.415 120.127L570.714 120.756L571.382 121.5ZM504.242 132.48L503.82 133.387L503.829 133.391L503.839 133.395L504.242 132.48ZM488.042 118.98L487.205 119.527L487.21 119.535L488.042 118.98ZM489.302 76.32L490.118 76.8984L489.302 76.32ZM510.002 60.3L510.41 61.2128L511.604 60.6788L510.776 59.6668L510.002 60.3ZM502.982 48.96L502.049 49.321L502.054 49.3314L502.982 48.96ZM505.322 21.6L506.158 22.1496L506.164 22.1397L505.322 21.6ZM518.102 10.62L517.678 9.71427L517.671 9.71786L518.102 10.62ZM557.162 10.98L556.691 11.8624L557.162 10.98ZM569.222 22.5L568.346 22.9819L569.222 22.5ZM572.642 38.52V39.52H573.583L573.64 38.5811L572.642 38.52ZM548.162 38.52L547.163 38.4897L547.131 39.52H548.162V38.52ZM545.282 29.52L544.555 30.2066L544.565 30.217L544.575 30.2271L545.282 29.52ZM528.542 29.34L529.206 30.0874L529.209 30.0852L528.542 29.34ZM528.002 45.9L527.145 46.4145L527.149 46.4223L527.154 46.43L528.002 45.9ZM536.822 56.7L536.095 57.3866L536.107 57.3991L536.119 57.4111L536.822 56.7ZM568.502 88.02L567.799 88.7311L568.506 89.4302L569.209 88.7271L568.502 88.02ZM569.402 86.58L568.545 86.0655L568.525 86.0984L568.508 86.1328L569.402 86.58ZM579.662 69.48V68.48H579.096L578.805 68.9655L579.662 69.48ZM605.942 69.48L606.811 69.9746L607.662 68.48H605.942V69.48ZM593.342 91.62L592.473 91.1254L592.462 91.1443L592.452 91.1637L593.342 91.62ZM585.602 104.94L584.766 104.391L584.316 105.075L584.899 105.651L585.602 104.94ZM616.022 135V136H618.457L616.725 134.289L616.022 135ZM555.542 105.84L556.219 106.576L556.991 105.866L556.245 105.129L555.542 105.84ZM524.582 75.24L525.285 74.5288L524.8 74.0495L524.177 74.3258L524.582 75.24ZM513.242 110.88L512.568 111.619L512.574 111.624L512.58 111.63L513.242 110.88ZM585.764 134.288L572.084 120.788L570.68 122.212L584.36 135.712L585.764 134.288ZM570.714 120.756C559.272 131.018 545.296 136.16 528.722 136.16V138.16C545.749 138.16 560.212 132.862 572.05 122.244L570.714 120.756ZM528.722 136.16C519.594 136.16 511.576 134.619 504.645 131.565L503.839 133.395C511.068 136.581 519.37 138.16 528.722 138.16V136.16ZM504.664 131.573C497.852 128.402 492.601 124.016 488.874 118.425L487.21 119.535C491.163 125.464 496.712 130.078 503.82 133.387L504.664 131.573ZM488.879 118.433C485.155 112.731 483.282 106.145 483.282 98.64H481.282C481.282 106.495 483.249 113.469 487.205 119.527L488.879 118.433ZM483.282 98.64C483.282 90.5621 485.561 83.3252 490.118 76.8984L488.486 75.7416C483.683 82.5148 481.282 90.1579 481.282 98.64H483.282ZM490.118 76.8984C494.673 70.475 501.416 65.2368 510.41 61.2128L509.594 59.3872C500.349 63.5232 493.292 68.965 488.486 75.7416L490.118 76.8984ZM510.776 59.6668C507.581 55.762 505.303 52.0692 503.911 48.5886L502.054 49.3314C503.541 53.0507 505.943 56.918 509.228 60.9332L510.776 59.6668ZM503.915 48.599C502.522 45.0002 501.822 41.1631 501.822 37.08H499.822C499.822 41.3968 500.563 45.4798 502.049 49.321L503.915 48.599ZM501.822 37.08C501.822 31.504 503.271 26.5372 506.157 22.1496L504.487 21.0504C501.373 25.7828 499.822 31.136 499.822 37.08H501.822ZM506.164 22.1397C509.054 17.6319 513.164 14.0902 518.534 11.5221L517.671 9.71786C512 12.4298 507.591 16.2081 504.48 21.0603L506.164 22.1397ZM518.526 11.5257C524.01 8.95872 530.4 7.65999 537.722 7.65999V5.65999C530.164 5.65999 523.474 7.00126 517.678 9.7143L518.526 11.5257ZM537.722 7.65999C545.156 7.65999 551.467 9.07571 556.691 11.8624L557.633 10.0976C552.058 7.12428 545.408 5.65999 537.722 5.65999V7.65999ZM556.691 11.8624C561.941 14.6621 565.81 18.3714 568.346 22.9819L570.098 22.0181C567.354 17.0286 563.183 13.0579 557.633 10.0976L556.691 11.8624ZM568.346 22.9819C570.888 27.6035 571.993 32.7529 571.644 38.4589L573.64 38.5811C574.011 32.5271 572.836 26.9965 570.098 22.0181L568.346 22.9819ZM572.642 37.52H548.162V39.52H572.642V37.52ZM549.162 38.5503C549.287 34.4208 548.288 31.112 545.989 28.8129L544.575 30.2271C546.356 32.008 547.277 34.6992 547.163 38.4897L549.162 38.5503ZM546.009 28.8334C543.748 26.4389 540.706 25.28 537.002 25.28V27.28C540.258 27.28 542.737 28.2811 544.555 30.2066L546.009 28.8334ZM537.002 25.28C533.422 25.28 530.357 26.3741 527.875 28.5948L529.209 30.0852C531.287 28.2259 533.862 27.28 537.002 27.28V25.28ZM527.878 28.5926C525.486 30.7187 524.302 33.52 524.302 36.9H526.302C526.302 34.04 527.278 31.8013 529.206 30.0874L527.878 28.5926ZM524.302 36.9C524.302 40.1095 525.267 43.2852 527.145 46.4145L528.86 45.3855C527.137 42.5147 526.302 39.6905 526.302 36.9H524.302ZM527.154 46.43C529.006 49.3927 531.998 53.0485 536.095 57.3866L537.549 56.0134C533.486 51.7115 530.598 48.1673 528.85 45.37L527.154 46.43ZM536.119 57.4111L567.799 88.7311L569.205 87.3089L537.525 55.9889L536.119 57.4111ZM569.209 88.7271C569.506 88.4303 569.758 88.1049 569.936 87.7472L568.148 86.8528C568.086 86.9751 567.978 87.1297 567.795 87.3129L569.209 88.7271ZM569.936 87.7472C570.056 87.5072 570.176 87.2672 570.297 87.0272L568.508 86.1328C568.388 86.3728 568.268 86.6128 568.148 86.8528L569.936 87.7472ZM570.26 87.0945L580.52 69.9945L578.805 68.9655L568.545 86.0655L570.26 87.0945ZM579.662 70.48H605.942V68.48H579.662V70.48ZM605.073 68.9854L592.473 91.1254L594.211 92.1146L606.811 69.9746L605.073 68.9854ZM592.452 91.1637C590.068 95.8132 587.506 100.222 584.766 104.391L586.438 105.489C589.218 101.258 591.816 96.7867 594.232 92.0763L592.452 91.1637ZM584.899 105.651L615.319 135.711L616.725 134.289L586.305 104.229L584.899 105.651ZM616.022 134H585.062V136H616.022V134ZM529.442 117.28C539.545 117.28 548.484 113.697 556.219 106.576L554.865 105.104C547.48 111.903 539.019 115.28 529.442 115.28V117.28ZM556.245 105.129L525.285 74.5288L523.879 75.9512L554.839 106.551L556.245 105.129ZM524.177 74.3258C512.323 79.5805 506.122 87.1846 506.122 97.2H508.122C508.122 88.2554 513.561 81.2195 524.987 76.1542L524.177 74.3258ZM506.122 97.2C506.122 102.888 508.286 107.714 512.568 111.619L513.916 110.141C510.038 106.606 508.122 102.312 508.122 97.2H506.122ZM512.58 111.63C516.883 115.427 522.538 117.28 529.442 117.28V115.28C522.906 115.28 517.761 113.533 513.904 110.13L512.58 111.63ZM735.29 9.36H736.29V8.36H735.29V9.36ZM735.29 29.7V30.7H736.29V29.7H735.29ZM701.81 29.7V28.7H700.81V29.7H701.81ZM701.81 135V136H702.81V135H701.81ZM676.61 135H675.61V136H676.61V135ZM676.61 29.7H677.61V28.7H676.61V29.7ZM643.13 29.7H642.13V30.7H643.13V29.7ZM643.13 9.36V8.36H642.13V9.36H643.13ZM734.29 9.36V29.7H736.29V9.36H734.29ZM735.29 28.7H701.81V30.7H735.29V28.7ZM700.81 29.7V135H702.81V29.7H700.81ZM701.81 134H676.61V136H701.81V134ZM677.61 135V29.7H675.61V135H677.61ZM676.61 28.7H643.13V30.7H676.61V28.7ZM644.13 29.7V9.36H642.13V29.7H644.13ZM643.13 10.36H735.29V8.36H643.13V10.36ZM838.277 35.28L839.199 35.6675L839.782 34.28H838.277V35.28ZM776.537 182.16V183.16H777.201L777.459 182.548L776.537 182.16ZM749.717 182.16L748.8 181.761L748.192 183.16H749.717V182.16ZM771.317 132.48L772.234 132.879L772.403 132.491L772.242 132.1L771.317 132.48ZM731.357 35.28V34.28H729.865L730.432 35.6602L731.357 35.28ZM759.617 35.28L760.555 34.9334L760.314 34.28H759.617V35.28ZM785.357 104.94L784.419 105.287L785.351 107.808L786.293 105.291L785.357 104.94ZM811.457 35.28V34.28H810.764L810.521 34.9291L811.457 35.28ZM837.355 34.8925L775.615 181.773L777.459 182.548L839.199 35.6675L837.355 34.8925ZM776.537 181.16H749.717V183.16H776.537V181.16ZM750.634 182.559L772.234 132.879L770.4 132.081L748.8 181.761L750.634 182.559ZM772.242 132.1L732.282 34.8998L730.432 35.6602L770.392 132.86L772.242 132.1ZM731.357 36.28H759.617V34.28H731.357V36.28ZM758.679 35.6266L784.419 105.287L786.295 104.593L760.555 34.9334L758.679 35.6266ZM786.293 105.291L812.393 35.6309L810.521 34.9291L784.421 104.589L786.293 105.291ZM811.457 36.28H838.277V34.28H811.457V36.28ZM866.261 49.68H865.261V52.8139L867.077 50.2592L866.261 49.68ZM879.581 38.34L880.051 39.2229L880.058 39.2193L879.581 38.34ZM922.241 39.96L921.718 40.8122L921.725 40.8162L922.241 39.96ZM938.621 57.96L937.73 58.4127L937.734 58.421L937.738 58.4292L938.621 57.96ZM938.621 111.96L937.732 111.502L937.73 111.507L938.621 111.96ZM922.241 130.14L921.714 129.29L921.707 129.295L922.241 130.14ZM879.761 132.12L879.284 132.999L879.292 133.003L879.761 132.12ZM866.261 120.78L867.056 120.173L865.261 117.821V120.78H866.261ZM866.261 182.52V183.52H867.261V182.52H866.261ZM841.061 182.52H840.061V183.52H841.061V182.52ZM841.061 35.28V34.28H840.061V35.28H841.061ZM866.261 35.28H867.261V34.28H866.261V35.28ZM915.221 69.3L914.342 69.7755L914.349 69.7898L914.358 69.8039L915.221 69.3ZM905.501 59.22L905.002 60.0867L905.014 60.0929L905.501 59.22ZM879.581 59.4L880.08 60.2667L880.088 60.2619L879.581 59.4ZM869.861 69.48L868.992 68.9864L868.987 68.9954L868.982 69.0045L869.861 69.48ZM869.861 100.8L868.982 101.276L868.987 101.285L868.992 101.294L869.861 100.8ZM879.581 111.06L879.063 111.915L879.078 111.924L879.094 111.933L879.581 111.06ZM905.501 110.88L904.994 110.018L904.983 110.025L905.501 110.88ZM915.221 100.62L914.352 100.126L914.347 100.135L914.342 100.144L915.221 100.62ZM867.077 50.2592C870.215 45.8428 874.529 42.1603 880.051 39.2229L879.112 37.4571C873.354 40.5197 868.788 44.3972 865.446 49.1008L867.077 50.2592ZM880.058 39.2193C885.655 36.1875 892.028 34.66 899.201 34.66V32.66C891.735 32.66 885.028 34.2525 879.105 37.4607L880.058 39.2193ZM899.201 34.66C907.549 34.66 915.045 36.7148 921.718 40.8122L922.765 39.1078C915.757 34.8051 907.894 32.66 899.201 32.66V34.66ZM921.725 40.8162C928.512 44.9121 933.848 50.7664 937.73 58.4127L939.513 57.5073C935.475 49.5536 929.891 43.4079 922.758 39.1038L921.725 40.8162ZM937.738 58.4292C941.729 65.9416 943.741 74.7153 943.741 84.78H945.741C945.741 74.4447 943.674 65.3384 939.505 57.4908L937.738 58.4292ZM943.741 84.78C943.741 94.8439 941.73 103.743 937.732 111.502L939.51 112.418C943.673 104.337 945.741 95.1161 945.741 84.78H943.741ZM937.73 111.507C933.847 119.156 928.508 125.073 921.714 129.29L922.769 130.99C929.895 126.567 935.476 120.364 939.513 112.413L937.73 111.507ZM921.707 129.295C915.036 133.508 907.543 135.62 899.201 135.62V137.62C907.9 137.62 915.767 135.412 922.775 130.985L921.707 129.295ZM899.201 135.62C892.021 135.62 885.707 134.15 880.231 131.237L879.292 133.003C885.096 136.09 891.742 137.62 899.201 137.62V135.62ZM880.239 131.241C874.831 128.302 870.443 124.611 867.056 120.173L865.466 121.387C869.04 126.069 873.652 129.938 879.284 132.999L880.239 131.241ZM865.261 120.78V182.52H867.261V120.78H865.261ZM866.261 181.52H841.061V183.52H866.261V181.52ZM842.061 182.52V35.28H840.061V182.52H842.061ZM841.061 36.28H866.261V34.28H841.061V36.28ZM865.261 35.28V49.68H867.261V35.28H865.261ZM920.001 84.78C920.001 78.6384 918.711 73.297 916.085 68.7961L914.358 69.8039C916.772 73.943 918.001 78.9216 918.001 84.78H920.001ZM916.101 68.8245C913.618 64.2314 910.248 60.7271 905.989 58.3471L905.014 60.0929C908.915 62.2729 912.024 65.4886 914.342 69.7755L916.101 68.8245ZM906 58.3534C901.885 55.9838 897.392 54.8 892.541 54.8V56.8C897.051 56.8 901.198 57.8962 905.002 60.0866L906 58.3534ZM892.541 54.8C887.796 54.8 883.302 56.0513 879.074 58.5381L880.088 60.2619C884.021 57.9487 888.167 56.8 892.541 56.8V54.8ZM879.082 58.5334C874.95 60.9125 871.589 64.4098 868.992 68.9864L870.731 69.9736C873.174 65.6702 876.293 62.4475 880.08 60.2666L879.082 58.5334ZM868.982 69.0045C866.489 73.6158 865.261 79.0053 865.261 85.14H867.261C867.261 79.2747 868.434 74.2242 870.741 69.9555L868.982 69.0045ZM865.261 85.14C865.261 91.2747 866.489 96.6642 868.982 101.276L870.741 100.324C868.434 96.0558 867.261 91.0053 867.261 85.14H865.261ZM868.992 101.294C871.587 105.867 874.942 109.418 879.063 111.915L880.1 110.205C876.3 107.902 873.176 104.613 870.731 100.306L868.992 101.294ZM879.094 111.933C883.319 114.294 887.806 115.48 892.541 115.48V113.48C888.157 113.48 884.004 112.386 880.069 110.187L879.094 111.933ZM892.541 115.48C897.402 115.48 901.902 114.231 906.02 111.735L904.983 110.025C901.181 112.329 897.041 113.48 892.541 113.48V115.48ZM906.008 111.742C910.256 109.243 913.62 105.685 916.101 101.096L914.342 100.144C912.022 104.435 908.907 107.717 904.994 110.018L906.008 111.742ZM916.091 101.114C918.712 96.4958 920.001 91.0387 920.001 84.78H918.001C918.001 90.7613 916.771 95.8642 914.352 100.126L916.091 101.114ZM970.614 130.32L970.123 131.192L970.134 131.197L970.614 130.32ZM952.434 112.14L951.559 112.625L951.565 112.635L952.434 112.14ZM952.614 58.14L951.75 57.6353L951.745 57.6453L952.614 58.14ZM971.154 40.14L971.628 41.0205L971.638 41.0148L971.154 40.14ZM1023.35 40.14L1022.87 41.0149L1022.88 41.0205L1023.35 40.14ZM1041.71 58.14L1040.84 58.6347L1040.85 58.6447L1041.71 58.14ZM1041.53 112.14L1040.68 111.625L1040.67 111.635L1041.53 112.14ZM1022.81 130.32L1023.29 131.2L1023.29 131.198L1022.81 130.32ZM1009.31 111.42L1009.79 112.298L1009.8 112.293L1009.31 111.42ZM1019.03 101.34L1019.91 101.816L1019.03 101.34ZM1015.07 63.36L1014.35 64.0501L1014.36 64.0587L1014.37 64.0671L1015.07 63.36ZM978.714 63.36L977.99 62.6699L977.99 62.6703L978.714 63.36ZM978.534 107.1L977.793 107.772L977.801 107.781L977.809 107.79L978.534 107.1ZM996.534 135.62C987.085 135.62 978.612 133.555 971.093 129.443L970.134 131.197C977.975 135.485 986.782 137.62 996.534 137.62V135.62ZM971.104 129.448C963.585 125.219 957.655 119.291 953.303 111.645L951.565 112.635C956.093 120.589 962.282 126.781 970.123 131.192L971.104 129.448ZM953.308 111.656C949.082 104.024 946.954 95.1952 946.954 85.14H944.954C944.954 95.4848 947.146 104.656 951.559 112.624L953.308 111.656ZM946.954 85.14C946.954 75.0894 949.14 66.2643 953.483 58.6347L951.745 57.6453C947.208 65.6157 944.954 74.7906 944.954 85.14H946.954ZM953.477 58.6447C957.946 51 963.993 45.1315 971.628 41.0205L970.68 39.2595C962.714 43.5485 956.401 49.68 951.75 57.6353L953.477 58.6447ZM971.638 41.0148C979.279 36.7832 987.81 34.66 997.254 34.66V32.66C987.498 32.66 978.629 34.8568 970.669 39.2652L971.638 41.0148ZM997.254 34.66C1006.7 34.66 1015.23 36.7832 1022.87 41.0148L1023.84 39.2652C1015.88 34.8568 1007.01 32.66 997.254 32.66V34.66ZM1022.88 41.0205C1030.51 45.1303 1036.5 50.9955 1040.84 58.6347L1042.58 57.6453C1038.05 49.6845 1031.8 43.5497 1023.83 39.2595L1022.88 41.0205ZM1040.85 58.6447C1045.31 66.2726 1047.55 75.094 1047.55 85.14H1049.55C1049.55 74.786 1047.24 65.6074 1042.58 57.6353L1040.85 58.6447ZM1047.55 85.14C1047.55 95.1813 1045.25 103.999 1040.68 111.626L1042.39 112.654C1047.18 104.681 1049.55 95.4987 1049.55 85.14H1047.55ZM1040.67 111.635C1036.2 119.279 1030.09 125.209 1022.33 129.442L1023.29 131.198C1031.37 126.791 1037.75 120.602 1042.4 112.645L1040.67 111.635ZM1022.34 129.44C1014.7 133.554 1006.1 135.62 996.534 135.62V137.62C1006.4 137.62 1015.33 135.486 1023.29 131.2L1022.34 129.44ZM996.534 115.66C1001.26 115.66 1005.68 114.539 1009.79 112.298L1008.83 110.542C1005.02 112.621 1000.93 113.66 996.534 113.66V115.66ZM1009.8 112.293C1014.06 109.913 1017.43 106.409 1019.91 101.816L1018.15 100.864C1015.84 105.151 1012.73 108.367 1008.83 110.547L1009.8 112.293ZM1019.91 101.816C1022.41 97.1963 1023.63 91.6237 1023.63 85.14H1021.63C1021.63 91.3763 1020.46 96.6037 1018.15 100.864L1019.91 101.816ZM1023.63 85.14C1023.63 75.4853 1021.06 67.936 1015.78 62.6529L1014.37 64.0671C1019.16 68.864 1021.63 75.8347 1021.63 85.14H1023.63ZM1015.8 62.6699C1010.69 57.3098 1004.36 54.62 996.894 54.62V56.62C1003.82 56.62 1009.62 59.0902 1014.35 64.0501L1015.8 62.6699ZM996.894 54.62C989.423 54.62 983.101 57.3098 977.99 62.6699L979.437 64.0501C984.167 59.0902 989.964 56.62 996.894 56.62V54.62ZM977.99 62.6703C972.956 67.9551 970.514 75.4978 970.514 85.14H972.514C972.514 75.8222 974.871 68.8449 979.438 64.0497L977.99 62.6703ZM970.514 85.14C970.514 94.7778 972.894 102.37 977.793 107.772L979.274 106.428C974.813 101.51 972.514 94.4622 972.514 85.14H970.514ZM977.809 107.79C982.805 113.035 989.071 115.66 996.534 115.66V113.66C989.597 113.66 983.862 111.245 979.258 106.41L977.809 107.79ZM1114.92 38.16L1114.45 39.0429L1114.46 39.0468L1114.46 39.0506L1114.92 38.16ZM1128.24 49.5L1127.42 50.0692L1129.24 52.7013V49.5H1128.24ZM1128.24 35.28V34.28H1127.24V35.28H1128.24ZM1153.62 35.28H1154.62V34.28H1153.62V35.28ZM1148.04 160.38L1147.15 159.921L1147.15 159.927L1148.04 160.38ZM1131.3 177.66L1130.81 176.789L1130.8 176.795L1131.3 177.66ZM1069.38 174.24L1068.79 175.046L1068.79 175.05L1069.38 174.24ZM1054.08 147.24V146.24H1052.97L1053.08 147.345L1054.08 147.24ZM1079.1 147.24L1080.06 146.962L1079.85 146.24H1079.1V147.24ZM1087.56 158.04L1088.09 157.191L1088.08 157.187L1087.56 158.04ZM1121.4 155.52L1120.71 154.794L1120.7 154.804L1121.4 155.52ZM1128.24 120.24H1129.24V117.039L1127.42 119.671L1128.24 120.24ZM1114.74 131.94L1114.26 131.061L1114.25 131.065L1114.74 131.94ZM1072.26 130.14L1072.79 129.29L1072.26 130.14ZM1055.7 111.96L1054.8 112.407L1054.81 112.415L1054.81 112.424L1055.7 111.96ZM1055.7 57.96L1054.81 57.4965L1054.81 57.5073L1055.7 57.96ZM1072.08 39.96L1071.56 39.1038L1071.56 39.1078L1072.08 39.96ZM1124.64 69.48L1123.76 69.9555L1123.76 69.9656L1124.64 69.48ZM1114.92 59.4L1114.41 60.2619L1114.42 60.2675L1114.43 60.2729L1114.92 59.4ZM1088.82 59.22L1088.32 58.3534L1088.82 59.22ZM1079.1 69.3L1078.23 68.8064L1078.22 68.8144L1079.1 69.3ZM1079.1 100.62L1078.21 101.086L1078.22 101.1L1078.23 101.114L1079.1 100.62ZM1088.82 110.88L1088.3 111.735L1088.31 111.742L1088.82 110.88ZM1114.92 111.06L1115.41 111.933L1115.42 111.928L1115.43 111.922L1114.92 111.06ZM1124.64 100.98L1125.51 101.466L1125.52 101.456L1124.64 100.98ZM1095.3 34.66C1102.6 34.66 1108.98 36.1315 1114.45 39.0429L1115.39 37.2771C1109.58 34.1884 1102.88 32.66 1095.3 32.66V34.66ZM1114.46 39.0506C1119.97 41.8641 1124.28 45.5398 1127.42 50.0692L1129.06 48.9308C1125.72 44.1002 1121.14 40.2159 1115.37 37.2694L1114.46 39.0506ZM1129.24 49.5V35.28H1127.24V49.5H1129.24ZM1128.24 36.28H1153.62V34.28H1128.24V36.28ZM1152.62 35.28V135.72H1154.62V35.28H1152.62ZM1152.62 135.72C1152.62 144.823 1150.79 152.882 1147.15 159.921L1148.93 160.839C1152.73 153.478 1154.62 145.097 1154.62 135.72H1152.62ZM1147.15 159.927C1143.52 167.064 1138.08 172.682 1130.81 176.789L1131.79 178.531C1139.39 174.238 1145.12 168.336 1148.93 160.833L1147.15 159.927ZM1130.8 176.795C1123.54 181.009 1114.72 183.14 1104.3 183.14V185.14C1115 185.14 1124.18 182.951 1131.8 178.525L1130.8 176.795ZM1104.3 183.14C1090.29 183.14 1078.87 179.878 1069.96 173.43L1068.79 175.05C1078.12 181.802 1089.98 185.14 1104.3 185.14V183.14ZM1069.97 173.434C1061.2 167.005 1056.24 158.264 1055.07 147.135L1053.08 147.345C1054.31 159.016 1059.55 168.275 1068.79 175.046L1069.97 173.434ZM1054.08 148.24H1079.1V146.24H1054.08V148.24ZM1078.14 147.518C1079.53 152.335 1082.52 156.133 1087.04 158.893L1088.08 157.187C1083.96 154.667 1081.3 151.265 1080.06 146.962L1078.14 147.518ZM1087.03 158.889C1091.66 161.765 1097.19 163.18 1103.58 163.18V161.18C1097.49 161.18 1092.34 159.835 1088.09 157.191L1087.03 158.889ZM1103.58 163.18C1111.12 163.18 1117.32 160.886 1122.1 156.236L1120.7 154.804C1116.36 159.034 1110.68 161.18 1103.58 161.18V163.18ZM1122.09 156.246C1126.92 151.67 1129.24 144.759 1129.24 135.72H1127.24C1127.24 144.441 1125 150.73 1120.71 154.794L1122.09 156.246ZM1129.24 135.72V120.24H1127.24V135.72H1129.24ZM1127.42 119.671C1124.28 124.203 1119.91 128.004 1114.26 131.061L1115.21 132.819C1121.09 129.636 1125.72 125.637 1129.06 120.809L1127.42 119.671ZM1114.25 131.065C1108.78 134.092 1102.47 135.62 1095.3 135.62V137.62C1102.76 137.62 1109.42 136.028 1115.22 132.815L1114.25 131.065ZM1095.3 135.62C1087.08 135.62 1079.58 133.509 1072.79 129.29L1071.73 130.99C1078.85 135.411 1086.72 137.62 1095.3 137.62V135.62ZM1072.79 129.29C1065.99 125.072 1060.59 119.15 1056.58 111.496L1054.81 112.424C1058.97 120.37 1064.61 126.568 1071.73 130.99L1072.79 129.29ZM1056.59 111.513C1052.71 103.751 1050.76 94.8484 1050.76 84.78H1048.76C1048.76 95.1116 1050.77 104.329 1054.8 112.407L1056.59 111.513ZM1050.76 84.78C1050.76 74.8333 1052.71 66.0524 1056.59 58.4127L1054.81 57.5073C1050.77 65.4675 1048.76 74.5667 1048.76 84.78H1050.76ZM1056.58 58.4235C1060.59 50.7675 1065.93 44.9087 1072.6 40.8122L1071.56 39.1078C1064.55 43.4113 1058.97 49.5525 1054.81 57.4965L1056.58 58.4235ZM1072.6 40.8162C1079.39 36.7149 1086.95 34.66 1095.3 34.66V32.66C1086.61 32.66 1078.69 34.8051 1071.56 39.1038L1072.6 40.8162ZM1129.24 85.14C1129.24 78.8901 1128.01 73.4944 1125.51 68.9944L1123.76 69.9656C1126.06 74.1056 1127.24 79.1499 1127.24 85.14H1129.24ZM1125.52 69.0045C1123.04 64.4114 1119.67 60.9071 1115.41 58.5271L1114.43 60.2729C1118.33 62.4529 1121.44 65.6686 1123.76 69.9555L1125.52 69.0045ZM1115.43 58.5381C1111.19 56.0488 1106.64 54.8 1101.78 54.8V56.8C1106.28 56.8 1110.48 57.9512 1114.41 60.2619L1115.43 58.5381ZM1101.78 54.8C1096.93 54.8 1092.44 55.9838 1088.32 58.3534L1089.32 60.0866C1093.12 57.8962 1097.27 56.8 1101.78 56.8V54.8ZM1088.32 58.3534C1084.19 60.7325 1080.83 64.2298 1078.23 68.8064L1079.97 69.7936C1082.41 65.4902 1085.53 62.2675 1089.32 60.0866L1088.32 58.3534ZM1078.22 68.8144C1075.73 73.3116 1074.5 78.6462 1074.5 84.78H1076.5C1076.5 78.9138 1077.67 73.9284 1079.97 69.7856L1078.22 68.8144ZM1074.5 84.78C1074.5 90.9155 1075.73 96.3602 1078.21 101.086L1079.98 100.154C1077.67 95.7598 1076.5 90.6445 1076.5 84.78H1074.5ZM1078.23 101.114C1080.82 105.687 1084.18 109.238 1088.3 111.735L1089.34 110.025C1085.54 107.722 1082.41 104.433 1079.97 100.126L1078.23 101.114ZM1088.31 111.742C1092.54 114.229 1097.03 115.48 1101.78 115.48V113.48C1097.4 113.48 1093.26 112.331 1089.33 110.018L1088.31 111.742ZM1101.78 115.48C1106.63 115.48 1111.18 114.296 1115.41 111.933L1114.43 110.187C1110.5 112.384 1106.29 113.48 1101.78 113.48V115.48ZM1115.43 111.922C1119.67 109.427 1123.03 105.934 1125.51 101.466L1123.76 100.494C1121.45 104.666 1118.33 107.893 1114.41 110.198L1115.43 111.922ZM1125.52 101.456C1128.01 96.8415 1129.24 91.391 1129.24 85.14H1127.24C1127.24 91.129 1126.06 96.2385 1123.76 100.504L1125.52 101.456ZM1192.63 50.76H1191.63V54.3016L1193.48 51.283L1192.63 50.76ZM1205.23 38.34L1204.74 37.4705L1204.73 37.4755L1205.23 38.34ZM1223.23 33.84H1224.23V32.84H1223.23V33.84ZM1223.23 60.3V61.3H1224.23V60.3H1223.23ZM1198.57 65.88L1197.9 65.141L1197.89 65.1461L1197.89 65.1512L1198.57 65.88ZM1192.63 135V136H1193.63V135H1192.63ZM1167.43 135H1166.43V136H1167.43V135ZM1167.43 35.28V34.28H1166.43V35.28H1167.43ZM1192.63 35.28H1193.63V34.28H1192.63V35.28ZM1193.48 51.283C1196.64 46.1385 1200.72 42.1181 1205.73 39.2045L1204.73 37.4755C1199.42 40.5618 1195.1 44.8215 1191.78 50.237L1193.48 51.283ZM1205.72 39.2095C1210.84 36.3039 1216.67 34.84 1223.23 34.84V32.84C1216.36 32.84 1210.18 34.3761 1204.74 37.4705L1205.72 39.2095ZM1222.23 33.84V60.3H1224.23V33.84H1222.23ZM1223.23 59.3H1216.57V61.3H1223.23V59.3ZM1216.57 59.3C1208.51 59.3 1202.23 61.1926 1197.9 65.141L1199.24 66.619C1203.07 63.1274 1208.79 61.3 1216.57 61.3V59.3ZM1197.89 65.1512C1193.62 69.1568 1191.63 75.9869 1191.63 85.32H1193.63C1193.63 76.1731 1195.6 70.0432 1199.26 66.6088L1197.89 65.1512ZM1191.63 85.32V135H1193.63V85.32H1191.63ZM1192.63 134H1167.43V136H1192.63V134ZM1168.43 135V35.28H1166.43V135H1168.43ZM1167.43 36.28H1192.63V34.28H1167.43V36.28ZM1191.63 35.28V50.76H1193.63V35.28H1191.63ZM1228.86 57.96L1227.98 57.4965L1227.97 57.5073L1228.86 57.96ZM1245.24 39.96L1244.73 39.1038L1244.72 39.1078L1245.24 39.96ZM1287.9 38.16L1287.43 39.0387L1287.43 39.0429L1287.9 38.16ZM1301.4 49.5L1300.6 50.0932L1302.4 52.5429V49.5H1301.4ZM1301.4 35.28V34.28H1300.4V35.28H1301.4ZM1326.78 35.28H1327.78V34.28H1326.78V35.28ZM1326.78 135V136H1327.78V135H1326.78ZM1301.4 135H1300.4V136H1301.4V135ZM1301.4 120.42H1302.4V117.219L1300.58 119.851L1301.4 120.42ZM1287.9 132.12L1288.37 133.003L1288.38 132.999L1287.9 132.12ZM1245.24 130.14L1244.71 130.986L1244.72 130.99L1245.24 130.14ZM1228.86 111.96L1227.97 112.407L1227.97 112.415L1227.98 112.424L1228.86 111.96ZM1297.8 69.48L1296.92 69.9555L1296.93 69.9656L1297.8 69.48ZM1288.08 59.4L1287.58 60.2619L1287.59 60.2675L1287.6 60.2729L1288.08 59.4ZM1261.98 59.22L1261.49 58.3534L1261.98 59.22ZM1252.26 69.3L1251.39 68.8064L1251.39 68.8144L1252.26 69.3ZM1252.26 100.62L1251.38 101.086L1251.39 101.1L1251.39 101.114L1252.26 100.62ZM1261.98 110.88L1261.47 111.735L1261.48 111.742L1261.98 110.88ZM1288.08 111.06L1288.57 111.933L1288.58 111.928L1288.59 111.922L1288.08 111.06ZM1297.8 100.98L1298.68 101.466L1298.68 101.456L1297.8 100.98ZM1223.92 84.78C1223.92 74.8333 1225.88 66.0524 1229.76 58.4127L1227.97 57.5073C1223.93 65.4675 1221.92 74.5667 1221.92 84.78H1223.92ZM1229.75 58.4235C1233.76 50.7675 1239.1 44.9087 1245.77 40.8122L1244.72 39.1078C1237.71 43.4113 1232.13 49.5525 1227.98 57.4965L1229.75 58.4235ZM1245.76 40.8162C1252.56 36.7149 1260.12 34.66 1268.46 34.66V32.66C1259.77 32.66 1251.85 34.8051 1244.73 39.1038L1245.76 40.8162ZM1268.46 34.66C1275.77 34.66 1282.08 36.1318 1287.43 39.0386L1288.38 37.2814C1282.69 34.1882 1276.04 32.66 1268.46 32.66V34.66ZM1287.43 39.0429C1292.96 41.9816 1297.34 45.6682 1300.6 50.0932L1302.21 48.9068C1298.75 44.2118 1294.13 40.3383 1288.37 37.2771L1287.43 39.0429ZM1302.4 49.5V35.28H1300.4V49.5H1302.4ZM1301.4 36.28H1326.78V34.28H1301.4V36.28ZM1325.78 35.28V135H1327.78V35.28H1325.78ZM1326.78 134H1301.4V136H1326.78V134ZM1302.4 135V120.42H1300.4V135H1302.4ZM1300.58 119.851C1297.44 124.383 1293.07 128.184 1287.43 131.241L1288.38 132.999C1294.26 129.816 1298.88 125.816 1302.23 120.989L1300.58 119.851ZM1287.43 131.237C1281.96 134.148 1275.59 135.62 1268.28 135.62V137.62C1275.86 137.62 1282.57 136.092 1288.37 133.003L1287.43 131.237ZM1268.28 135.62C1260.07 135.62 1252.57 133.509 1245.77 129.29L1244.72 130.99C1251.84 135.411 1259.7 137.62 1268.28 137.62V135.62ZM1245.78 129.295C1239.1 125.077 1233.76 119.155 1229.75 111.496L1227.98 112.424C1232.13 120.365 1237.71 126.563 1244.71 130.985L1245.78 129.295ZM1229.76 111.513C1225.88 103.751 1223.92 94.8484 1223.92 84.78H1221.92C1221.92 95.1116 1223.93 104.329 1227.97 112.407L1229.76 111.513ZM1302.4 85.14C1302.4 78.8901 1301.18 73.4944 1298.68 68.9944L1296.93 69.9656C1299.23 74.1056 1300.4 79.1499 1300.4 85.14H1302.4ZM1298.68 69.0045C1296.2 64.4114 1292.83 60.9071 1288.57 58.5271L1287.6 60.2729C1291.5 62.4529 1294.61 65.6686 1296.92 69.9555L1298.68 69.0045ZM1288.59 58.5381C1284.36 56.0488 1279.8 54.8 1274.94 54.8V56.8C1279.44 56.8 1283.65 57.9512 1287.58 60.2619L1288.59 58.5381ZM1274.94 54.8C1270.09 54.8 1265.6 55.9838 1261.49 58.3534L1262.48 60.0866C1266.29 57.8962 1270.44 56.8 1274.94 56.8V54.8ZM1261.49 58.3534C1257.35 60.7325 1253.99 64.2298 1251.39 68.8064L1253.13 69.7936C1255.58 65.4902 1258.7 62.2675 1262.48 60.0866L1261.49 58.3534ZM1251.39 68.8144C1248.89 73.3116 1247.66 78.6462 1247.66 84.78H1249.66C1249.66 78.9138 1250.84 73.9284 1253.14 69.7856L1251.39 68.8144ZM1247.66 84.78C1247.66 90.9155 1248.89 96.3602 1251.38 101.086L1253.15 100.154C1250.84 95.7598 1249.66 90.6445 1249.66 84.78H1247.66ZM1251.39 101.114C1253.99 105.687 1257.35 109.238 1261.47 111.735L1262.5 110.025C1258.7 107.722 1255.58 104.433 1253.13 100.126L1251.39 101.114ZM1261.48 111.742C1265.7 114.229 1270.2 115.48 1274.94 115.48V113.48C1270.57 113.48 1266.42 112.331 1262.49 110.018L1261.48 111.742ZM1274.94 115.48C1279.79 115.48 1284.34 114.296 1288.57 111.933L1287.6 110.187C1283.67 112.384 1279.45 113.48 1274.94 113.48V115.48ZM1288.59 111.922C1292.83 109.427 1296.2 105.934 1298.68 101.466L1296.93 100.494C1294.61 104.666 1291.5 107.893 1287.58 110.198L1288.59 111.922ZM1298.68 101.456C1301.18 96.8415 1302.4 91.391 1302.4 85.14H1300.4C1300.4 91.129 1299.23 96.2385 1296.92 100.504L1298.68 101.456ZM1365.8 49.68H1364.8V52.8139L1366.61 50.2592L1365.8 49.68ZM1379.12 38.34L1379.59 39.2229L1379.59 39.2193L1379.12 38.34ZM1421.78 39.96L1421.25 40.8122L1421.26 40.8162L1421.78 39.96ZM1438.16 57.96L1437.26 58.4127L1437.27 58.421L1437.27 58.4292L1438.16 57.96ZM1438.16 111.96L1437.27 111.502L1437.26 111.507L1438.16 111.96ZM1421.78 130.14L1421.25 129.29L1421.24 129.295L1421.78 130.14ZM1379.3 132.12L1378.82 132.999L1378.83 133.003L1379.3 132.12ZM1365.8 120.78L1366.59 120.173L1364.8 117.821V120.78H1365.8ZM1365.8 182.52V183.52H1366.8V182.52H1365.8ZM1340.6 182.52H1339.6V183.52H1340.6V182.52ZM1340.6 35.28V34.28H1339.6V35.28H1340.6ZM1365.8 35.28H1366.8V34.28H1365.8V35.28ZM1414.76 69.3L1413.88 69.7755L1413.88 69.7898L1413.89 69.8039L1414.76 69.3ZM1405.04 59.22L1404.54 60.0867L1404.55 60.0929L1405.04 59.22ZM1379.12 59.4L1379.62 60.2667L1379.62 60.2619L1379.12 59.4ZM1369.4 69.48L1368.53 68.9864L1368.52 68.9954L1368.52 69.0045L1369.4 69.48ZM1369.4 100.8L1368.52 101.276L1368.52 101.285L1368.53 101.294L1369.4 100.8ZM1379.12 111.06L1378.6 111.915L1378.61 111.924L1378.63 111.933L1379.12 111.06ZM1405.04 110.88L1404.53 110.018L1404.52 110.025L1405.04 110.88ZM1414.76 100.62L1413.89 100.126L1413.88 100.135L1413.88 100.144L1414.76 100.62ZM1366.61 50.2592C1369.75 45.8428 1374.06 42.1603 1379.59 39.2229L1378.65 37.4571C1372.89 40.5197 1368.32 44.3972 1364.98 49.1008L1366.61 50.2592ZM1379.59 39.2193C1385.19 36.1875 1391.56 34.66 1398.74 34.66V32.66C1391.27 32.66 1384.56 34.2525 1378.64 37.4607L1379.59 39.2193ZM1398.74 34.66C1407.08 34.66 1414.58 36.7148 1421.25 40.8122L1422.3 39.1078C1415.29 34.8051 1407.43 32.66 1398.74 32.66V34.66ZM1421.26 40.8162C1428.05 44.9121 1433.38 50.7664 1437.26 58.4127L1439.05 57.5073C1435.01 49.5536 1429.43 43.4079 1422.29 39.1038L1421.26 40.8162ZM1437.27 58.4292C1441.26 65.9416 1443.28 74.7153 1443.28 84.78H1445.28C1445.28 74.4447 1443.21 65.3384 1439.04 57.4908L1437.27 58.4292ZM1443.28 84.78C1443.28 94.8439 1441.26 103.743 1437.27 111.502L1439.05 112.418C1443.21 104.337 1445.28 95.1161 1445.28 84.78H1443.28ZM1437.26 111.507C1433.38 119.156 1428.04 125.073 1421.25 129.29L1422.3 130.99C1429.43 126.567 1435.01 120.364 1439.05 112.413L1437.26 111.507ZM1421.24 129.295C1414.57 133.508 1407.08 135.62 1398.74 135.62V137.62C1407.44 137.62 1415.3 135.412 1422.31 130.985L1421.24 129.295ZM1398.74 135.62C1391.56 135.62 1385.24 134.15 1379.77 131.237L1378.83 133.003C1384.63 136.09 1391.28 137.62 1398.74 137.62V135.62ZM1379.77 131.241C1374.37 128.302 1369.98 124.611 1366.59 120.173L1365 121.387C1368.57 126.069 1373.19 129.938 1378.82 132.999L1379.77 131.241ZM1364.8 120.78V182.52H1366.8V120.78H1364.8ZM1365.8 181.52H1340.6V183.52H1365.8V181.52ZM1341.6 182.52V35.28H1339.6V182.52H1341.6ZM1340.6 36.28H1365.8V34.28H1340.6V36.28ZM1364.8 35.28V49.68H1366.8V35.28H1364.8ZM1419.54 84.78C1419.54 78.6384 1418.25 73.297 1415.62 68.7961L1413.89 69.8039C1416.31 73.943 1417.54 78.9216 1417.54 84.78H1419.54ZM1415.64 68.8245C1413.15 64.2314 1409.78 60.7271 1405.52 58.3471L1404.55 60.0929C1408.45 62.2729 1411.56 65.4886 1413.88 69.7755L1415.64 68.8245ZM1405.54 58.3534C1401.42 55.9838 1396.93 54.8 1392.08 54.8V56.8C1396.59 56.8 1400.73 57.8962 1404.54 60.0866L1405.54 58.3534ZM1392.08 54.8C1387.33 54.8 1382.84 56.0513 1378.61 58.5381L1379.62 60.2619C1383.56 57.9487 1387.7 56.8 1392.08 56.8V54.8ZM1378.62 58.5334C1374.49 60.9125 1371.12 64.4098 1368.53 68.9864L1370.27 69.9736C1372.71 65.6702 1375.83 62.4475 1379.62 60.2666L1378.62 58.5334ZM1368.52 69.0045C1366.02 73.6158 1364.8 79.0053 1364.8 85.14H1366.8C1366.8 79.2747 1367.97 74.2242 1370.28 69.9555L1368.52 69.0045ZM1364.8 85.14C1364.8 91.2747 1366.02 96.6642 1368.52 101.276L1370.28 100.324C1367.97 96.0558 1366.8 91.0053 1366.8 85.14H1364.8ZM1368.53 101.294C1371.12 105.867 1374.48 109.418 1378.6 111.915L1379.63 110.205C1375.84 107.902 1372.71 104.613 1370.27 100.306L1368.53 101.294ZM1378.63 111.933C1382.85 114.294 1387.34 115.48 1392.08 115.48V113.48C1387.69 113.48 1383.54 112.386 1379.6 110.187L1378.63 111.933ZM1392.08 115.48C1396.94 115.48 1401.44 114.231 1405.55 111.735L1404.52 110.025C1400.72 112.329 1396.58 113.48 1392.08 113.48V115.48ZM1405.54 111.742C1409.79 109.243 1413.16 105.685 1415.64 101.096L1413.88 100.144C1411.56 104.435 1408.44 107.717 1404.53 110.018L1405.54 111.742ZM1415.63 101.114C1418.25 96.4958 1419.54 91.0387 1419.54 84.78H1417.54C1417.54 90.7613 1416.31 95.8642 1413.89 100.126L1415.63 101.114ZM1528.11 38.88L1527.61 39.7482L1527.62 39.7521L1527.63 39.7558L1528.11 38.88ZM1541.79 53.46L1540.89 53.9072L1540.9 53.9172L1540.9 53.9271L1541.79 53.46ZM1546.83 135V136H1547.83V135H1546.83ZM1521.63 135H1520.63V136H1521.63V135ZM1515.69 61.74L1514.95 62.4158L1514.96 62.426L1515.69 61.74ZM1482.93 61.74L1482.2 61.0534L1482.2 61.054L1482.93 61.74ZM1476.99 135V136H1477.99V135H1476.99ZM1451.79 135H1450.79V136H1451.79V135ZM1451.79 1.8V0.799998H1450.79V1.8H1451.79ZM1476.99 1.8H1477.99V0.799998H1476.99V1.8ZM1476.99 47.7H1475.99V50.7L1477.79 48.3L1476.99 47.7ZM1489.95 37.62L1490.35 38.5338L1490.36 38.5301L1490.37 38.5262L1489.95 37.62ZM1507.95 34.84C1515.36 34.84 1521.9 36.4843 1527.61 39.7482L1528.6 38.0117C1522.56 34.5557 1515.66 32.84 1507.95 32.84V34.84ZM1527.63 39.7558C1533.31 42.8902 1537.74 47.5934 1540.89 53.9072L1542.68 53.0128C1539.36 46.3665 1534.66 41.3498 1528.59 38.0042L1527.63 39.7558ZM1540.9 53.9271C1544.17 60.1114 1545.83 67.6227 1545.83 76.5H1547.83C1547.83 67.3773 1546.13 59.5285 1542.67 52.9929L1540.9 53.9271ZM1545.83 76.5V135H1547.83V76.5H1545.83ZM1546.83 134H1521.63V136H1546.83V134ZM1522.63 135V79.92H1520.63V135H1522.63ZM1522.63 79.92C1522.63 71.8411 1520.61 65.4994 1516.42 61.054L1514.96 62.426C1518.69 66.3806 1520.63 72.1589 1520.63 79.92H1522.63ZM1516.43 61.0643C1512.24 56.5026 1506.56 54.26 1499.49 54.26V56.26C1506.1 56.26 1511.21 58.3374 1514.95 62.4157L1516.43 61.0643ZM1499.49 54.26C1492.3 54.26 1486.5 56.4989 1482.2 61.0534L1483.66 62.4266C1487.51 58.3411 1492.75 56.26 1499.49 56.26V54.26ZM1482.2 61.054C1478.01 65.4994 1475.99 71.8411 1475.99 79.92H1477.99C1477.99 72.1589 1479.93 66.3806 1483.66 62.426L1482.2 61.054ZM1475.99 79.92V135H1477.99V79.92H1475.99ZM1476.99 134H1451.79V136H1476.99V134ZM1452.79 135V1.8H1450.79V135H1452.79ZM1451.79 2.8H1476.99V0.799998H1451.79V2.8ZM1475.99 1.8V47.7H1477.99V1.8H1475.99ZM1477.79 48.3C1480.92 44.1291 1485.1 40.8712 1490.35 38.5338L1489.54 36.7062C1484 39.1688 1479.54 42.6309 1476.19 47.1L1477.79 48.3ZM1490.37 38.5262C1495.63 36.0743 1501.48 34.84 1507.95 34.84V32.84C1501.22 32.84 1495.07 34.1256 1489.53 36.7138L1490.37 38.5262ZM1655.39 35.28L1656.31 35.6675L1656.9 34.28H1655.39V35.28ZM1593.65 182.16V183.16H1594.32L1594.57 182.548L1593.65 182.16ZM1566.83 182.16L1565.92 181.761L1565.31 183.16H1566.83V182.16ZM1588.43 132.48L1589.35 132.879L1589.52 132.491L1589.36 132.1L1588.43 132.48ZM1548.47 35.28V34.28H1546.98L1547.55 35.6602L1548.47 35.28ZM1576.73 35.28L1577.67 34.9334L1577.43 34.28H1576.73V35.28ZM1602.47 104.94L1601.53 105.287L1602.47 107.808L1603.41 105.291L1602.47 104.94ZM1628.57 35.28V34.28H1627.88L1627.64 34.9291L1628.57 35.28ZM1654.47 34.8925L1592.73 181.773L1594.57 182.548L1656.31 35.6675L1654.47 34.8925ZM1593.65 181.16H1566.83V183.16H1593.65V181.16ZM1567.75 182.559L1589.35 132.879L1587.52 132.081L1565.92 181.761L1567.75 182.559ZM1589.36 132.1L1549.4 34.8998L1547.55 35.6602L1587.51 132.86L1589.36 132.1ZM1548.47 36.28H1576.73V34.28H1548.47V36.28ZM1575.79 35.6266L1601.53 105.287L1603.41 104.593L1577.67 34.9334L1575.79 35.6266ZM1603.41 105.291L1629.51 35.6309L1627.64 34.9291L1601.54 104.589L1603.41 105.291ZM1628.57 36.28H1655.39V34.28H1628.57V36.28Z" fill="black"/>
</svg>
