<svg width="408" height="148" viewBox="0 0 408 148" fill="none" xmlns="http://www.w3.org/2000/svg">
<path d="M4.832 16.552L3.9644 16.0547L3.96244 16.0582L4.832 16.552ZM13.976 7.408L14.4663 8.27958L14.4698 8.27756L13.976 7.408ZM50.624 20.368V21.368H52.0073L51.5736 20.0545L50.624 20.368ZM39.032 20.368L38.1305 20.8007L38.4028 21.368H39.032V20.368ZM34.136 14.968L33.6334 15.8325L33.642 15.8375L34.136 14.968ZM19.088 15.256L19.5998 16.1151L19.6051 16.1119L19.088 15.256ZM13.76 21.016L12.8725 20.5552L12.869 20.562L12.8656 20.5688L13.76 21.016ZM13.76 38.584L12.8622 39.0244L12.8672 39.0347L12.8725 39.0448L13.76 38.584ZM19.088 44.416L18.5629 45.267L18.5734 45.2735L18.5841 45.2798L19.088 44.416ZM34.136 44.632L34.6386 45.4965L34.6447 45.4929L34.136 44.632ZM39.032 39.16V38.16H38.4028L38.1305 38.7273L39.032 39.16ZM50.624 39.16L51.5744 39.4709L52.0032 38.16H50.624V39.16ZM41.768 51.184L42.3293 52.0116L42.3313 52.0102L41.768 51.184ZM13.976 52.192L13.4775 53.0589L13.4839 53.0626L13.4904 53.0662L13.976 52.192ZM4.832 43.048L3.9624 43.5418L3.96706 43.5499L4.832 43.048ZM2.52 29.8C2.52 25.0104 3.58786 20.7678 5.70156 17.0458L3.96244 16.0582C1.66014 20.1122 0.52 24.7016 0.52 29.8H2.52ZM5.69959 17.0493C7.86868 13.2649 10.7883 10.3484 14.4663 8.27957L13.4857 6.53642C9.48368 8.78758 6.30733 11.9671 3.96441 16.0547L5.69959 17.0493ZM14.4698 8.27756C18.1963 6.16132 22.368 5.096 27.008 5.096V3.096C22.048 3.096 17.5317 4.23868 13.4822 6.53844L14.4698 8.27756ZM27.008 5.096C32.4437 5.096 37.163 6.48656 41.2047 9.24223L42.3313 7.58977C37.925 4.58544 32.8043 3.096 27.008 3.096V5.096ZM41.2047 9.24223C45.2379 11.9922 48.0598 15.7915 49.6744 20.6815L51.5736 20.0545C49.8282 14.7685 46.7461 10.5998 42.3313 7.58977L41.2047 9.24223ZM50.624 19.368H39.032V21.368H50.624V19.368ZM39.9335 19.9353C38.7022 17.37 36.9362 15.4089 34.63 14.0985L33.642 15.8375C35.5598 16.9271 37.0578 18.566 38.1305 20.8007L39.9335 19.9353ZM34.6386 14.1035C32.4008 12.8025 29.8224 12.168 26.936 12.168V14.168C29.5216 14.168 31.7432 14.7335 33.6334 15.8325L34.6386 14.1035ZM26.936 12.168C23.8423 12.168 21.0445 12.9056 18.5709 14.4001L19.6051 16.1119C21.7395 14.8224 24.1737 14.168 26.936 14.168V12.168ZM18.5762 14.3969C16.1489 15.8429 14.2479 17.9063 12.8725 20.5552L14.6475 21.4768C15.8641 19.1337 17.5151 17.3571 19.5998 16.1151L18.5762 14.3969ZM12.8656 20.5688C11.5354 23.2292 10.888 26.3161 10.888 29.8H12.888C12.888 26.5639 13.4886 23.7948 14.6544 21.4632L12.8656 20.5688ZM10.888 29.8C10.888 33.239 11.5365 36.322 12.8622 39.0244L14.6578 38.1436C13.4875 35.758 12.888 32.985 12.888 29.8H10.888ZM12.8725 39.0448C14.2465 41.6911 16.1436 43.7743 18.5629 45.267L19.6131 43.565C17.5204 42.2737 15.8655 40.4689 14.6475 38.1232L12.8725 39.0448ZM18.5841 45.2798C21.0557 46.7215 23.8487 47.432 26.936 47.432V45.432C24.1673 45.432 21.7283 44.7984 19.5919 43.5522L18.5841 45.2798ZM26.936 47.432C29.8224 47.432 32.4008 46.7975 34.6386 45.4965L33.6334 43.7675C31.7432 44.8665 29.5216 45.432 26.936 45.432V47.432ZM34.6447 45.4929C36.9417 44.1356 38.7035 42.1553 39.9335 39.5927L38.1305 38.7273C37.0565 40.9647 35.5543 42.6324 33.6273 43.7711L34.6447 45.4929ZM39.032 40.16H50.624V38.16H39.032V40.16ZM49.6736 38.8491C48.058 43.7881 45.2355 47.6095 41.2047 50.3578L42.3313 52.0102C46.7485 48.9985 49.83 44.8039 51.5744 39.4709L49.6736 38.8491ZM41.2067 50.3564C37.2162 53.0626 32.4973 54.432 27.008 54.432V56.432C32.8467 56.432 37.9678 54.9694 42.3293 52.0116L41.2067 50.3564ZM27.008 54.432C22.3641 54.432 18.1894 53.3888 14.4616 51.3178L13.4904 53.0662C17.5386 55.3152 22.0519 56.432 27.008 56.432V54.432ZM14.4745 51.3251C10.7889 49.2059 7.86628 46.2848 5.69694 42.5461L3.96706 43.5499C6.30972 47.5872 9.48313 50.7621 13.4775 53.0589L14.4745 51.3251ZM5.70156 42.5542C3.58786 38.8322 2.52 34.5896 2.52 29.8H0.52C0.52 34.8984 1.66014 39.4878 3.96244 43.5418L5.70156 42.5542ZM62.2576 53.128L61.7673 53.9996L61.7778 54.0054L62.2576 53.128ZM54.9856 45.856L54.1108 46.3405L54.1166 46.3507L54.9856 45.856ZM55.0576 24.256L54.1943 23.7513L54.1886 23.7613L55.0576 24.256ZM62.4736 17.056L62.9478 17.9365L62.9581 17.9308L62.4736 17.056ZM83.3536 17.056L82.8691 17.9309L82.8795 17.9365L83.3536 17.056ZM90.6976 24.256L89.8285 24.7507L89.8343 24.7607L90.6976 24.256ZM90.6256 45.856L89.7681 45.3415L89.7623 45.3513L90.6256 45.856ZM83.1376 53.128L83.6117 54.0085L83.6165 54.0059L83.1376 53.128ZM77.7376 45.568L78.2165 46.4459L78.2254 46.4409L77.7376 45.568ZM81.6256 41.536L82.5053 42.0115L81.6256 41.536ZM80.0416 26.344L79.3179 27.0341L79.3261 27.0427L79.3345 27.0511L80.0416 26.344ZM65.4976 26.344L64.7739 25.6539L64.7735 25.6543L65.4976 26.344ZM65.4256 43.84L64.6849 44.5118L64.6931 44.5208L64.7015 44.5297L65.4256 43.84ZM72.6256 54.648C68.9367 54.648 65.6484 53.8426 62.7374 52.2506L61.7778 54.0054C65.0108 55.7734 68.6345 56.648 72.6256 56.648V54.648ZM62.7479 52.2564C59.8371 50.6191 57.5427 48.3267 55.8547 45.3613L54.1166 46.3507C55.9806 49.6253 58.5342 52.1809 61.7674 53.9996L62.7479 52.2564ZM55.8604 45.3715C54.2257 42.42 53.3936 38.9912 53.3936 35.056H51.3936C51.3936 39.2808 52.2895 43.052 54.1108 46.3405L55.8604 45.3715ZM53.3936 35.056C53.3936 31.1254 54.2477 27.7003 55.9267 24.7507L54.1886 23.7613C52.3156 27.0517 51.3936 30.8266 51.3936 35.056H53.3936ZM55.9209 24.7607C57.6541 21.796 59.9929 19.5275 62.9477 17.9365L61.9995 16.1755C58.7144 17.9445 56.1091 20.476 54.1943 23.7513L55.9209 24.7607ZM62.9581 17.9308C65.9186 16.2912 69.2297 15.464 72.9136 15.464V13.464C68.9175 13.464 65.2687 14.3648 61.9891 16.1812L62.9581 17.9308ZM72.9136 15.464C76.5975 15.464 79.9087 16.2912 82.8691 17.9308L83.8381 16.1812C80.5586 14.3648 76.9097 13.464 72.9136 13.464V15.464ZM82.8795 17.9365C85.832 19.5263 88.1441 21.7915 89.8286 24.7507L91.5667 23.7613C89.6991 20.4805 87.1153 17.9457 83.8277 16.1755L82.8795 17.9365ZM89.8343 24.7607C91.5577 27.7086 92.4336 31.13 92.4336 35.056H94.4336C94.4336 30.822 93.4855 27.0434 91.5609 23.7513L89.8343 24.7607ZM92.4336 35.056C92.4336 38.9773 91.5359 42.3952 89.7681 45.3415L91.4831 46.3705C93.4593 43.0768 94.4336 39.2947 94.4336 35.056H92.4336ZM89.7623 45.3513C88.03 48.3145 85.6668 50.6094 82.6588 52.2501L83.6165 54.0059C86.9444 52.1906 89.5732 49.6375 91.4889 46.3607L89.7623 45.3513ZM82.6635 52.2475C79.7031 53.8416 76.3646 54.648 72.6256 54.648V56.648C76.6627 56.648 80.3322 55.7744 83.6117 54.0085L82.6635 52.2475ZM72.6256 47.864C74.615 47.864 76.4839 47.3909 78.2165 46.4459L77.2588 44.6901C75.8233 45.4731 74.2842 45.864 72.6256 45.864V47.864ZM78.2254 46.4409C80.0364 45.4289 81.4626 43.9406 82.5053 42.0115L80.7459 41.0605C79.8687 42.6834 78.7028 43.8831 77.2498 44.6951L78.2254 46.4409ZM82.5053 42.0115C83.5622 40.0563 84.0656 37.7237 84.0656 35.056H82.0656C82.0656 37.4763 81.609 39.4637 80.7459 41.0605L82.5053 42.0115ZM84.0656 35.056C84.0656 31.0893 83.0078 27.896 80.7487 25.6369L79.3345 27.0511C81.1074 28.824 82.0656 31.4387 82.0656 35.056H84.0656ZM80.7654 25.6539C78.6065 23.3898 75.92 22.248 72.7696 22.248V24.248C75.3792 24.248 77.5407 25.1702 79.3179 27.0341L80.7654 25.6539ZM72.7696 22.248C69.6192 22.248 66.9327 23.3898 64.7739 25.6539L66.2214 27.0341C67.9985 25.1702 70.16 24.248 72.7696 24.248V22.248ZM64.7735 25.6543C62.6204 27.9151 61.6176 31.1018 61.6176 35.056H63.6176C63.6176 31.4262 64.5348 28.8049 66.2218 27.0337L64.7735 25.6543ZM61.6176 35.056C61.6176 39.0058 62.5938 42.2063 64.6849 44.5118L66.1663 43.1682C64.5134 41.3457 63.6176 38.6902 63.6176 35.056H61.6176ZM64.7015 44.5297C66.8174 46.7514 69.4826 47.864 72.6256 47.864V45.864C70.0087 45.864 67.8738 44.9606 66.1498 43.1503L64.7015 44.5297ZM106.588 1.72H107.588V0.719999H106.588V1.72ZM106.588 55V56H107.588V55H106.588ZM96.5077 55H95.5077V56H96.5077V55ZM96.5077 1.72V0.719999H95.5077V1.72H96.5077ZM105.588 1.72V55H107.588V1.72H105.588ZM106.588 54H96.5077V56H106.588V54ZM97.5077 55V1.72H95.5077V55H97.5077ZM96.5077 2.72H106.588V0.719999H96.5077V2.72ZM119.571 53.128L119.08 53.9996L119.091 54.0054L119.571 53.128ZM112.299 45.856L111.424 46.3405L111.43 46.3507L112.299 45.856ZM112.371 24.256L111.507 23.7513L111.502 23.7613L112.371 24.256ZM119.787 17.056L120.261 17.9365L120.271 17.9308L119.787 17.056ZM140.667 17.056L140.182 17.9309L140.193 17.9365L140.667 17.056ZM148.011 24.256L147.142 24.7507L147.147 24.7607L148.011 24.256ZM147.939 45.856L147.081 45.3415L147.075 45.3513L147.939 45.856ZM140.451 53.128L140.925 54.0085L140.93 54.0059L140.451 53.128ZM135.051 45.568L135.53 46.4459L135.539 46.4409L135.051 45.568ZM138.939 41.536L139.818 42.0115L138.939 41.536ZM137.355 26.344L136.631 27.0341L136.639 27.0427L136.648 27.0511L137.355 26.344ZM122.811 26.344L122.087 25.6539L122.087 25.6543L122.811 26.344ZM122.739 43.84L121.998 44.5118L122.006 44.5208L122.015 44.5297L122.739 43.84ZM129.939 54.648C126.25 54.648 122.962 53.8426 120.051 52.2506L119.091 54.0054C122.324 55.7734 125.948 56.648 129.939 56.648V54.648ZM120.061 52.2564C117.15 50.6191 114.856 48.3267 113.168 45.3613L111.43 46.3507C113.294 49.6253 115.847 52.1809 119.08 53.9996L120.061 52.2564ZM113.174 45.3715C111.539 42.42 110.707 38.9912 110.707 35.056H108.707C108.707 39.2808 109.603 43.052 111.424 46.3405L113.174 45.3715ZM110.707 35.056C110.707 31.1254 111.561 27.7003 113.24 24.7507L111.502 23.7613C109.629 27.0517 108.707 30.8266 108.707 35.056H110.707ZM113.234 24.7607C114.967 21.796 117.306 19.5275 120.261 17.9365L119.313 16.1755C116.027 17.9445 113.422 20.476 111.507 23.7513L113.234 24.7607ZM120.271 17.9308C123.232 16.2912 126.543 15.464 130.227 15.464V13.464C126.231 13.464 122.582 14.3648 119.302 16.1812L120.271 17.9308ZM130.227 15.464C133.911 15.464 137.222 16.2912 140.182 17.9308L141.151 16.1812C137.872 14.3648 134.223 13.464 130.227 13.464V15.464ZM140.193 17.9365C143.145 19.5263 145.457 21.7915 147.142 24.7507L148.88 23.7613C147.012 20.4805 144.428 17.9457 141.141 16.1755L140.193 17.9365ZM147.147 24.7607C148.871 27.7086 149.747 31.13 149.747 35.056H151.747C151.747 30.822 150.799 27.0434 148.874 23.7513L147.147 24.7607ZM149.747 35.056C149.747 38.9773 148.849 42.3952 147.081 45.3415L148.796 46.3705C150.772 43.0768 151.747 39.2947 151.747 35.056H149.747ZM147.075 45.3513C145.343 48.3145 142.98 50.6094 139.972 52.2501L140.93 54.0059C144.258 52.1906 146.886 49.6375 148.802 46.3607L147.075 45.3513ZM139.977 52.2475C137.016 53.8416 133.678 54.648 129.939 54.648V56.648C133.976 56.648 137.645 55.7744 140.925 54.0085L139.977 52.2475ZM129.939 47.864C131.928 47.864 133.797 47.3909 135.53 46.4459L134.572 44.6901C133.136 45.4731 131.597 45.864 129.939 45.864V47.864ZM135.539 46.4409C137.35 45.4289 138.776 43.9406 139.818 42.0115L138.059 41.0605C137.182 42.6834 136.016 43.8831 134.563 44.6951L135.539 46.4409ZM139.818 42.0115C140.875 40.0563 141.379 37.7237 141.379 35.056H139.379C139.379 37.4763 138.922 39.4637 138.059 41.0605L139.818 42.0115ZM141.379 35.056C141.379 31.0893 140.321 27.896 138.062 25.6369L136.648 27.0511C138.421 28.824 139.379 31.4387 139.379 35.056H141.379ZM138.078 25.6539C135.92 23.3898 133.233 22.248 130.083 22.248V24.248C132.692 24.248 134.854 25.1702 136.631 27.0341L138.078 25.6539ZM130.083 22.248C126.932 22.248 124.246 23.3898 122.087 25.6539L123.534 27.0341C125.312 25.1702 127.473 24.248 130.083 24.248V22.248ZM122.087 25.6543C119.934 27.9151 118.931 31.1018 118.931 35.056H120.931C120.931 31.4262 121.848 28.8049 123.535 27.0337L122.087 25.6543ZM118.931 35.056C118.931 39.0058 119.907 42.2063 121.998 44.5118L123.479 43.1682C121.827 41.3457 120.931 38.6902 120.931 35.056H118.931ZM122.015 44.5297C124.131 46.7514 126.796 47.864 129.939 47.864V45.864C127.322 45.864 125.187 44.9606 123.463 43.1503L122.015 44.5297ZM163.901 21.304H162.901V24.8456L164.753 21.827L163.901 21.304ZM168.941 16.336L168.447 15.4665L168.438 15.4715L168.941 16.336ZM176.141 14.536H177.141V13.536H176.141V14.536ZM176.141 25.12V26.12H177.141V25.12H176.141ZM166.277 27.352L165.603 26.613L165.598 26.6181L165.592 26.6231L166.277 27.352ZM163.901 55V56H164.901V55H163.901ZM153.821 55H152.821V56H153.821V55ZM153.821 15.112V14.112H152.821V15.112H153.821ZM163.901 15.112H164.901V14.112H163.901V15.112ZM164.753 21.827C165.966 19.8505 167.528 18.3141 169.443 17.2005L168.438 15.4715C166.226 16.7579 164.428 18.5335 163.048 20.781L164.753 21.827ZM169.435 17.2055C171.381 16.0999 173.607 15.536 176.141 15.536V13.536C173.299 13.536 170.725 14.1721 168.447 15.4665L169.435 17.2055ZM175.141 14.536V25.12H177.141V14.536H175.141ZM176.141 24.12H173.477V26.12H176.141V24.12ZM173.477 24.12C170.167 24.12 167.486 24.8966 165.603 26.613L166.951 28.091C168.332 26.8314 170.451 26.12 173.477 26.12V24.12ZM165.592 26.6231C163.704 28.3968 162.901 31.3389 162.901 35.128H164.901C164.901 31.5251 165.682 29.2832 166.961 28.0808L165.592 26.6231ZM162.901 35.128V55H164.901V35.128H162.901ZM163.901 54H153.821V56H163.901V54ZM154.821 55V15.112H152.821V55H154.821ZM153.821 16.112H163.901V14.112H153.821V16.112ZM162.901 15.112V21.304H164.901V15.112H162.901ZM185.09 53.92L184.67 54.8275L184.677 54.8307L184.684 54.8338L185.09 53.92ZM178.898 49.096L178.094 49.6899L178.098 49.696L178.103 49.702L178.898 49.096ZM176.45 42.4V41.4H175.39L175.452 42.4587L176.45 42.4ZM186.602 42.4L187.594 42.276L187.485 41.4H186.602V42.4ZM188.834 46.216L188.22 47.0054L188.227 47.0107L188.234 47.016L188.834 46.216ZM198.266 46.576L197.695 45.7551L197.686 45.7611L197.678 45.7673L198.266 46.576ZM197.906 40.744L197.446 41.6318L197.465 41.6418L197.485 41.651L197.906 40.744ZM191.642 38.584L191.9 37.6178L191.889 37.6148L191.877 37.612L191.642 38.584ZM184.298 36.352L183.919 37.2772L183.927 37.2805L184.298 36.352ZM179.402 32.824L178.64 33.471L178.645 33.4776L178.651 33.4841L179.402 32.824ZM179.258 20.368L178.443 19.7888L178.438 19.796L178.433 19.8033L179.258 20.368ZM184.73 16.048L184.327 15.1327L184.321 15.1357L184.73 16.048ZM204.53 18.064L203.884 18.8269L203.891 18.8333L204.53 18.064ZM209.21 27.64V28.64H210.284L210.208 27.5688L209.21 27.64ZM199.562 27.64L198.566 27.7305L198.649 28.64H199.562V27.64ZM197.546 23.896L196.906 24.6642L196.923 24.6786L196.941 24.6922L197.546 23.896ZM188.618 23.464L188.063 22.6319L188.054 22.6383L188.045 22.6448L188.618 23.464ZM189.194 29.368L188.722 30.2495L188.734 30.2561L188.747 30.2624L189.194 29.368ZM195.458 31.456L195.212 32.4252L195.216 32.4261L195.458 31.456ZM207.41 37.288L206.638 37.9237L206.648 37.9361L206.659 37.9481L207.41 37.288ZM209.57 43.624H210.57V43.6149L210.57 43.6058L209.57 43.624ZM207.626 49.816L206.811 49.2368L206.806 49.244L206.801 49.2513L207.626 49.816ZM202.154 54.136L202.548 55.0552L202.557 55.0513L202.154 54.136ZM193.874 54.648C190.729 54.648 187.943 54.0934 185.496 53.0062L184.684 54.8338C187.422 56.0506 190.491 56.648 193.874 56.648V54.648ZM185.51 53.0125C183.047 51.8722 181.119 50.3607 179.694 48.49L178.103 49.702C179.749 51.8633 181.949 53.5678 184.67 54.8275L185.51 53.0125ZM179.703 48.5021C178.327 46.6384 177.581 44.5915 177.448 42.3413L175.452 42.4587C175.608 45.1045 176.493 47.5216 178.094 49.6899L179.703 48.5021ZM176.45 43.4H186.602V41.4H176.45V43.4ZM185.61 42.524C185.837 44.3404 186.729 45.8455 188.22 47.0054L189.448 45.4266C188.347 44.5705 187.751 43.5316 187.594 42.276L185.61 42.524ZM188.234 47.016C189.78 48.1751 191.656 48.728 193.802 48.728V46.728C192.012 46.728 190.577 46.2729 189.434 45.416L188.234 47.016ZM193.802 48.728C195.839 48.728 197.564 48.3232 198.854 47.3847L197.678 45.7673C196.856 46.3648 195.606 46.728 193.802 46.728V48.728ZM198.837 47.3969C200.172 46.4682 200.922 45.1948 200.922 43.624H198.922C198.922 44.4532 198.568 45.1478 197.695 45.7551L198.837 47.3969ZM200.922 43.624C200.922 42.7936 200.703 42.0243 200.237 41.3585C199.777 40.7008 199.117 40.2038 198.327 39.837L197.485 41.651C198.039 41.9081 198.387 42.2032 198.599 42.5055C198.805 42.7997 198.922 43.1584 198.922 43.624H200.922ZM198.367 39.8562C196.969 39.1317 194.793 38.3893 191.9 37.6178L191.385 39.5502C194.251 40.3147 196.251 41.0123 197.446 41.6318L198.367 39.8562ZM191.877 37.612C188.928 36.8985 186.53 36.1676 184.67 35.4235L183.927 37.2805C185.907 38.0724 188.404 38.8295 191.407 39.556L191.877 37.612ZM184.678 35.4268C182.954 34.7198 181.448 33.6371 180.153 32.1639L178.651 33.4841C180.14 35.1789 181.898 36.4482 183.919 37.2772L184.678 35.4268ZM180.165 32.177C179.014 30.8214 178.386 28.938 178.386 26.416H176.386C176.386 29.27 177.102 31.6586 178.64 33.471L180.165 32.177ZM178.386 26.416C178.386 24.4097 178.949 22.5905 180.083 20.9327L178.433 19.8033C177.071 21.7935 176.386 24.0063 176.386 26.416H178.386ZM180.073 20.9472C181.251 19.2893 182.925 17.9546 185.14 16.9603L184.321 15.1357C181.831 16.2534 179.857 17.7987 178.443 19.7888L180.073 20.9472ZM185.133 16.9633C187.381 15.9743 190.046 15.464 193.154 15.464V13.464C189.83 13.464 186.88 14.0097 184.327 15.1327L185.133 16.9633ZM193.154 15.464C197.737 15.464 201.278 16.6188 203.884 18.8269L205.177 17.3011C202.118 14.7092 198.075 13.464 193.154 13.464V15.464ZM203.891 18.8333C206.492 20.9932 207.942 23.9216 208.213 27.7112L210.208 27.5688C209.902 23.2944 208.232 19.8388 205.169 17.2947L203.891 18.8333ZM209.21 26.64H199.562V28.64H209.21V26.64ZM200.558 27.5495C200.39 25.7032 199.588 24.1921 198.151 23.0998L196.941 24.6922C197.904 25.4239 198.446 26.4088 198.566 27.7305L200.558 27.5495ZM198.186 23.1278C196.805 21.9767 194.994 21.456 192.866 21.456V23.456C194.674 23.456 195.983 23.8953 196.906 24.6642L198.186 23.1278ZM192.866 21.456C190.938 21.456 189.299 21.8081 188.063 22.6319L189.173 24.296C189.953 23.7759 191.146 23.456 192.866 23.456V21.456ZM188.045 22.6448C186.81 23.5092 186.178 24.755 186.178 26.272H188.178C188.178 25.389 188.507 24.7628 189.192 24.2832L188.045 22.6448ZM186.178 26.272C186.178 27.1193 186.393 27.9065 186.844 28.5997C187.291 29.2863 187.937 29.8287 188.722 30.2495L189.666 28.4865C189.108 28.1873 188.745 27.8537 188.52 27.5083C188.3 27.1695 188.178 26.7687 188.178 26.272H186.178ZM188.747 30.2624C190.19 30.9839 192.362 31.7008 195.212 32.4252L195.705 30.4868C192.89 29.7712 190.887 29.0961 189.641 28.4736L188.747 30.2624ZM195.216 32.4261C198.068 33.1393 200.394 33.8697 202.207 34.6132L202.966 32.7628C201.034 31.9703 198.608 31.2127 195.701 30.4859L195.216 32.4261ZM202.207 34.6132C203.919 35.3157 205.394 36.4132 206.638 37.9237L208.182 36.6523C206.738 34.8988 204.997 33.5963 202.966 32.7628L202.207 34.6132ZM206.659 37.9481C207.858 39.313 208.526 41.1774 208.57 43.6422L210.57 43.6058C210.519 40.7906 209.746 38.431 208.161 36.6279L206.659 37.9481ZM208.57 43.624C208.57 45.727 207.983 47.5873 206.811 49.2368L208.441 50.3952C209.861 48.3967 210.57 46.129 210.57 43.624H208.57ZM206.801 49.2513C205.676 50.8946 204.013 52.2257 201.751 53.2207L202.557 55.0513C205.096 53.9343 207.08 52.3854 208.451 50.3807L206.801 49.2513ZM201.76 53.2169C199.559 54.1604 196.938 54.648 193.874 54.648V56.648C197.146 56.648 200.046 56.1276 202.548 55.0551L201.76 53.2169ZM265.025 55L264.322 55.7118L264.614 56H265.025V55ZM259.553 49.6L260.255 48.8882L259.586 48.2274L258.885 48.8556L259.553 49.6ZM232.697 53.992L232.275 54.8986L232.284 54.9029L232.294 54.9071L232.697 53.992ZM226.217 48.592L225.38 49.1388L225.385 49.1467L226.217 48.592ZM226.721 31.528L227.537 32.1064L226.721 31.528ZM235.001 25.12L235.409 26.0328L236.603 25.4988L235.775 24.4868L235.001 25.12ZM232.193 20.584L231.26 20.945L231.264 20.9554L232.193 20.584ZM233.129 9.64L233.964 10.1897L233.971 10.1797L233.129 9.64ZM238.241 5.248L237.817 4.34228L237.809 4.34586L238.241 5.248ZM253.865 5.392L253.394 6.27435L253.865 5.392ZM258.689 10L257.813 10.4819V10.4819L258.689 10ZM260.057 16.408V17.408H260.997L261.055 16.4691L260.057 16.408ZM250.265 16.408L249.265 16.3777L249.234 17.408H250.265V16.408ZM249.113 12.808L248.386 13.4946L248.396 13.505L248.406 13.5151L249.113 12.808ZM242.417 12.736L243.081 13.4834L243.084 13.4812L242.417 12.736ZM242.201 19.36L241.343 19.8745L241.348 19.8823L241.353 19.89L242.201 19.36ZM245.729 23.68L245.002 24.3666L245.014 24.3791L245.026 24.3911L245.729 23.68ZM258.401 36.208L257.698 36.9191L258.405 37.6182L259.108 36.9151L258.401 36.208ZM258.761 35.632L257.903 35.1175L257.884 35.1504L257.866 35.1848L258.761 35.632ZM262.865 28.792V27.792H262.299L262.007 28.2775L262.865 28.792ZM273.377 28.792L274.246 29.2866L275.097 27.792H273.377V28.792ZM268.337 37.648L267.468 37.1534L267.457 37.1723L267.447 37.1917L268.337 37.648ZM265.241 42.976L264.405 42.4268L263.955 43.1115L264.538 43.6873L265.241 42.976ZM277.409 55V56H279.844L278.112 54.2887L277.409 55ZM253.217 43.336L253.894 44.0717L254.665 43.3617L253.92 42.6248L253.217 43.336ZM240.833 31.096L241.536 30.3848L241.051 29.9055L240.428 30.1818L240.833 31.096ZM236.297 45.352L235.623 46.091L235.629 46.0964L235.635 46.1018L236.297 45.352ZM265.727 54.2882L260.255 48.8882L258.85 50.3118L264.322 55.7118L265.727 54.2882ZM258.885 48.8556C254.427 52.8541 248.982 54.864 242.489 54.864V56.864C249.435 56.864 255.367 54.6978 260.22 50.3444L258.885 48.8556ZM242.489 54.864C238.905 54.864 235.783 54.2591 233.1 53.0769L232.294 54.9071C235.275 56.2209 238.68 56.864 242.489 56.864V54.864ZM233.119 53.0854C230.483 51.8582 228.472 50.1723 227.049 48.0373L225.385 49.1467C227.033 51.6197 229.343 53.5338 232.275 54.8986L233.119 53.0854ZM227.054 48.0452C225.634 45.871 224.913 43.3527 224.913 40.456H222.913C222.913 43.7033 223.727 46.609 225.38 49.1388L227.054 48.0452ZM224.913 40.456C224.913 37.3461 225.787 34.5732 227.537 32.1064L225.905 30.9496C223.91 33.7628 222.913 36.9419 222.913 40.456H224.913ZM227.537 32.1064C229.283 29.643 231.886 27.6088 235.409 26.0328L234.592 24.2072C230.819 25.8952 227.902 28.133 225.905 30.9496L227.537 32.1064ZM235.775 24.4868C234.524 22.958 233.65 21.5333 233.121 20.2126L231.264 20.9554C231.888 22.5147 232.886 24.114 234.227 25.7532L235.775 24.4868ZM233.125 20.223C232.596 18.8562 232.329 17.3951 232.329 15.832H230.329C230.329 17.6288 230.637 19.3358 231.26 20.945L233.125 20.223ZM232.329 15.832C232.329 13.712 232.878 11.8412 233.964 10.1896L232.293 9.09038C230.98 11.0868 230.329 13.344 230.329 15.832H232.329ZM233.971 10.1797C235.06 8.47986 236.615 7.1342 238.672 6.15013L237.809 4.34586C235.451 5.47379 233.597 7.05613 232.287 9.10033L233.971 10.1797ZM238.665 6.15369C240.765 5.17072 243.231 4.664 246.089 4.664V2.664C242.994 2.664 240.229 3.21327 237.817 4.34231L238.665 6.15369ZM246.089 4.664C248.987 4.664 251.409 5.21571 253.394 6.27435L254.335 4.50965C252 3.26428 249.239 2.664 246.089 2.664V4.664ZM253.394 6.27435C255.404 7.34612 256.861 8.75142 257.813 10.4819L259.565 9.51808C258.405 7.40858 256.646 5.74188 254.335 4.50965L253.394 6.27435ZM257.813 10.4819C258.77 12.2235 259.192 14.1689 259.059 16.3469L261.055 16.4691C261.21 13.9431 260.719 11.6165 259.565 9.51808L257.813 10.4819ZM260.057 15.408H250.265V17.408H260.057V15.408ZM251.264 16.4383C251.317 14.6848 250.895 13.176 249.82 12.1009L248.406 13.5151C248.963 14.072 249.308 14.9632 249.265 16.3777L251.264 16.4383ZM249.84 12.1214C248.802 11.0229 247.417 10.512 245.801 10.512V12.512C246.969 12.512 247.791 12.8651 248.386 13.4946L249.84 12.1214ZM245.801 10.512C244.237 10.512 242.864 10.9941 241.75 11.9908L243.084 13.4812C243.794 12.8459 244.677 12.512 245.801 12.512V10.512ZM241.752 11.9886C240.657 12.9627 240.121 14.252 240.121 15.76H242.121C242.121 14.772 242.449 14.0453 243.081 13.4834L241.752 11.9886ZM240.121 15.76C240.121 17.1695 240.546 18.5452 241.343 19.8745L243.058 18.8455C242.416 17.7747 242.121 16.7505 242.121 15.76H240.121ZM241.353 19.89C242.124 21.1247 243.353 22.6205 245.002 24.3666L246.456 22.9934C244.841 21.2835 243.717 19.8993 243.049 18.83L241.353 19.89ZM245.026 24.3911L257.698 36.9191L259.104 35.4969L246.432 22.9689L245.026 24.3911ZM259.108 36.9151C259.261 36.7623 259.404 36.5809 259.511 36.3672L257.722 35.4728C257.728 35.4613 257.731 35.4585 257.727 35.464C257.723 35.4696 257.713 35.4821 257.694 35.5009L259.108 36.9151ZM259.511 36.3672C259.559 36.2712 259.607 36.1752 259.655 36.0792L257.866 35.1848C257.818 35.2808 257.77 35.3768 257.722 35.4728L259.511 36.3672ZM259.618 36.1465L263.722 29.3065L262.007 28.2775L257.903 35.1175L259.618 36.1465ZM262.865 29.792H273.377V27.792H262.865V29.792ZM272.508 28.2974L267.468 37.1534L269.206 38.1426L274.246 29.2866L272.508 28.2974ZM267.447 37.1917C266.503 39.0333 265.489 40.7781 264.405 42.4268L266.077 43.5252C267.201 41.8139 268.251 40.0067 269.227 38.1043L267.447 37.1917ZM264.538 43.6873L276.706 55.7113L278.112 54.2887L265.944 42.2647L264.538 43.6873ZM277.409 54H265.025V56H277.409V54ZM242.777 48.512C246.976 48.512 250.695 47.0174 253.894 44.0717L252.54 42.6003C249.691 45.2226 246.45 46.512 242.777 46.512V48.512ZM253.92 42.6248L241.536 30.3848L240.13 31.8072L252.514 44.0472L253.92 42.6248ZM240.428 30.1818C235.558 32.3405 232.849 35.5526 232.849 39.88H234.849C234.849 36.6234 236.796 33.9795 241.238 32.0102L240.428 30.1818ZM232.849 39.88C232.849 42.3283 233.789 44.4183 235.623 46.091L236.971 44.613C235.541 43.3097 234.849 41.7517 234.849 39.88H232.849ZM235.635 46.1018C237.49 47.7385 239.905 48.512 242.777 48.512V46.512C240.273 46.512 238.367 45.8455 236.958 44.6022L235.635 46.1018ZM38.168 76.744H39.168V75.744H38.168V76.744ZM38.168 84.88V85.88H39.168V84.88H38.168ZM24.776 84.88V83.88H23.776V84.88H24.776ZM24.776 127V128H25.776V127H24.776ZM14.696 127H13.696V128H14.696V127ZM14.696 84.88H15.696V83.88H14.696V84.88ZM1.304 84.88H0.304V85.88H1.304V84.88ZM1.304 76.744V75.744H0.304V76.744H1.304ZM37.168 76.744V84.88H39.168V76.744H37.168ZM38.168 83.88H24.776V85.88H38.168V83.88ZM23.776 84.88V127H25.776V84.88H23.776ZM24.776 126H14.696V128H24.776V126ZM15.696 127V84.88H13.696V127H15.696ZM14.696 83.88H1.304V85.88H14.696V83.88ZM2.304 84.88V76.744H0.304V84.88H2.304ZM1.304 77.744H38.168V75.744H1.304V77.744ZM79.3627 87.112L80.2846 87.4995L80.8678 86.112H79.3627V87.112ZM54.6667 145.864V146.864H55.3311L55.5886 146.252L54.6667 145.864ZM43.9387 145.864L43.0216 145.465L42.4135 146.864H43.9387V145.864ZM52.5787 125.992L53.4958 126.391L53.6644 126.003L53.5036 125.612L52.5787 125.992ZM36.5947 87.112V86.112H35.1024L35.6698 87.4922L36.5947 87.112ZM47.8987 87.112L48.8367 86.7654L48.5953 86.112H47.8987V87.112ZM58.1947 114.976L57.2567 115.323L58.1882 117.844L59.1311 115.327L58.1947 114.976ZM68.6347 87.112V86.112H67.9415L67.6983 86.7611L68.6347 87.112ZM78.4408 86.7245L53.7448 145.477L55.5886 146.252L80.2846 87.4995L78.4408 86.7245ZM54.6667 144.864H43.9387V146.864H54.6667V144.864ZM44.8558 146.263L53.4958 126.391L51.6616 125.593L43.0216 145.465L44.8558 146.263ZM53.5036 125.612L37.5196 86.7318L35.6698 87.4922L51.6538 126.372L53.5036 125.612ZM36.5947 88.112H47.8987V86.112H36.5947V88.112ZM46.9607 87.4586L57.2567 115.323L59.1327 114.629L48.8367 86.7654L46.9607 87.4586ZM59.1311 115.327L69.5711 87.4629L67.6983 86.7611L57.2583 114.625L59.1311 115.327ZM68.6347 88.112H79.3627V86.112H68.6347V88.112ZM90.5564 92.872H89.5564V96.0059L91.3716 93.4512L90.5564 92.872ZM95.8844 88.336L96.3541 89.2189L96.3607 89.2153L95.8844 88.336ZM112.948 88.984L112.425 89.8362L112.432 89.8402L112.948 88.984ZM119.5 96.184L118.609 96.6367L118.613 96.645L118.617 96.6532L119.5 96.184ZM119.5 117.784L118.611 117.326L118.609 117.331L119.5 117.784ZM112.948 125.056L112.421 124.206L112.414 124.211L112.948 125.056ZM95.9564 125.848L95.4789 126.727L95.4868 126.731L95.9564 125.848ZM90.5564 121.312L91.3514 120.705L89.5564 118.353V121.312H90.5564ZM90.5564 146.008V147.008H91.5564V146.008H90.5564ZM80.4764 146.008H79.4764V147.008H80.4764V146.008ZM80.4764 87.112V86.112H79.4764V87.112H80.4764ZM90.5564 87.112H91.5564V86.112H90.5564V87.112ZM110.14 100.72L109.261 101.196L109.268 101.21L109.277 101.224L110.14 100.72ZM106.252 96.688L105.753 97.5547L105.765 97.5609L106.252 96.688ZM95.8844 96.76L96.3834 97.6267L96.3915 97.6219L95.8844 96.76ZM91.9964 100.792L91.1268 100.298L91.1217 100.307L91.1167 100.316L91.9964 100.792ZM91.9964 113.32L91.1167 113.796L91.1217 113.805L91.1268 113.814L91.9964 113.32ZM95.8844 117.424L95.3661 118.279L95.3812 118.288L95.3966 118.297L95.8844 117.424ZM106.252 117.352L105.745 116.49L105.734 116.497L106.252 117.352ZM110.14 113.248L109.271 112.754L109.266 112.763L109.261 112.772L110.14 113.248ZM91.3716 93.4512C92.5656 91.7708 94.2157 90.3563 96.354 89.2189L95.4148 87.4531C93.0412 88.7157 91.1393 90.3252 89.7413 92.2928L91.3716 93.4512ZM96.3607 89.2153C98.5019 88.0555 100.951 87.464 103.732 87.464V85.464C100.658 85.464 97.8749 86.1205 95.4082 87.4567L96.3607 89.2153ZM103.732 87.464C106.968 87.464 109.856 88.2589 112.425 89.8362L113.472 88.1318C110.568 86.3492 107.313 85.464 103.732 85.464V87.464ZM112.432 89.8402C115.043 91.4161 117.103 93.6704 118.609 96.6367L120.392 95.7313C118.73 92.4576 116.422 89.9119 113.465 88.1278L112.432 89.8402ZM118.617 96.6532C120.16 99.5576 120.948 102.967 120.948 106.912H122.948C122.948 102.697 122.105 98.9544 120.384 95.7148L118.617 96.6532ZM120.948 106.912C120.948 110.856 120.161 114.319 118.611 117.326L120.389 118.242C122.104 114.913 122.948 111.128 122.948 106.912H120.948ZM118.609 117.331C117.102 120.3 115.039 122.581 112.421 124.206L113.476 125.906C116.426 124.075 118.731 121.508 120.392 118.237L118.609 117.331ZM112.414 124.211C109.847 125.832 106.962 126.648 103.732 126.648V128.648C107.319 128.648 110.578 127.736 113.482 125.901L112.414 124.211ZM103.732 126.648C100.944 126.648 98.5176 126.078 96.426 124.965L95.4868 126.731C97.9073 128.018 100.665 128.648 103.732 128.648V126.648ZM96.434 124.969C94.3378 123.83 92.6501 122.407 91.3514 120.705L89.7615 121.919C91.2468 123.865 93.159 125.466 95.4789 126.727L96.434 124.969ZM89.5564 121.312V146.008H91.5564V121.312H89.5564ZM90.5564 145.008H80.4764V147.008H90.5564V145.008ZM81.4764 146.008V87.112H79.4764V146.008H81.4764ZM80.4764 88.112H90.5564V86.112H80.4764V88.112ZM89.5564 87.112V92.872H91.5564V87.112H89.5564ZM112.652 106.912C112.652 104.37 112.118 102.125 111.004 100.216L109.277 101.224C110.179 102.771 110.652 104.654 110.652 106.912H112.652ZM111.02 100.244C109.977 98.3154 108.551 96.8271 106.74 95.8151L105.765 97.5609C107.218 98.3729 108.383 99.5726 109.261 101.196L111.02 100.244ZM106.751 95.8214C105.012 94.8198 103.111 94.32 101.068 94.32V96.32C102.77 96.32 104.325 96.7322 105.753 97.5546L106.751 95.8214ZM101.068 94.32C99.0592 94.32 97.157 94.8513 95.3774 95.8981L96.3915 97.6219C97.8759 96.7487 99.4297 96.32 101.068 96.32V94.32ZM95.3855 95.8934C93.6293 96.9045 92.2122 98.3858 91.1268 100.298L92.8661 101.286C93.7966 99.6461 94.9716 98.4395 96.3834 97.6266L95.3855 95.8934ZM91.1167 100.316C90.0641 102.264 89.5564 104.521 89.5564 107.056H91.5564C91.5564 104.791 92.0088 102.872 92.8761 101.268L91.1167 100.316ZM89.5564 107.056C89.5564 109.591 90.0641 111.848 91.1167 113.796L92.8761 112.844C92.0088 111.24 91.5564 109.321 91.5564 107.056H89.5564ZM91.1268 113.814C92.2102 115.723 93.6214 117.222 95.3661 118.279L96.4027 116.569C94.9794 115.706 93.7987 114.469 92.8661 112.826L91.1268 113.814ZM95.3966 118.297C97.1738 119.29 99.0693 119.792 101.068 119.792V117.792C99.4196 117.792 97.8591 117.382 96.3723 116.551L95.3966 118.297ZM101.068 119.792C103.121 119.792 105.029 119.263 106.771 118.207L105.734 116.497C104.308 117.361 102.76 117.792 101.068 117.792V119.792ZM106.759 118.214C108.559 117.155 109.979 115.649 111.02 113.724L109.261 112.772C108.381 114.399 107.21 115.629 105.745 116.49L106.759 118.214ZM111.01 113.742C112.119 111.788 112.652 109.499 112.652 106.912H110.652C110.652 109.221 110.178 111.156 109.271 112.754L111.01 113.742ZM132.297 125.128L131.807 126L131.818 126.005L132.297 125.128ZM125.025 117.856L124.15 118.341L124.156 118.351L125.025 117.856ZM125.097 96.256L124.234 95.7513L124.228 95.7613L125.097 96.256ZM132.513 89.056L132.987 89.9365L132.998 89.9308L132.513 89.056ZM153.393 89.056L152.909 89.9309L152.919 89.9365L153.393 89.056ZM160.737 96.256L159.868 96.7507L159.874 96.7607L160.737 96.256ZM160.665 117.856L159.808 117.341L159.802 117.351L160.665 117.856ZM153.177 125.128L153.651 126.008L153.656 126.006L153.177 125.128ZM147.777 117.568L148.256 118.446L148.265 118.441L147.777 117.568ZM151.665 113.536L152.545 114.012V114.012L151.665 113.536ZM150.081 98.344L149.358 99.0341L149.366 99.0427L149.374 99.0511L150.081 98.344ZM135.537 98.344L134.814 97.6539L134.813 97.6543L135.537 98.344ZM135.465 115.84L134.725 116.512L134.733 116.521L134.741 116.53L135.465 115.84ZM142.665 126.648C138.976 126.648 135.688 125.843 132.777 124.251L131.818 126.005C135.051 127.773 138.674 128.648 142.665 128.648V126.648ZM132.788 124.256C129.877 122.619 127.582 120.327 125.894 117.361L124.156 118.351C126.02 121.625 128.574 124.181 131.807 126L132.788 124.256ZM125.9 117.371C124.265 114.42 123.433 110.991 123.433 107.056H121.433C121.433 111.281 122.329 115.052 124.151 118.34L125.9 117.371ZM123.433 107.056C123.433 103.125 124.287 99.7003 125.966 96.7507L124.228 95.7613C122.355 99.0517 121.433 102.827 121.433 107.056H123.433ZM125.961 96.7607C127.694 93.796 130.033 91.5275 132.987 89.9365L132.039 88.1755C128.754 89.9445 126.149 92.476 124.234 95.7513L125.961 96.7607ZM132.998 89.9308C135.958 88.2912 139.269 87.464 142.953 87.464V85.464C138.957 85.464 135.308 86.3648 132.029 88.1812L132.998 89.9308ZM142.953 87.464C146.637 87.464 149.948 88.2912 152.909 89.9308L153.878 88.1812C150.598 86.3648 146.949 85.464 142.953 85.464V87.464ZM152.919 89.9365C155.872 91.5263 158.184 93.7915 159.868 96.7507L161.606 95.7613C159.739 92.4805 157.155 89.9457 153.867 88.1755L152.919 89.9365ZM159.874 96.7607C161.597 99.7086 162.473 103.13 162.473 107.056H164.473C164.473 102.822 163.525 99.0434 161.601 95.7513L159.874 96.7607ZM162.473 107.056C162.473 110.977 161.576 114.395 159.808 117.342L161.523 118.37C163.499 115.077 164.473 111.295 164.473 107.056H162.473ZM159.802 117.351C158.07 120.314 155.706 122.609 152.698 124.25L153.656 126.006C156.984 124.191 159.613 121.637 161.529 118.361L159.802 117.351ZM152.703 124.248C149.743 125.842 146.404 126.648 142.665 126.648V128.648C146.702 128.648 150.372 127.774 153.651 126.008L152.703 124.248ZM142.665 119.864C144.655 119.864 146.524 119.391 148.256 118.446L147.298 116.69C145.863 117.473 144.324 117.864 142.665 117.864V119.864ZM148.265 118.441C150.076 117.429 151.502 115.941 152.545 114.012L150.786 113.06C149.908 114.683 148.743 115.883 147.289 116.695L148.265 118.441ZM152.545 114.012C153.602 112.056 154.105 109.724 154.105 107.056H152.105C152.105 109.476 151.649 111.464 150.786 113.06L152.545 114.012ZM154.105 107.056C154.105 103.089 153.048 99.896 150.788 97.6369L149.374 99.0511C151.147 100.824 152.105 103.439 152.105 107.056H154.105ZM150.805 97.6539C148.646 95.3898 145.96 94.248 142.809 94.248V96.248C145.419 96.248 147.58 97.1702 149.358 99.0341L150.805 97.6539ZM142.809 94.248C139.659 94.248 136.972 95.3898 134.814 97.6539L136.261 99.0341C138.038 97.1702 140.2 96.248 142.809 96.248V94.248ZM134.813 97.6543C132.66 99.9151 131.657 103.102 131.657 107.056H133.657C133.657 103.426 134.575 100.805 136.261 99.0337L134.813 97.6543ZM131.657 107.056C131.657 111.006 132.634 114.206 134.725 116.512L136.206 115.168C134.553 113.346 133.657 110.69 133.657 107.056H131.657ZM134.741 116.53C136.857 118.751 139.522 119.864 142.665 119.864V117.864C140.048 117.864 137.913 116.961 136.189 115.15L134.741 116.53ZM190.019 88.264L189.55 89.1469L189.557 89.1508L189.565 89.1546L190.019 88.264ZM195.347 92.8L194.525 93.3692L196.347 96.0013V92.8H195.347ZM195.347 87.112V86.112H194.347V87.112H195.347ZM205.499 87.112H206.499V86.112H205.499V87.112ZM203.267 137.152L202.379 136.693L202.376 136.699L203.267 137.152ZM196.571 144.064L196.08 143.193L196.069 143.199L196.571 144.064ZM171.803 142.696L171.212 143.502L171.217 143.506L171.803 142.696ZM165.683 131.896V130.896H164.573L164.689 132.001L165.683 131.896ZM175.691 131.896L176.652 131.618L176.443 130.896H175.691V131.896ZM179.075 136.216L179.603 135.367L179.597 135.363L179.075 136.216ZM192.611 135.208L191.924 134.482L191.914 134.492L192.611 135.208ZM195.347 121.096H196.347V117.895L194.525 120.527L195.347 121.096ZM189.947 125.776L189.471 124.897L189.463 124.901L189.947 125.776ZM172.955 125.056L173.483 124.206L172.955 125.056ZM166.331 117.784L165.437 118.231L165.441 118.239L165.445 118.247L166.331 117.784ZM166.331 96.184L165.445 95.7205L165.44 95.7313L166.331 96.184ZM172.883 88.984L172.367 88.1278L172.36 88.1318L172.883 88.984ZM193.907 100.792L193.028 101.268L193.033 101.278L193.907 100.792ZM190.019 96.76L189.512 97.6219L189.522 97.6275L189.532 97.6329L190.019 96.76ZM179.579 96.688L179.08 95.8214L179.579 96.688ZM175.691 100.72L174.822 100.226L174.817 100.234L175.691 100.72ZM175.691 113.248L174.806 113.714L174.814 113.728L174.822 113.742L175.691 113.248ZM179.579 117.352L179.061 118.207L179.072 118.214L179.579 117.352ZM190.019 117.424L190.507 118.297L190.517 118.292L190.526 118.286L190.019 117.424ZM193.907 113.392L194.782 113.878L194.787 113.868L193.907 113.392ZM182.171 87.464C185.011 87.464 187.46 88.0356 189.55 89.1469L190.489 87.3811C188.066 86.0924 185.284 85.464 182.171 85.464V87.464ZM189.565 89.1546C191.69 90.2401 193.333 91.6478 194.525 93.3692L196.17 92.2308C194.769 90.2082 192.86 88.5919 190.474 87.3734L189.565 89.1546ZM196.347 92.8V87.112H194.347V92.8H196.347ZM195.347 88.112H205.499V86.112H195.347V88.112ZM204.499 87.112V127.288H206.499V87.112H204.499ZM204.499 127.288C204.499 130.847 203.784 133.974 202.379 136.693L204.156 137.611C205.727 134.57 206.499 131.121 206.499 127.288H204.499ZM202.376 136.699C200.981 139.444 198.892 141.606 196.08 143.193L197.063 144.935C200.203 143.162 202.578 140.716 204.159 137.605L202.376 136.699ZM196.069 143.199C193.277 144.821 189.859 145.656 185.771 145.656V147.656C190.132 147.656 193.914 146.763 197.074 144.929L196.069 143.199ZM185.771 145.656C180.263 145.656 175.828 144.374 172.39 141.886L171.217 143.506C175.075 146.298 179.952 147.656 185.771 147.656V145.656ZM172.395 141.89C169.029 139.421 167.129 136.08 166.678 131.791L164.689 132.001C165.197 136.832 167.378 140.691 171.212 143.502L172.395 141.89ZM165.683 132.896H175.691V130.896H165.683V132.896ZM174.731 132.174C175.333 134.255 176.628 135.893 178.554 137.069L179.597 135.363C178.066 134.427 177.106 133.185 176.652 131.618L174.731 132.174ZM178.547 137.065C180.51 138.285 182.837 138.872 185.483 138.872V136.872C183.138 136.872 181.192 136.355 179.603 135.367L178.547 137.065ZM185.483 138.872C188.63 138.872 191.27 137.91 193.309 135.924L191.914 134.492C190.305 136.058 188.193 136.872 185.483 136.872V138.872ZM193.299 135.934C195.393 133.95 196.347 130.999 196.347 127.288H194.347C194.347 130.681 193.477 133.01 191.924 134.482L193.299 135.934ZM196.347 127.288V121.096H194.347V127.288H196.347ZM194.525 120.527C193.331 122.251 191.658 123.712 189.471 124.897L190.424 126.655C192.845 125.344 194.772 123.685 196.17 121.665L194.525 120.527ZM189.463 124.901C187.375 126.056 184.953 126.648 182.171 126.648V128.648C185.245 128.648 188.008 127.992 190.431 126.651L189.463 124.901ZM182.171 126.648C178.993 126.648 176.104 125.833 173.483 124.206L172.428 125.906C175.375 127.735 178.63 128.648 182.171 128.648V126.648ZM173.483 124.206C170.862 122.58 168.773 120.294 167.217 117.321L165.445 118.247C167.154 121.514 169.481 124.076 172.428 125.906L173.483 124.206ZM167.226 117.337C165.721 114.327 164.955 110.86 164.955 106.912H162.955C162.955 111.124 163.774 114.905 165.437 118.231L167.226 117.337ZM164.955 106.912C164.955 103.013 165.72 99.5965 167.223 96.6367L165.44 95.7313C163.774 99.0116 162.955 102.747 162.955 106.912H164.955ZM167.217 96.6475C168.774 93.6715 170.839 91.4127 173.407 89.8362L172.36 88.1318C169.456 89.9153 167.153 92.4565 165.445 95.7205L167.217 96.6475ZM173.4 89.8402C176.02 88.2589 178.936 87.464 182.171 87.464V85.464C178.59 85.464 175.314 86.3491 172.367 88.1278L173.4 89.8402ZM196.347 107.056C196.347 104.478 195.842 102.214 194.782 100.306L193.033 101.278C193.893 102.826 194.347 104.738 194.347 107.056H196.347ZM194.787 100.316C193.744 98.3874 192.318 96.8991 190.507 95.8871L189.532 97.6329C190.985 98.4449 192.15 99.6446 193.028 101.268L194.787 100.316ZM190.526 95.8981C188.743 94.8488 186.816 94.32 184.763 94.32V96.32C186.455 96.32 188.032 96.7512 189.512 97.6219L190.526 95.8981ZM184.763 94.32C182.721 94.32 180.82 94.8198 179.08 95.8214L180.078 97.5546C181.507 96.7322 183.062 96.32 184.763 96.32V94.32ZM179.08 95.8214C177.324 96.8325 175.907 98.3139 174.822 100.226L176.561 101.214C177.492 99.5742 178.667 98.3675 180.078 97.5546L179.08 95.8214ZM174.817 100.234C173.759 102.14 173.251 104.378 173.251 106.912H175.251C175.251 104.646 175.704 102.756 176.566 101.206L174.817 100.234ZM173.251 106.912C173.251 109.448 173.759 111.724 174.806 113.714L176.576 112.782C175.703 111.124 175.251 109.176 175.251 106.912H173.251ZM174.822 113.742C175.905 115.651 177.316 117.15 179.061 118.207L180.098 116.497C178.674 115.634 177.494 114.397 176.561 112.754L174.822 113.742ZM179.072 118.214C180.852 119.261 182.754 119.792 184.763 119.792V117.792C183.125 117.792 181.571 117.363 180.086 116.49L179.072 118.214ZM184.763 119.792C186.806 119.792 188.726 119.292 190.507 118.297L189.532 116.551C188.049 117.38 186.465 117.792 184.763 117.792V119.792ZM190.526 118.286C192.319 117.231 193.739 115.754 194.782 113.878L193.033 112.906C192.156 114.486 190.984 115.697 189.512 116.562L190.526 118.286ZM194.787 113.868C195.841 111.917 196.347 109.635 196.347 107.056H194.347C194.347 109.373 193.894 111.315 193.028 112.916L194.787 113.868ZM221.104 93.304H220.104V96.8456L221.957 93.827L221.104 93.304ZM226.144 88.336L225.65 87.4665L225.642 87.4715L226.144 88.336ZM233.344 86.536H234.344V85.536H233.344V86.536ZM233.344 97.12V98.12H234.344V97.12H233.344ZM223.48 99.352L222.806 98.613L222.801 98.6181L222.796 98.6232L223.48 99.352ZM221.104 127V128H222.104V127H221.104ZM211.024 127H210.024V128H211.024V127ZM211.024 87.112V86.112H210.024V87.112H211.024ZM221.104 87.112H222.104V86.112H221.104V87.112ZM221.957 93.827C223.169 91.8505 224.731 90.3141 226.647 89.2005L225.642 87.4715C223.429 88.7579 221.631 90.5335 220.252 92.781L221.957 93.827ZM226.638 89.2055C228.584 88.0999 230.811 87.536 233.344 87.536V85.536C230.502 85.536 227.928 86.1721 225.65 87.4665L226.638 89.2055ZM232.344 86.536V97.12H234.344V86.536H232.344ZM233.344 96.12H230.68V98.12H233.344V96.12ZM230.68 96.12C227.37 96.12 224.689 96.8966 222.806 98.613L224.154 100.091C225.535 98.8314 227.654 98.12 230.68 98.12V96.12ZM222.796 98.6232C220.908 100.397 220.104 103.339 220.104 107.128H222.104C222.104 103.525 222.885 101.283 224.165 100.081L222.796 98.6232ZM220.104 107.128V127H222.104V107.128H220.104ZM221.104 126H211.024V128H221.104V126ZM212.024 127V87.112H210.024V127H212.024ZM211.024 88.112H221.104V86.112H211.024V88.112ZM220.104 87.112V93.304H222.104V87.112H220.104ZM235.598 96.184L234.711 95.7205L234.706 95.7313L235.598 96.184ZM242.15 88.984L241.633 88.1278L241.626 88.1318L242.15 88.984ZM259.214 88.264L258.736 89.1427L258.744 89.1469L259.214 88.264ZM264.614 92.8L263.809 93.3932L265.614 95.8429V92.8H264.614ZM264.614 87.112V86.112H263.614V87.112H264.614ZM274.766 87.112H275.766V86.112H274.766V87.112ZM274.766 127V128H275.766V127H274.766ZM264.614 127H263.614V128H264.614V127ZM264.614 121.168H265.614V117.967L263.791 120.599L264.614 121.168ZM259.214 125.848L259.683 126.731L259.69 126.727L259.214 125.848ZM242.15 125.056L241.616 125.902L241.622 125.906L242.15 125.056ZM235.598 117.784L234.703 118.231L234.707 118.239L234.712 118.247L235.598 117.784ZM263.174 100.792L262.294 101.268L262.299 101.278L263.174 100.792ZM259.286 96.76L258.779 97.6219L258.788 97.6275L258.798 97.6329L259.286 96.76ZM248.846 96.688L248.347 95.8214L248.846 96.688ZM244.958 100.72L244.088 100.226L244.083 100.234L244.958 100.72ZM244.958 113.248L244.073 113.714L244.08 113.728L244.088 113.742L244.958 113.248ZM248.846 117.352L248.327 118.207L248.339 118.214L248.846 117.352ZM259.286 117.424L259.773 118.297L259.783 118.292L259.793 118.286L259.286 117.424ZM263.174 113.392L264.048 113.878L264.053 113.868L263.174 113.392ZM234.222 106.912C234.222 103.013 234.987 99.5965 236.489 96.6367L234.706 95.7313C233.041 99.0116 232.222 102.747 232.222 106.912H234.222ZM236.484 96.6475C238.04 93.6715 240.105 91.4127 242.673 89.8362L241.626 88.1318C238.722 89.9153 236.419 92.4565 234.712 95.7205L236.484 96.6475ZM242.666 89.8402C245.287 88.2589 248.203 87.464 251.438 87.464V85.464C247.857 85.464 244.581 86.3491 241.633 88.1278L242.666 89.8402ZM251.438 87.464C254.278 87.464 256.699 88.0358 258.736 89.1426L259.691 87.3854C257.312 86.0922 254.55 85.464 251.438 85.464V87.464ZM258.744 89.1469C260.885 90.2856 262.564 91.7042 263.809 93.3932L265.419 92.2068C263.975 90.2478 262.054 88.6423 259.683 87.3811L258.744 89.1469ZM265.614 92.8V87.112H263.614V92.8H265.614ZM264.614 88.112H274.766V86.112H264.614V88.112ZM273.766 87.112V127H275.766V87.112H273.766ZM274.766 126H264.614V128H274.766V126ZM265.614 127V121.168H263.614V127H265.614ZM263.791 120.599C262.597 122.324 260.924 123.784 258.737 124.969L259.69 126.727C262.111 125.416 264.038 123.757 265.436 121.737L263.791 120.599ZM258.744 124.965C256.655 126.076 254.205 126.648 251.366 126.648V128.648C254.478 128.648 257.261 128.02 259.683 126.731L258.744 124.965ZM251.366 126.648C248.187 126.648 245.298 125.833 242.677 124.206L241.622 125.906C244.569 127.735 247.824 128.648 251.366 128.648V126.648ZM242.684 124.211C240.11 122.585 238.041 120.299 236.484 117.321L234.712 118.247C236.418 121.509 238.718 124.071 241.616 125.901L242.684 124.211ZM236.492 117.337C234.987 114.327 234.222 110.86 234.222 106.912H232.222C232.222 111.124 233.04 114.905 234.703 118.231L236.492 117.337ZM265.614 107.056C265.614 104.478 265.108 102.214 264.048 100.306L262.299 101.278C263.159 102.826 263.614 104.738 263.614 107.056H265.614ZM264.053 100.316C263.011 98.3874 261.584 96.8991 259.773 95.8871L258.798 97.6329C260.251 98.4449 261.417 99.6446 262.294 101.268L264.053 100.316ZM259.793 95.8981C258.009 94.8488 256.082 94.32 254.03 94.32V96.32C255.721 96.32 257.298 96.7512 258.779 97.6219L259.793 95.8981ZM254.03 94.32C251.987 94.32 250.086 94.8198 248.347 95.8214L249.345 97.5546C250.773 96.7322 252.328 96.32 254.03 96.32V94.32ZM248.347 95.8214C246.59 96.8325 245.173 98.3139 244.088 100.226L245.827 101.214C246.758 99.5742 247.933 98.3675 249.345 97.5546L248.347 95.8214ZM244.083 100.234C243.025 102.14 242.518 104.378 242.518 106.912H244.518C244.518 104.646 244.97 102.756 245.832 101.206L244.083 100.234ZM242.518 106.912C242.518 109.448 243.026 111.724 244.073 113.714L245.843 112.782C244.97 111.124 244.518 109.176 244.518 106.912H242.518ZM244.088 113.742C245.171 115.651 246.583 117.15 248.327 118.207L249.364 116.497C247.941 115.634 246.76 114.397 245.827 112.754L244.088 113.742ZM248.339 118.214C250.118 119.261 252.02 119.792 254.03 119.792V117.792C252.391 117.792 250.837 117.363 249.353 116.49L248.339 118.214ZM254.03 119.792C256.072 119.792 257.992 119.292 259.773 118.297L258.798 116.551C257.315 117.38 255.731 117.792 254.03 117.792V119.792ZM259.793 118.286C261.585 117.231 263.005 115.754 264.048 113.878L262.299 112.906C261.422 114.486 260.25 115.697 258.779 116.562L259.793 118.286ZM264.053 113.868C265.107 111.917 265.614 109.635 265.614 107.056H263.614C263.614 109.373 263.16 111.315 262.294 112.916L264.053 113.868ZM290.371 92.872H289.371V96.0059L291.186 93.4512L290.371 92.872ZM295.699 88.336L296.168 89.2189L296.175 89.2153L295.699 88.336ZM312.763 88.984L312.239 89.8362L312.246 89.8402L312.763 88.984ZM319.315 96.184L318.423 96.6367L318.427 96.645L318.431 96.6532L319.315 96.184ZM319.315 117.784L318.426 117.326L318.423 117.331L319.315 117.784ZM312.763 125.056L312.235 124.206L312.229 124.211L312.763 125.056ZM295.771 125.848L295.293 126.727L295.301 126.731L295.771 125.848ZM290.371 121.312L291.165 120.705L289.371 118.353V121.312H290.371ZM290.371 146.008V147.008H291.371V146.008H290.371ZM280.29 146.008H279.29V147.008H280.29V146.008ZM280.29 87.112V86.112H279.29V87.112H280.29ZM290.371 87.112H291.371V86.112H290.371V87.112ZM309.954 100.72L309.075 101.196L309.083 101.21L309.091 101.224L309.954 100.72ZM306.066 96.688L305.568 97.5547L305.579 97.5609L306.066 96.688ZM295.699 96.76L296.198 97.6267L296.206 97.6219L295.699 96.76ZM291.811 100.792L290.941 100.298L290.936 100.307L290.931 100.316L291.811 100.792ZM291.811 113.32L290.931 113.796L290.936 113.805L290.941 113.814L291.811 113.32ZM295.699 117.424L295.18 118.279L295.195 118.288L295.211 118.297L295.699 117.424ZM306.066 117.352L305.559 116.49L305.548 116.497L306.066 117.352ZM309.954 113.248L309.085 112.754L309.08 112.763L309.075 112.772L309.954 113.248ZM291.186 93.4512C292.38 91.7708 294.03 90.3563 296.168 89.2189L295.229 87.4531C292.855 88.7157 290.953 90.3252 289.555 92.2928L291.186 93.4512ZM296.175 89.2153C298.316 88.0555 300.765 87.464 303.547 87.464V85.464C300.472 85.464 297.689 86.1205 295.222 87.4567L296.175 89.2153ZM303.547 87.464C306.782 87.464 309.67 88.2589 312.239 89.8362L313.286 88.1318C310.383 86.3492 307.127 85.464 303.547 85.464V87.464ZM312.246 89.8402C314.857 91.4161 316.917 93.6704 318.423 96.6367L320.206 95.7313C318.544 92.4576 316.236 89.9119 313.279 88.1278L312.246 89.8402ZM318.431 96.6532C319.974 99.5576 320.763 102.967 320.763 106.912H322.763C322.763 102.697 321.919 98.9544 320.198 95.7148L318.431 96.6532ZM320.763 106.912C320.763 110.856 319.975 114.319 318.426 117.326L320.203 118.242C321.918 114.913 322.763 111.128 322.763 106.912H320.763ZM318.423 117.331C316.916 120.3 314.853 122.581 312.235 124.206L313.29 125.906C316.24 124.075 318.545 121.508 320.206 118.237L318.423 117.331ZM312.229 124.211C309.661 125.832 306.776 126.648 303.547 126.648V128.648C307.133 128.648 310.392 127.736 313.297 125.901L312.229 124.211ZM303.547 126.648C300.758 126.648 298.332 126.078 296.24 124.965L295.301 126.731C297.721 128.018 300.479 128.648 303.547 128.648V126.648ZM296.248 124.969C294.152 123.83 292.464 122.407 291.165 120.705L289.576 121.919C291.061 123.865 292.973 125.466 295.293 126.727L296.248 124.969ZM289.371 121.312V146.008H291.371V121.312H289.371ZM290.371 145.008H280.29V147.008H290.371V145.008ZM281.29 146.008V87.112H279.29V146.008H281.29ZM280.29 88.112H290.371V86.112H280.29V88.112ZM289.371 87.112V92.872H291.371V87.112H289.371ZM312.467 106.912C312.467 104.37 311.932 102.125 310.818 100.216L309.091 101.224C309.993 102.771 310.467 104.654 310.467 106.912H312.467ZM310.834 100.244C309.791 98.3154 308.365 96.8271 306.554 95.8151L305.579 97.5609C307.032 98.3729 308.198 99.5726 309.075 101.196L310.834 100.244ZM306.565 95.8214C304.826 94.8198 302.925 94.32 300.883 94.32V96.32C302.584 96.32 304.139 96.7322 305.568 97.5546L306.565 95.8214ZM300.883 94.32C298.873 94.32 296.971 94.8513 295.191 95.8981L296.206 97.6219C297.69 96.7487 299.244 96.32 300.883 96.32V94.32ZM295.2 95.8934C293.443 96.9045 292.026 98.3858 290.941 100.298L292.68 101.286C293.611 99.6461 294.786 98.4395 296.197 97.6266L295.2 95.8934ZM290.931 100.316C289.878 102.264 289.371 104.521 289.371 107.056H291.371C291.371 104.791 291.823 102.872 292.69 101.268L290.931 100.316ZM289.371 107.056C289.371 109.591 289.878 111.848 290.931 113.796L292.69 112.844C291.823 111.24 291.371 109.321 291.371 107.056H289.371ZM290.941 113.814C292.024 115.723 293.436 117.222 295.18 118.279L296.217 116.569C294.794 115.706 293.613 114.469 292.68 112.826L290.941 113.814ZM295.211 118.297C296.988 119.29 298.883 119.792 300.883 119.792V117.792C299.234 117.792 297.673 117.382 296.186 116.551L295.211 118.297ZM300.883 119.792C302.935 119.792 304.843 119.263 306.585 118.207L305.548 116.497C304.122 117.361 302.574 117.792 300.883 117.792V119.792ZM306.574 118.214C308.373 117.155 309.794 115.649 310.834 113.724L309.075 112.772C308.196 114.399 307.024 115.629 305.559 116.49L306.574 118.214ZM310.824 113.742C311.933 111.788 312.467 109.499 312.467 106.912H310.467C310.467 109.221 309.992 111.156 309.085 112.754L310.824 113.742ZM355.295 88.552L354.799 89.4202L354.806 89.4241L354.813 89.4278L355.295 88.552ZM360.767 94.384L359.873 94.8312L359.878 94.8412L359.883 94.8511L360.767 94.384ZM362.783 127V128H363.783V127H362.783ZM352.703 127H351.703V128H352.703V127ZM350.327 97.696L349.59 98.3718L349.6 98.382L350.327 97.696ZM337.223 97.696L336.496 97.0094L336.496 97.01L337.223 97.696ZM334.847 127V128H335.847V127H334.847ZM324.767 127H323.767V128H324.767V127ZM324.767 73.72V72.72H323.767V73.72H324.767ZM334.847 73.72H335.847V72.72H334.847V73.72ZM334.847 92.08H333.847V95.08L335.647 92.68L334.847 92.08ZM340.031 88.048L340.438 88.9618L340.446 88.9581L340.454 88.9542L340.031 88.048ZM347.231 87.536C350.102 87.536 352.615 88.1723 354.799 89.4202L355.792 87.6838C353.271 86.2437 350.409 85.536 347.231 85.536V87.536ZM354.813 89.4278C356.973 90.6182 358.66 92.4054 359.873 94.8312L361.662 93.9368C360.283 91.1786 358.322 89.0778 355.778 87.6762L354.813 89.4278ZM359.883 94.8511C361.134 97.2194 361.783 100.123 361.783 103.6H363.783C363.783 99.8773 363.088 96.6366 361.652 93.9169L359.883 94.8511ZM361.783 103.6V127H363.783V103.6H361.783ZM362.783 126H352.703V128H362.783V126ZM353.703 127V104.968H351.703V127H353.703ZM353.703 104.968C353.703 101.641 352.87 98.9353 351.055 97.01L349.6 98.382C350.952 99.8167 351.703 101.959 351.703 104.968H353.703ZM351.065 97.0203C349.259 95.0506 346.812 94.104 343.847 94.104V96.104C346.354 96.104 348.228 96.8854 349.59 98.3717L351.065 97.0203ZM343.847 94.104C340.84 94.104 338.35 95.0469 336.496 97.0094L337.95 98.3826C339.361 96.8891 341.287 96.104 343.847 96.104V94.104ZM336.496 97.01C334.68 98.9353 333.847 101.641 333.847 104.968H335.847C335.847 101.959 336.598 99.8167 337.951 98.382L336.496 97.01ZM333.847 104.968V127H335.847V104.968H333.847ZM334.847 126H324.767V128H334.847V126ZM325.767 127V73.72H323.767V127H325.767ZM324.767 74.72H334.847V72.72H324.767V74.72ZM333.847 73.72V92.08H335.847V73.72H333.847ZM335.647 92.68C336.832 91.1011 338.418 89.8592 340.438 88.9618L339.625 87.1342C337.324 88.1568 335.455 89.6029 334.047 91.48L335.647 92.68ZM340.454 88.9542C342.468 88.0143 344.722 87.536 347.231 87.536V85.536C344.461 85.536 341.915 86.0657 339.608 87.1418L340.454 88.9542ZM406.209 87.112L407.131 87.4995L407.714 86.112H406.209V87.112ZM381.513 145.864V146.864H382.177L382.435 146.252L381.513 145.864ZM370.785 145.864L369.868 145.465L369.26 146.864H370.785V145.864ZM379.425 125.992L380.342 126.391L380.511 126.003L380.35 125.612L379.425 125.992ZM363.441 87.112V86.112H361.949L362.516 87.4922L363.441 87.112ZM374.745 87.112L375.683 86.7654L375.441 86.112H374.745V87.112ZM385.041 114.976L384.103 115.323L385.034 117.844L385.977 115.327L385.041 114.976ZM395.481 87.112V86.112H394.788L394.544 86.7611L395.481 87.112ZM405.287 86.7245L380.591 145.477L382.435 146.252L407.131 87.4995L405.287 86.7245ZM381.513 144.864H370.785V146.864H381.513V144.864ZM371.702 146.263L380.342 126.391L378.508 125.593L369.868 145.465L371.702 146.263ZM380.35 125.612L364.366 86.7318L362.516 87.4922L378.5 126.372L380.35 125.612ZM363.441 88.112H374.745V86.112H363.441V88.112ZM373.807 87.4586L384.103 115.323L385.979 114.629L375.683 86.7654L373.807 87.4586ZM385.977 115.327L396.417 87.4629L394.544 86.7611L384.104 114.625L385.977 115.327ZM395.481 88.112H406.209V86.112H395.481V88.112Z" fill="black"/>
</svg>
