<svg width="1732" height="186" viewBox="0 0 1732 186" fill="none" xmlns="http://www.w3.org/2000/svg">
<path d="M9.58 38.88L8.7124 38.3827L8.71044 38.3862L9.58 38.88ZM32.44 16.02L32.9303 16.8916L32.9338 16.8896L32.44 16.02ZM124.06 48.42V49.42H125.443L125.01 48.1065L124.06 48.42ZM95.08 48.42L94.1785 48.8527L94.4508 49.42H95.08V48.42ZM82.84 34.92L82.3374 35.7845L82.346 35.7894L82.84 34.92ZM45.22 35.64L45.7318 36.4991L45.7371 36.4959L45.22 35.64ZM31.9 50.04L31.0125 49.5792L31.009 49.586L31.0056 49.5928L31.9 50.04ZM31.9 93.96L31.0022 94.4004L31.0072 94.4107L31.0125 94.4208L31.9 93.96ZM45.22 108.54L44.6949 109.391L44.7054 109.398L44.7161 109.404L45.22 108.54ZM82.84 109.08L83.3426 109.945L83.3487 109.941L82.84 109.08ZM95.08 95.4V94.4H94.4508L94.1785 94.9673L95.08 95.4ZM124.06 95.4L125.01 95.7109L125.439 94.4H124.06V95.4ZM101.92 125.46L102.481 126.288L102.483 126.286L101.92 125.46ZM32.44 127.98L31.9415 128.847L31.9479 128.851L31.9544 128.854L32.44 127.98ZM9.58 105.12L8.7104 105.614L8.71506 105.622L9.58 105.12ZM2.3 72C2.3 59.7944 5.02386 48.9278 10.4496 39.3738L8.71044 38.3862C3.09614 48.2722 0.3 59.4856 0.3 72H2.3ZM10.4476 39.3773C16.0007 29.6889 23.4923 22.2004 32.9303 16.8916L31.9497 15.1484C22.1877 20.6396 14.4393 28.3911 8.71241 38.3827L10.4476 39.3773ZM32.9338 16.8896C42.4923 11.4613 53.18 8.74 65.02 8.74V6.74C52.86 6.74 41.8278 9.53868 31.9462 15.1504L32.9338 16.8896ZM65.02 8.74C78.8797 8.74 90.979 12.2906 101.357 19.3662L102.483 17.7138C91.741 10.3894 79.2403 6.74 65.02 6.74V8.74ZM101.357 19.3662C111.726 26.4362 118.976 36.2115 123.11 48.7335L125.01 48.1065C120.744 35.1885 113.234 25.0438 102.483 17.7138L101.357 19.3662ZM124.06 47.42H95.08V49.42H124.06V47.42ZM95.9815 47.9873C93.0222 41.822 88.8082 37.1609 83.334 34.0505L82.346 35.7894C87.4318 38.6791 91.3778 43.018 94.1785 48.8527L95.9815 47.9873ZM83.3426 34.0555C78.0088 30.9544 71.8304 29.42 64.84 29.42V31.42C71.5296 31.42 77.3512 32.8855 82.3374 35.7845L83.3426 34.0555ZM64.84 29.42C57.3543 29.42 50.6325 31.2016 44.7029 34.7841L45.7371 36.4959C51.3275 33.1184 57.6857 31.42 64.84 31.42V29.42ZM44.7082 34.7809C38.8969 38.2429 34.3319 43.1863 31.0125 49.5792L32.7875 50.5008C35.9481 44.4137 40.2631 39.7571 45.7318 36.4991L44.7082 34.7809ZM31.0056 49.5928C27.8034 55.9972 26.22 63.4761 26.22 72H28.22C28.22 63.7239 29.7566 56.5628 32.7944 50.4872L31.0056 49.5928ZM26.22 72C26.22 80.407 27.8045 87.882 31.0022 94.4004L32.7978 93.5196C29.7555 87.318 28.22 80.153 28.22 72H26.22ZM31.0125 94.4208C34.3305 100.811 38.8916 105.81 44.6949 109.391L45.7451 107.689C40.2684 104.31 35.9495 99.5889 32.7875 93.4992L31.0125 94.4208ZM44.7161 109.404C50.6437 112.862 57.3607 114.58 64.84 114.58V112.58C57.6793 112.58 51.3163 110.938 45.7239 107.676L44.7161 109.404ZM64.84 114.58C71.8304 114.58 78.0088 113.046 83.3426 109.945L82.3374 108.215C77.3512 111.114 71.5296 112.58 64.84 112.58V114.58ZM83.3487 109.941C88.8137 106.712 93.0235 101.995 95.9815 95.8327L94.1785 94.9673C91.3765 100.805 87.4263 105.208 82.3313 108.219L83.3487 109.941ZM95.08 96.4H124.06V94.4H95.08V96.4ZM123.11 95.0891C118.974 107.732 111.723 117.566 101.357 124.634L102.483 126.286C113.237 118.954 120.746 108.748 125.01 95.7109L123.11 95.0891ZM101.359 124.632C91.1042 131.587 79.0053 135.08 65.02 135.08V137.08C79.3547 137.08 91.8558 133.493 102.481 126.288L101.359 124.632ZM65.02 135.08C53.1761 135.08 42.4854 132.417 32.9256 127.106L31.9544 128.854C41.8346 134.343 52.8639 137.08 65.02 137.08V135.08ZM32.9385 127.113C23.4929 121.682 15.9983 114.189 10.4449 104.618L8.71506 105.622C14.4417 115.491 22.1871 123.238 31.9415 128.847L32.9385 127.113ZM10.4496 104.626C5.02386 95.0722 2.3 84.2056 2.3 72H0.3C0.3 84.5144 3.09614 95.7278 8.71044 105.614L10.4496 104.626ZM153.144 130.32L152.654 131.192L152.664 131.197L153.144 130.32ZM134.964 112.14L134.089 112.625L134.095 112.635L134.964 112.14ZM135.144 58.14L134.281 57.6353L134.275 57.6453L135.144 58.14ZM153.684 40.14L154.158 41.0205L154.169 41.0148L153.684 40.14ZM205.884 40.14L205.4 41.0149L205.41 41.0205L205.884 40.14ZM224.244 58.14L223.375 58.6347L223.381 58.6447L224.244 58.14ZM224.064 112.14L223.207 111.625L223.201 111.635L224.064 112.14ZM205.344 130.32L205.818 131.2L205.823 131.198L205.344 130.32ZM191.844 111.42L192.323 112.298L192.332 112.293L191.844 111.42ZM201.564 101.34L202.444 101.816L201.564 101.34ZM197.604 63.36L196.88 64.0501L196.889 64.0587L196.897 64.0671L197.604 63.36ZM161.244 63.36L160.52 62.6699L160.52 62.6703L161.244 63.36ZM161.064 107.1L160.323 107.772L160.332 107.781L160.34 107.79L161.064 107.1ZM179.064 135.62C169.615 135.62 161.143 133.555 153.624 129.443L152.664 131.197C160.505 135.485 169.313 137.62 179.064 137.62V135.62ZM153.634 129.448C146.115 125.219 140.185 119.291 135.833 111.645L134.095 112.635C138.623 120.589 144.813 126.781 152.654 131.192L153.634 129.448ZM135.839 111.656C131.612 104.024 129.484 95.1952 129.484 85.14H127.484C127.484 95.4848 129.676 104.656 134.089 112.624L135.839 111.656ZM129.484 85.14C129.484 75.0894 131.67 66.2643 136.013 58.6347L134.275 57.6453C129.738 65.6157 127.484 74.7906 127.484 85.14H129.484ZM136.007 58.6447C140.477 51 146.523 45.1315 154.158 41.0205L153.21 39.2595C145.245 43.5485 138.932 49.68 134.281 57.6353L136.007 58.6447ZM154.169 41.0148C161.809 36.7832 170.34 34.66 179.784 34.66V32.66C170.028 32.66 161.159 34.8568 153.2 39.2652L154.169 41.0148ZM179.784 34.66C189.228 34.66 197.759 36.7832 205.4 41.0148L206.369 39.2652C198.409 34.8568 189.54 32.66 179.784 32.66V34.66ZM205.41 41.0205C213.042 45.1303 219.027 50.9955 223.375 58.6347L225.113 57.6453C220.582 49.6845 214.326 43.5497 206.358 39.2595L205.41 41.0205ZM223.381 58.6447C227.84 66.2726 230.084 75.094 230.084 85.14H232.084C232.084 74.786 229.768 65.6074 225.107 57.6353L223.381 58.6447ZM230.084 85.14C230.084 95.1813 227.782 103.999 223.207 111.626L224.922 112.654C229.706 104.681 232.084 95.4987 232.084 85.14H230.084ZM223.201 111.635C218.732 119.279 212.625 125.209 204.865 129.442L205.823 131.198C213.903 126.791 220.276 120.602 224.927 112.645L223.201 111.635ZM204.87 129.44C197.229 133.554 188.635 135.62 179.064 135.62V137.62C188.933 137.62 197.859 135.486 205.818 131.2L204.87 129.44ZM179.064 115.66C183.789 115.66 188.214 114.539 192.323 112.298L191.365 110.542C187.554 112.621 183.459 113.66 179.064 113.66V115.66ZM192.332 112.293C196.591 109.913 199.961 106.409 202.444 101.816L200.684 100.864C198.367 105.151 195.257 108.367 191.356 110.547L192.332 112.293ZM202.444 101.816C204.941 97.1963 206.164 91.6237 206.164 85.14H204.164C204.164 91.3763 202.987 96.6037 200.684 100.864L202.444 101.816ZM206.164 85.14C206.164 75.4853 203.594 67.936 198.311 62.6529L196.897 64.0671C201.694 68.864 204.164 75.8347 204.164 85.14H206.164ZM198.328 62.6699C193.217 57.3098 186.894 54.62 179.424 54.62V56.62C186.354 56.62 192.151 59.0902 196.88 64.0501L198.328 62.6699ZM179.424 54.62C171.954 54.62 165.631 57.3098 160.52 62.6699L161.968 64.0501C166.697 59.0902 172.494 56.62 179.424 56.62V54.62ZM160.52 62.6703C155.487 67.9551 153.044 75.4978 153.044 85.14H155.044C155.044 75.8222 157.401 68.8449 161.968 64.0497L160.52 62.6703ZM153.044 85.14C153.044 94.7778 155.424 102.37 160.323 107.772L161.805 106.428C157.344 101.51 155.044 94.4622 155.044 85.14H153.044ZM160.34 107.79C165.336 113.035 171.601 115.66 179.064 115.66V113.66C172.127 113.66 166.392 111.245 161.788 106.41L160.34 107.79ZM263.969 1.8H264.969V0.799998H263.969V1.8ZM263.969 135V136H264.969V135H263.969ZM238.769 135H237.769V136H238.769V135ZM238.769 1.8V0.799998H237.769V1.8H238.769ZM262.969 1.8V135H264.969V1.8H262.969ZM263.969 134H238.769V136H263.969V134ZM239.769 135V1.8H237.769V135H239.769ZM238.769 2.8H263.969V0.799998H238.769V2.8ZM296.427 130.32L295.937 131.192L295.947 131.197L296.427 130.32ZM278.247 112.14L277.372 112.625L277.378 112.635L278.247 112.14ZM278.427 58.14L277.564 57.6353L277.558 57.6453L278.427 58.14ZM296.967 40.14L297.441 41.0205L297.451 41.0148L296.967 40.14ZM349.167 40.14L348.682 41.0149L348.693 41.0205L349.167 40.14ZM367.527 58.14L366.658 58.6347L366.664 58.6447L367.527 58.14ZM367.347 112.14L366.489 111.625L366.484 111.635L367.347 112.14ZM348.627 130.32L349.101 131.2L349.106 131.198L348.627 130.32ZM335.127 111.42L335.606 112.298L335.615 112.293L335.127 111.42ZM344.847 101.34L345.727 101.816L344.847 101.34ZM340.887 63.36L340.163 64.0501L340.171 64.0587L340.18 64.0671L340.887 63.36ZM304.527 63.36L303.803 62.6699L303.803 62.6703L304.527 63.36ZM304.347 107.1L303.606 107.772L303.614 107.781L303.623 107.79L304.347 107.1ZM322.347 135.62C312.898 135.62 304.426 133.555 296.907 129.443L295.947 131.197C303.788 135.485 312.596 137.62 322.347 137.62V135.62ZM296.917 129.448C289.398 125.219 283.468 119.291 279.116 111.645L277.378 112.635C281.906 120.589 288.095 126.781 295.937 131.192L296.917 129.448ZM279.122 111.656C274.895 104.024 272.767 95.1952 272.767 85.14H270.767C270.767 95.4848 272.959 104.656 277.372 112.624L279.122 111.656ZM272.767 85.14C272.767 75.0894 274.953 66.2643 279.296 58.6347L277.558 57.6453C273.021 65.6157 270.767 74.7906 270.767 85.14H272.767ZM279.29 58.6447C283.759 51 289.806 45.1315 297.441 41.0205L296.493 39.2595C288.528 43.5485 282.214 49.68 277.564 57.6353L279.29 58.6447ZM297.451 41.0148C305.092 36.7832 313.623 34.66 323.067 34.66V32.66C313.311 32.66 304.442 34.8568 296.482 39.2652L297.451 41.0148ZM323.067 34.66C332.511 34.66 341.042 36.7832 348.682 41.0148L349.651 39.2652C341.692 34.8568 332.823 32.66 323.067 32.66V34.66ZM348.693 41.0205C356.325 45.1303 362.309 50.9955 366.658 58.6347L368.396 57.6453C363.864 49.6845 357.609 43.5497 349.641 39.2595L348.693 41.0205ZM366.664 58.6447C371.123 66.2726 373.367 75.094 373.367 85.14H375.367C375.367 74.786 373.051 65.6074 368.39 57.6353L366.664 58.6447ZM373.367 85.14C373.367 95.1813 371.065 103.999 366.489 111.626L368.204 112.654C372.989 104.681 375.367 95.4987 375.367 85.14H373.367ZM366.484 111.635C362.015 119.279 355.908 125.209 348.148 129.442L349.106 131.198C357.186 126.791 363.559 120.602 368.21 112.645L366.484 111.635ZM348.153 129.44C340.512 133.554 331.918 135.62 322.347 135.62V137.62C332.216 137.62 341.141 135.486 349.101 131.2L348.153 129.44ZM322.347 115.66C327.072 115.66 331.497 114.539 335.606 112.298L334.648 110.542C330.837 112.621 326.741 113.66 322.347 113.66V115.66ZM335.615 112.293C339.874 109.913 343.244 106.409 345.727 101.816L343.967 100.864C341.65 105.151 338.54 108.367 334.639 110.547L335.615 112.293ZM345.727 101.816C348.223 97.1963 349.447 91.6237 349.447 85.14H347.447C347.447 91.3763 346.27 96.6037 343.967 100.864L345.727 101.816ZM349.447 85.14C349.447 75.4853 346.877 67.936 341.594 62.6529L340.18 64.0671C344.977 68.864 347.447 75.8347 347.447 85.14H349.447ZM341.611 62.6699C336.5 57.3098 330.177 54.62 322.707 54.62V56.62C329.636 56.62 335.434 59.0902 340.163 64.0501L341.611 62.6699ZM322.707 54.62C315.236 54.62 308.914 57.3098 303.803 62.6699L305.251 64.0501C309.98 59.0902 315.777 56.62 322.707 56.62V54.62ZM303.803 62.6703C298.77 67.9551 296.327 75.4978 296.327 85.14H298.327C298.327 75.8222 300.684 68.8449 305.251 64.0497L303.803 62.6703ZM296.327 85.14C296.327 94.7778 298.707 102.37 303.606 107.772L305.088 106.428C300.627 101.51 298.327 94.4622 298.327 85.14H296.327ZM303.623 107.79C308.619 113.035 314.884 115.66 322.347 115.66V113.66C315.41 113.66 309.675 111.245 305.071 106.41L303.623 107.79ZM407.252 50.76H406.252V54.3016L408.104 51.283L407.252 50.76ZM419.852 38.34L419.358 37.4705L419.349 37.4755L419.852 38.34ZM437.852 33.84H438.852V32.84H437.852V33.84ZM437.852 60.3V61.3H438.852V60.3H437.852ZM413.192 65.88L412.518 65.141L412.513 65.1461L412.507 65.1512L413.192 65.88ZM407.252 135V136H408.252V135H407.252ZM382.052 135H381.052V136H382.052V135ZM382.052 35.28V34.28H381.052V35.28H382.052ZM407.252 35.28H408.252V34.28H407.252V35.28ZM408.104 51.283C411.261 46.1385 415.343 42.1181 420.355 39.2045L419.349 37.4755C414.041 40.5618 409.723 44.8215 406.4 50.237L408.104 51.283ZM420.346 39.2095C425.46 36.3039 431.286 34.84 437.852 34.84V32.84C430.978 32.84 424.804 34.3761 419.358 37.4705L420.346 39.2095ZM436.852 33.84V60.3H438.852V33.84H436.852ZM437.852 59.3H431.192V61.3H437.852V59.3ZM431.192 59.3C423.13 59.3 416.849 61.1926 412.518 65.141L413.866 66.619C417.695 63.1274 423.414 61.3 431.192 61.3V59.3ZM412.507 65.1512C408.243 69.1568 406.252 75.9869 406.252 85.32H408.252C408.252 76.1731 410.221 70.0432 413.877 66.6088L412.507 65.1512ZM406.252 85.32V135H408.252V85.32H406.252ZM407.252 134H382.052V136H407.252V134ZM383.052 135V35.28H381.052V135H383.052ZM382.052 36.28H407.252V34.28H382.052V36.28ZM406.252 35.28V50.76H408.252V35.28H406.252ZM460.225 132.3L459.805 133.207L459.812 133.211L459.819 133.214L460.225 132.3ZM444.745 120.24L443.941 120.834L443.945 120.84L443.95 120.846L444.745 120.24ZM438.625 103.5V102.5H437.565L437.627 103.559L438.625 103.5ZM464.005 103.5L464.998 103.376L464.888 102.5H464.005V103.5ZM469.585 113.04L468.972 113.829L468.978 113.835L468.985 113.84L469.585 113.04ZM493.165 113.94L492.594 113.119L492.586 113.125L492.577 113.131L493.165 113.94ZM492.265 99.36L491.805 100.248L491.825 100.258L491.844 100.267L492.265 99.36ZM476.605 93.96L476.863 92.9938L476.852 92.9908L476.841 92.988L476.605 93.96ZM458.245 88.38L457.866 89.3052L457.874 89.3085L458.245 88.38ZM446.005 79.56L445.243 80.207L445.249 80.2136L445.254 80.2201L446.005 79.56ZM445.645 48.42L444.83 47.8408L444.825 47.848L444.82 47.8553L445.645 48.42ZM459.325 37.62L458.923 36.7047L458.916 36.7077L459.325 37.62ZM508.826 42.66L508.179 43.4229L508.187 43.4293L508.826 42.66ZM520.525 66.6V67.6H521.599L521.523 66.5287L520.525 66.6ZM496.405 66.6L495.41 66.6905L495.492 67.6H496.405V66.6ZM491.365 57.24L490.725 58.0082L490.743 58.0226L490.76 58.0362L491.365 57.24ZM469.045 56.16L468.491 55.3279L468.481 55.3343L468.472 55.3408L469.045 56.16ZM470.485 70.92L470.013 71.8015L470.026 71.8081L470.038 71.8144L470.485 70.92ZM486.145 76.14L485.899 77.1092L485.903 77.1101L486.145 76.14ZM516.025 90.72L515.254 91.3557L515.264 91.3681L515.274 91.3801L516.025 90.72ZM521.425 106.56H522.425V106.551L522.425 106.542L521.425 106.56ZM516.565 122.04L515.75 121.461L515.745 121.468L515.74 121.475L516.565 122.04ZM502.885 132.84L503.279 133.759L503.288 133.755L502.885 132.84ZM482.185 135.62C474.144 135.62 466.966 134.201 460.632 131.386L459.819 133.214C466.445 136.159 473.907 137.62 482.185 137.62V135.62ZM460.646 131.393C454.294 128.452 449.27 124.529 445.541 119.634L443.95 120.846C447.901 126.031 453.197 130.148 459.805 133.207L460.646 131.393ZM445.55 119.646C441.942 114.758 439.972 109.363 439.624 103.441L437.627 103.559C437.999 109.877 440.109 115.642 443.941 120.834L445.55 119.646ZM438.625 104.5H464.005V102.5H438.625V104.5ZM463.013 103.624C463.528 107.744 465.536 111.157 468.972 113.829L470.199 112.251C467.155 109.883 465.443 106.936 464.998 103.376L463.013 103.624ZM468.985 113.84C472.547 116.511 476.908 117.82 482.005 117.82V115.82C477.263 115.82 473.344 114.609 470.185 112.24L468.985 113.84ZM482.005 117.82C486.922 117.82 490.879 116.839 493.754 114.749L492.577 113.131C490.172 114.881 486.689 115.82 482.005 115.82V117.82ZM493.737 114.761C496.728 112.68 498.305 109.931 498.305 106.56H496.305C496.305 109.189 495.123 111.36 492.594 113.119L493.737 114.761ZM498.305 106.56C498.305 104.758 497.835 103.142 496.865 101.757C495.9 100.379 494.485 99.2878 492.687 98.453L491.844 100.267C493.406 100.992 494.511 101.881 495.226 102.903C495.936 103.918 496.305 105.122 496.305 106.56H498.305ZM492.726 98.4722C489.384 96.7397 484.077 94.9173 476.863 92.9938L476.348 94.9262C483.534 96.8427 488.667 98.6203 491.805 100.248L492.726 98.4722ZM476.841 92.988C469.427 91.1945 463.357 89.3476 458.617 87.4515L457.874 89.3085C462.734 91.2524 468.904 93.1255 476.37 94.932L476.841 92.988ZM458.625 87.4548C454.094 85.5958 450.139 82.7491 446.757 78.8999L445.254 80.2201C448.832 84.2909 453.037 87.3242 457.866 89.3052L458.625 87.4548ZM446.768 78.913C443.602 75.1814 441.965 70.094 441.965 63.54H439.965C439.965 70.426 441.689 76.0186 445.243 80.207L446.768 78.913ZM441.965 63.54C441.965 58.2217 443.464 53.3785 446.471 48.9847L444.82 47.8553C441.586 52.5815 439.965 57.8183 439.965 63.54H441.965ZM446.461 48.9992C449.583 44.6052 453.992 41.1106 459.735 38.5323L458.916 36.7077C452.899 39.4094 448.188 43.1147 444.83 47.8408L446.461 48.9992ZM459.728 38.5353C465.576 35.9623 472.454 34.66 480.385 34.66V32.66C472.237 32.66 465.075 33.9977 458.923 36.7047L459.728 38.5353ZM480.385 34.66C492.097 34.66 501.325 37.6148 508.179 43.4229L509.472 41.8971C502.166 35.7052 492.434 32.66 480.385 32.66V34.66ZM508.187 43.4293C515.035 49.1172 518.825 56.8336 519.528 66.6712L521.523 66.5287C520.786 56.2064 516.776 47.9628 509.464 41.8907L508.187 43.4293ZM520.525 65.6H496.405V67.6H520.525V65.6ZM497.401 66.5095C497.018 62.2872 495.208 58.9041 491.971 56.4438L490.76 58.0362C493.523 60.1359 495.073 62.9928 495.41 66.6905L497.401 66.5095ZM492.006 56.4718C488.896 53.8807 484.745 52.64 479.665 52.64V54.64C484.425 54.64 488.075 55.7993 490.725 58.0082L492.006 56.4718ZM479.665 52.64C475.002 52.64 471.239 53.4961 468.491 55.3279L469.6 56.992C471.892 55.4639 475.209 54.64 479.665 54.64V52.64ZM468.472 55.3408C465.797 57.2132 464.445 59.863 464.445 63.18H466.445C466.445 60.497 467.494 58.4668 469.619 56.9792L468.472 55.3408ZM464.445 63.18C464.445 65.0353 464.912 66.7135 465.867 68.1807C466.819 69.6413 468.22 70.8407 470.013 71.8015L470.958 70.0385C469.391 69.1993 468.272 68.2086 467.543 67.0893C466.819 65.9765 466.445 64.6847 466.445 63.18H464.445ZM470.038 71.8144C473.497 73.5439 478.802 75.3048 485.899 77.1092L486.392 75.1708C479.329 73.3752 474.194 71.6561 470.933 70.0256L470.038 71.8144ZM485.903 77.1101C493.076 78.9033 498.966 80.7497 503.586 82.6452L504.345 80.7948C499.605 78.8503 493.615 76.9767 486.388 75.1699L485.903 77.1101ZM503.586 82.6452C508.106 84.4997 511.994 87.3972 515.254 91.3557L516.797 90.0843C513.337 85.8828 509.185 82.7803 504.345 80.7948L503.586 82.6452ZM515.274 91.3801C518.562 95.121 520.309 100.153 520.426 106.578L522.425 106.542C522.302 99.7666 520.449 94.239 516.777 90.0599L515.274 91.3801ZM520.425 106.56C520.425 112.119 518.866 117.075 515.75 121.461L517.381 122.619C520.745 117.885 522.425 112.521 522.425 106.56H520.425ZM515.74 121.475C512.744 125.855 508.344 129.346 502.483 131.925L503.288 133.755C509.427 131.054 514.147 127.345 517.391 122.605L515.74 121.475ZM502.492 131.921C496.762 134.376 490.001 135.62 482.185 135.62V137.62C490.21 137.62 497.249 136.344 503.279 133.759L502.492 131.921ZM660.062 135L659.36 135.712L659.652 136H660.062V135ZM646.382 121.5L647.084 120.788L646.415 120.127L645.714 120.756L646.382 121.5ZM579.242 132.48L578.82 133.387L578.829 133.391L578.839 133.395L579.242 132.48ZM563.042 118.98L562.205 119.527L562.21 119.535L563.042 118.98ZM564.302 76.32L565.118 76.8984L564.302 76.32ZM585.002 60.3L585.41 61.2128L586.604 60.6788L585.776 59.6668L585.002 60.3ZM577.982 48.96L577.049 49.321L577.054 49.3314L577.982 48.96ZM580.322 21.6L581.158 22.1496L581.164 22.1397L580.322 21.6ZM593.102 10.62L592.678 9.71427L592.671 9.71786L593.102 10.62ZM632.162 10.98L631.691 11.8624L632.162 10.98ZM644.222 22.5L643.346 22.9819L644.222 22.5ZM647.642 38.52V39.52H648.583L648.64 38.5811L647.642 38.52ZM623.162 38.52L622.163 38.4897L622.131 39.52H623.162V38.52ZM620.282 29.52L619.555 30.2066L619.565 30.217L619.575 30.2271L620.282 29.52ZM603.542 29.34L604.206 30.0874L604.209 30.0852L603.542 29.34ZM603.002 45.9L602.145 46.4145L602.149 46.4223L602.154 46.43L603.002 45.9ZM611.822 56.7L611.095 57.3866L611.107 57.3991L611.119 57.4111L611.822 56.7ZM643.502 88.02L642.799 88.7311L643.506 89.4302L644.209 88.7271L643.502 88.02ZM644.402 86.58L643.545 86.0655L643.525 86.0984L643.508 86.1328L644.402 86.58ZM654.662 69.48V68.48H654.096L653.805 68.9655L654.662 69.48ZM680.942 69.48L681.811 69.9746L682.662 68.48H680.942V69.48ZM668.342 91.62L667.473 91.1254L667.462 91.1443L667.452 91.1637L668.342 91.62ZM660.602 104.94L659.766 104.391L659.316 105.075L659.899 105.651L660.602 104.94ZM691.022 135V136H693.457L691.725 134.289L691.022 135ZM630.542 105.84L631.219 106.576L631.991 105.866L631.245 105.129L630.542 105.84ZM599.582 75.24L600.285 74.5288L599.8 74.0495L599.177 74.3258L599.582 75.24ZM588.242 110.88L587.568 111.619L587.574 111.624L587.58 111.63L588.242 110.88ZM660.764 134.288L647.084 120.788L645.68 122.212L659.36 135.712L660.764 134.288ZM645.714 120.756C634.272 131.018 620.296 136.16 603.722 136.16V138.16C620.749 138.16 635.212 132.862 647.05 122.244L645.714 120.756ZM603.722 136.16C594.594 136.16 586.576 134.619 579.645 131.565L578.839 133.395C586.068 136.581 594.37 138.16 603.722 138.16V136.16ZM579.664 131.573C572.852 128.402 567.601 124.016 563.874 118.425L562.21 119.535C566.163 125.464 571.712 130.078 578.82 133.387L579.664 131.573ZM563.879 118.433C560.155 112.731 558.282 106.145 558.282 98.64H556.282C556.282 106.495 558.249 113.469 562.205 119.527L563.879 118.433ZM558.282 98.64C558.282 90.5621 560.561 83.3252 565.118 76.8984L563.486 75.7416C558.683 82.5148 556.282 90.1579 556.282 98.64H558.282ZM565.118 76.8984C569.673 70.475 576.416 65.2368 585.41 61.2128L584.594 59.3872C575.349 63.5232 568.292 68.965 563.486 75.7416L565.118 76.8984ZM585.776 59.6668C582.581 55.762 580.303 52.0692 578.911 48.5886L577.054 49.3314C578.541 53.0507 580.943 56.918 584.228 60.9332L585.776 59.6668ZM578.915 48.599C577.522 45.0002 576.822 41.1631 576.822 37.08H574.822C574.822 41.3968 575.563 45.4798 577.049 49.321L578.915 48.599ZM576.822 37.08C576.822 31.504 578.271 26.5372 581.157 22.1496L579.487 21.0504C576.373 25.7828 574.822 31.136 574.822 37.08H576.822ZM581.164 22.1397C584.054 17.6319 588.164 14.0902 593.534 11.5221L592.671 9.71786C587 12.4298 582.591 16.2081 579.48 21.0603L581.164 22.1397ZM593.526 11.5257C599.01 8.95872 605.4 7.65999 612.722 7.65999V5.65999C605.164 5.65999 598.474 7.00126 592.678 9.7143L593.526 11.5257ZM612.722 7.65999C620.156 7.65999 626.467 9.07571 631.691 11.8624L632.633 10.0976C627.058 7.12428 620.408 5.65999 612.722 5.65999V7.65999ZM631.691 11.8624C636.941 14.6621 640.81 18.3714 643.346 22.9819L645.098 22.0181C642.354 17.0286 638.183 13.0579 632.633 10.0976L631.691 11.8624ZM643.346 22.9819C645.888 27.6035 646.993 32.7529 646.644 38.4589L648.64 38.5811C649.011 32.5271 647.836 26.9965 645.098 22.0181L643.346 22.9819ZM647.642 37.52H623.162V39.52H647.642V37.52ZM624.162 38.5503C624.287 34.4208 623.288 31.112 620.989 28.8129L619.575 30.2271C621.356 32.008 622.277 34.6992 622.163 38.4897L624.162 38.5503ZM621.009 28.8334C618.748 26.4389 615.706 25.28 612.002 25.28V27.28C615.258 27.28 617.737 28.2811 619.555 30.2066L621.009 28.8334ZM612.002 25.28C608.422 25.28 605.357 26.3741 602.875 28.5948L604.209 30.0852C606.287 28.2259 608.862 27.28 612.002 27.28V25.28ZM602.878 28.5926C600.486 30.7187 599.302 33.52 599.302 36.9H601.302C601.302 34.04 602.278 31.8013 604.206 30.0874L602.878 28.5926ZM599.302 36.9C599.302 40.1095 600.267 43.2852 602.145 46.4145L603.86 45.3855C602.137 42.5147 601.302 39.6905 601.302 36.9H599.302ZM602.154 46.43C604.006 49.3927 606.998 53.0485 611.095 57.3866L612.549 56.0134C608.486 51.7115 605.598 48.1673 603.85 45.37L602.154 46.43ZM611.119 57.4111L642.799 88.7311L644.205 87.3089L612.525 55.9889L611.119 57.4111ZM644.209 88.7271C644.506 88.4303 644.758 88.1049 644.936 87.7472L643.148 86.8528C643.086 86.9751 642.978 87.1297 642.795 87.3129L644.209 88.7271ZM644.936 87.7472C645.056 87.5072 645.176 87.2672 645.297 87.0272L643.508 86.1328C643.388 86.3728 643.268 86.6128 643.148 86.8528L644.936 87.7472ZM645.26 87.0945L655.52 69.9945L653.805 68.9655L643.545 86.0655L645.26 87.0945ZM654.662 70.48H680.942V68.48H654.662V70.48ZM680.073 68.9854L667.473 91.1254L669.211 92.1146L681.811 69.9746L680.073 68.9854ZM667.452 91.1637C665.068 95.8132 662.506 100.222 659.766 104.391L661.438 105.489C664.218 101.258 666.816 96.7867 669.232 92.0763L667.452 91.1637ZM659.899 105.651L690.319 135.711L691.725 134.289L661.305 104.229L659.899 105.651ZM691.022 134H660.062V136H691.022V134ZM604.442 117.28C614.545 117.28 623.484 113.697 631.219 106.576L629.865 105.104C622.48 111.903 614.019 115.28 604.442 115.28V117.28ZM631.245 105.129L600.285 74.5288L598.879 75.9512L629.839 106.551L631.245 105.129ZM599.177 74.3258C587.323 79.5805 581.122 87.1846 581.122 97.2H583.122C583.122 88.2554 588.561 81.2195 599.987 76.1542L599.177 74.3258ZM581.122 97.2C581.122 102.888 583.286 107.714 587.568 111.619L588.916 110.141C585.038 106.606 583.122 102.312 583.122 97.2H581.122ZM587.58 111.63C591.883 115.427 597.538 117.28 604.442 117.28V115.28C597.906 115.28 592.761 113.533 588.904 110.13L587.58 111.63ZM810.29 9.36H811.29V8.36H810.29V9.36ZM810.29 29.7V30.7H811.29V29.7H810.29ZM776.81 29.7V28.7H775.81V29.7H776.81ZM776.81 135V136H777.81V135H776.81ZM751.61 135H750.61V136H751.61V135ZM751.61 29.7H752.61V28.7H751.61V29.7ZM718.13 29.7H717.13V30.7H718.13V29.7ZM718.13 9.36V8.36H717.13V9.36H718.13ZM809.29 9.36V29.7H811.29V9.36H809.29ZM810.29 28.7H776.81V30.7H810.29V28.7ZM775.81 29.7V135H777.81V29.7H775.81ZM776.81 134H751.61V136H776.81V134ZM752.61 135V29.7H750.61V135H752.61ZM751.61 28.7H718.13V30.7H751.61V28.7ZM719.13 29.7V9.36H717.13V29.7H719.13ZM718.13 10.36H810.29V8.36H718.13V10.36ZM913.277 35.28L914.199 35.6675L914.782 34.28H913.277V35.28ZM851.537 182.16V183.16H852.201L852.459 182.548L851.537 182.16ZM824.717 182.16L823.8 181.761L823.192 183.16H824.717V182.16ZM846.317 132.48L847.234 132.879L847.403 132.491L847.242 132.1L846.317 132.48ZM806.357 35.28V34.28H804.865L805.432 35.6602L806.357 35.28ZM834.617 35.28L835.555 34.9334L835.314 34.28H834.617V35.28ZM860.357 104.94L859.419 105.287L860.351 107.808L861.293 105.291L860.357 104.94ZM886.457 35.28V34.28H885.764L885.521 34.9291L886.457 35.28ZM912.355 34.8925L850.615 181.773L852.459 182.548L914.199 35.6675L912.355 34.8925ZM851.537 181.16H824.717V183.16H851.537V181.16ZM825.634 182.559L847.234 132.879L845.4 132.081L823.8 181.761L825.634 182.559ZM847.242 132.1L807.282 34.8998L805.432 35.6602L845.392 132.86L847.242 132.1ZM806.357 36.28H834.617V34.28H806.357V36.28ZM833.679 35.6266L859.419 105.287L861.295 104.593L835.555 34.9334L833.679 35.6266ZM861.293 105.291L887.393 35.6309L885.521 34.9291L859.421 104.589L861.293 105.291ZM886.457 36.28H913.277V34.28H886.457V36.28ZM941.261 49.68H940.261V52.8139L942.077 50.2592L941.261 49.68ZM954.581 38.34L955.051 39.2229L955.058 39.2193L954.581 38.34ZM997.241 39.96L996.718 40.8122L996.725 40.8162L997.241 39.96ZM1013.62 57.96L1012.73 58.4127L1012.73 58.421L1012.74 58.4292L1013.62 57.96ZM1013.62 111.96L1012.73 111.502L1012.73 111.507L1013.62 111.96ZM997.241 130.14L996.714 129.29L996.707 129.295L997.241 130.14ZM954.761 132.12L954.284 132.999L954.292 133.003L954.761 132.12ZM941.261 120.78L942.056 120.173L940.261 117.821V120.78H941.261ZM941.261 182.52V183.52H942.261V182.52H941.261ZM916.061 182.52H915.061V183.52H916.061V182.52ZM916.061 35.28V34.28H915.061V35.28H916.061ZM941.261 35.28H942.261V34.28H941.261V35.28ZM990.221 69.3L989.342 69.7755L989.349 69.7898L989.358 69.8039L990.221 69.3ZM980.501 59.22L980.002 60.0867L980.014 60.0929L980.501 59.22ZM954.581 59.4L955.08 60.2667L955.088 60.2619L954.581 59.4ZM944.861 69.48L943.992 68.9864L943.987 68.9954L943.982 69.0045L944.861 69.48ZM944.861 100.8L943.982 101.276L943.987 101.285L943.992 101.294L944.861 100.8ZM954.581 111.06L954.063 111.915L954.078 111.924L954.094 111.933L954.581 111.06ZM980.501 110.88L979.994 110.018L979.983 110.025L980.501 110.88ZM990.221 100.62L989.352 100.126L989.347 100.135L989.342 100.144L990.221 100.62ZM942.077 50.2592C945.215 45.8428 949.529 42.1603 955.051 39.2229L954.112 37.4571C948.354 40.5197 943.788 44.3972 940.446 49.1008L942.077 50.2592ZM955.058 39.2193C960.655 36.1875 967.028 34.66 974.201 34.66V32.66C966.735 32.66 960.028 34.2525 954.105 37.4607L955.058 39.2193ZM974.201 34.66C982.549 34.66 990.045 36.7148 996.718 40.8122L997.765 39.1078C990.757 34.8051 982.894 32.66 974.201 32.66V34.66ZM996.725 40.8162C1003.51 44.9121 1008.85 50.7664 1012.73 58.4127L1014.51 57.5073C1010.48 49.5536 1004.89 43.4079 997.758 39.1038L996.725 40.8162ZM1012.74 58.4292C1016.73 65.9416 1018.74 74.7153 1018.74 84.78H1020.74C1020.74 74.4447 1018.67 65.3384 1014.5 57.4908L1012.74 58.4292ZM1018.74 84.78C1018.74 94.8439 1016.73 103.743 1012.73 111.502L1014.51 112.418C1018.67 104.337 1020.74 95.1161 1020.74 84.78H1018.74ZM1012.73 111.507C1008.85 119.156 1003.51 125.073 996.714 129.29L997.769 130.99C1004.89 126.567 1010.48 120.364 1014.51 112.413L1012.73 111.507ZM996.707 129.295C990.036 133.508 982.543 135.62 974.201 135.62V137.62C982.9 137.62 990.767 135.412 997.775 130.985L996.707 129.295ZM974.201 135.62C967.021 135.62 960.707 134.15 955.231 131.237L954.292 133.003C960.096 136.09 966.742 137.62 974.201 137.62V135.62ZM955.239 131.241C949.831 128.302 945.443 124.611 942.056 120.173L940.466 121.387C944.04 126.069 948.652 129.938 954.284 132.999L955.239 131.241ZM940.261 120.78V182.52H942.261V120.78H940.261ZM941.261 181.52H916.061V183.52H941.261V181.52ZM917.061 182.52V35.28H915.061V182.52H917.061ZM916.061 36.28H941.261V34.28H916.061V36.28ZM940.261 35.28V49.68H942.261V35.28H940.261ZM995.001 84.78C995.001 78.6384 993.711 73.297 991.085 68.7961L989.358 69.8039C991.772 73.943 993.001 78.9216 993.001 84.78H995.001ZM991.101 68.8245C988.618 64.2314 985.248 60.7271 980.989 58.3471L980.014 60.0929C983.915 62.2729 987.024 65.4886 989.342 69.7755L991.101 68.8245ZM981 58.3534C976.885 55.9838 972.392 54.8 967.541 54.8V56.8C972.051 56.8 976.198 57.8962 980.002 60.0866L981 58.3534ZM967.541 54.8C962.796 54.8 958.302 56.0513 954.074 58.5381L955.088 60.2619C959.021 57.9487 963.167 56.8 967.541 56.8V54.8ZM954.082 58.5334C949.95 60.9125 946.589 64.4098 943.992 68.9864L945.731 69.9736C948.174 65.6702 951.293 62.4475 955.08 60.2666L954.082 58.5334ZM943.982 69.0045C941.489 73.6158 940.261 79.0053 940.261 85.14H942.261C942.261 79.2747 943.434 74.2242 945.741 69.9555L943.982 69.0045ZM940.261 85.14C940.261 91.2747 941.489 96.6642 943.982 101.276L945.741 100.324C943.434 96.0558 942.261 91.0053 942.261 85.14H940.261ZM943.992 101.294C946.587 105.867 949.942 109.418 954.063 111.915L955.1 110.205C951.3 107.902 948.176 104.613 945.731 100.306L943.992 101.294ZM954.094 111.933C958.319 114.294 962.806 115.48 967.541 115.48V113.48C963.157 113.48 959.004 112.386 955.069 110.187L954.094 111.933ZM967.541 115.48C972.402 115.48 976.902 114.231 981.02 111.735L979.983 110.025C976.181 112.329 972.041 113.48 967.541 113.48V115.48ZM981.008 111.742C985.256 109.243 988.62 105.685 991.101 101.096L989.342 100.144C987.022 104.435 983.907 107.717 979.994 110.018L981.008 111.742ZM991.091 101.114C993.712 96.4958 995.001 91.0387 995.001 84.78H993.001C993.001 90.7613 991.771 95.8642 989.352 100.126L991.091 101.114ZM1045.61 130.32L1045.12 131.192L1045.13 131.197L1045.61 130.32ZM1027.43 112.14L1026.56 112.625L1026.56 112.635L1027.43 112.14ZM1027.61 58.14L1026.75 57.6353L1026.74 57.6453L1027.61 58.14ZM1046.15 40.14L1046.63 41.0205L1046.64 41.0148L1046.15 40.14ZM1098.35 40.14L1097.87 41.0149L1097.88 41.0205L1098.35 40.14ZM1116.71 58.14L1115.84 58.6347L1115.85 58.6447L1116.71 58.14ZM1116.53 112.14L1115.68 111.625L1115.67 111.635L1116.53 112.14ZM1097.81 130.32L1098.29 131.2L1098.29 131.198L1097.81 130.32ZM1084.31 111.42L1084.79 112.298L1084.8 112.293L1084.31 111.42ZM1094.03 101.34L1094.91 101.816L1094.03 101.34ZM1090.07 63.36L1089.35 64.0501L1089.36 64.0587L1089.37 64.0671L1090.07 63.36ZM1053.71 63.36L1052.99 62.6699L1052.99 62.6703L1053.71 63.36ZM1053.53 107.1L1052.79 107.772L1052.8 107.781L1052.81 107.79L1053.53 107.1ZM1071.53 135.62C1062.08 135.62 1053.61 133.555 1046.09 129.443L1045.13 131.197C1052.97 135.485 1061.78 137.62 1071.53 137.62V135.62ZM1046.1 129.448C1038.59 125.219 1032.65 119.291 1028.3 111.645L1026.56 112.635C1031.09 120.589 1037.28 126.781 1045.12 131.192L1046.1 129.448ZM1028.31 111.656C1024.08 104.024 1021.95 95.1952 1021.95 85.14H1019.95C1019.95 95.4848 1022.15 104.656 1026.56 112.624L1028.31 111.656ZM1021.95 85.14C1021.95 75.0894 1024.14 66.2643 1028.48 58.6347L1026.74 57.6453C1022.21 65.6157 1019.95 74.7906 1019.95 85.14H1021.95ZM1028.48 58.6447C1032.95 51 1038.99 45.1315 1046.63 41.0205L1045.68 39.2595C1037.71 43.5485 1031.4 49.68 1026.75 57.6353L1028.48 58.6447ZM1046.64 41.0148C1054.28 36.7832 1062.81 34.66 1072.25 34.66V32.66C1062.5 32.66 1053.63 34.8568 1045.67 39.2652L1046.64 41.0148ZM1072.25 34.66C1081.7 34.66 1090.23 36.7832 1097.87 41.0148L1098.84 39.2652C1090.88 34.8568 1082.01 32.66 1072.25 32.66V34.66ZM1097.88 41.0205C1105.51 45.1303 1111.5 50.9955 1115.84 58.6347L1117.58 57.6453C1113.05 49.6845 1106.8 43.5497 1098.83 39.2595L1097.88 41.0205ZM1115.85 58.6447C1120.31 66.2726 1122.55 75.094 1122.55 85.14H1124.55C1124.55 74.786 1122.24 65.6074 1117.58 57.6353L1115.85 58.6447ZM1122.55 85.14C1122.55 95.1813 1120.25 103.999 1115.68 111.626L1117.39 112.654C1122.18 104.681 1124.55 95.4987 1124.55 85.14H1122.55ZM1115.67 111.635C1111.2 119.279 1105.09 125.209 1097.33 129.442L1098.29 131.198C1106.37 126.791 1112.75 120.602 1117.4 112.645L1115.67 111.635ZM1097.34 129.44C1089.7 133.554 1081.1 135.62 1071.53 135.62V137.62C1081.4 137.62 1090.33 135.486 1098.29 131.2L1097.34 129.44ZM1071.53 115.66C1076.26 115.66 1080.68 114.539 1084.79 112.298L1083.83 110.542C1080.02 112.621 1075.93 113.66 1071.53 113.66V115.66ZM1084.8 112.293C1089.06 109.913 1092.43 106.409 1094.91 101.816L1093.15 100.864C1090.84 105.151 1087.73 108.367 1083.83 110.547L1084.8 112.293ZM1094.91 101.816C1097.41 97.1963 1098.63 91.6237 1098.63 85.14H1096.63C1096.63 91.3763 1095.46 96.6037 1093.15 100.864L1094.91 101.816ZM1098.63 85.14C1098.63 75.4853 1096.06 67.936 1090.78 62.6529L1089.37 64.0671C1094.16 68.864 1096.63 75.8347 1096.63 85.14H1098.63ZM1090.8 62.6699C1085.69 57.3098 1079.36 54.62 1071.89 54.62V56.62C1078.82 56.62 1084.62 59.0902 1089.35 64.0501L1090.8 62.6699ZM1071.89 54.62C1064.42 54.62 1058.1 57.3098 1052.99 62.6699L1054.44 64.0501C1059.17 59.0902 1064.96 56.62 1071.89 56.62V54.62ZM1052.99 62.6703C1047.96 67.9551 1045.51 75.4978 1045.51 85.14H1047.51C1047.51 75.8222 1049.87 68.8449 1054.44 64.0497L1052.99 62.6703ZM1045.51 85.14C1045.51 94.7778 1047.89 102.37 1052.79 107.772L1054.27 106.428C1049.81 101.51 1047.51 94.4622 1047.51 85.14H1045.51ZM1052.81 107.79C1057.81 113.035 1064.07 115.66 1071.53 115.66V113.66C1064.6 113.66 1058.86 111.245 1054.26 106.41L1052.81 107.79ZM1189.92 38.16L1189.45 39.0429L1189.46 39.0468L1189.46 39.0506L1189.92 38.16ZM1203.24 49.5L1202.42 50.0692L1204.24 52.7013V49.5H1203.24ZM1203.24 35.28V34.28H1202.24V35.28H1203.24ZM1228.62 35.28H1229.62V34.28H1228.62V35.28ZM1223.04 160.38L1222.15 159.921L1222.15 159.927L1223.04 160.38ZM1206.3 177.66L1205.81 176.789L1205.8 176.795L1206.3 177.66ZM1144.38 174.24L1143.79 175.046L1143.79 175.05L1144.38 174.24ZM1129.08 147.24V146.24H1127.97L1128.08 147.345L1129.08 147.24ZM1154.1 147.24L1155.06 146.962L1154.85 146.24H1154.1V147.24ZM1162.56 158.04L1163.09 157.191L1163.08 157.187L1162.56 158.04ZM1196.4 155.52L1195.71 154.794L1195.7 154.804L1196.4 155.52ZM1203.24 120.24H1204.24V117.039L1202.42 119.671L1203.24 120.24ZM1189.74 131.94L1189.26 131.061L1189.25 131.065L1189.74 131.94ZM1147.26 130.14L1147.79 129.29L1147.26 130.14ZM1130.7 111.96L1129.8 112.407L1129.81 112.415L1129.81 112.424L1130.7 111.96ZM1130.7 57.96L1129.81 57.4965L1129.81 57.5073L1130.7 57.96ZM1147.08 39.96L1146.56 39.1038L1146.56 39.1078L1147.08 39.96ZM1199.64 69.48L1198.76 69.9555L1198.76 69.9656L1199.64 69.48ZM1189.92 59.4L1189.41 60.2619L1189.42 60.2675L1189.43 60.2729L1189.92 59.4ZM1163.82 59.22L1163.32 58.3534L1163.82 59.22ZM1154.1 69.3L1153.23 68.8064L1153.22 68.8144L1154.1 69.3ZM1154.1 100.62L1153.21 101.086L1153.22 101.1L1153.23 101.114L1154.1 100.62ZM1163.82 110.88L1163.3 111.735L1163.31 111.742L1163.82 110.88ZM1189.92 111.06L1190.41 111.933L1190.42 111.928L1190.43 111.922L1189.92 111.06ZM1199.64 100.98L1200.51 101.466L1200.52 101.456L1199.64 100.98ZM1170.3 34.66C1177.6 34.66 1183.98 36.1315 1189.45 39.0429L1190.39 37.2771C1184.58 34.1884 1177.88 32.66 1170.3 32.66V34.66ZM1189.46 39.0506C1194.97 41.8641 1199.28 45.5398 1202.42 50.0692L1204.06 48.9308C1200.72 44.1002 1196.14 40.2159 1190.37 37.2694L1189.46 39.0506ZM1204.24 49.5V35.28H1202.24V49.5H1204.24ZM1203.24 36.28H1228.62V34.28H1203.24V36.28ZM1227.62 35.28V135.72H1229.62V35.28H1227.62ZM1227.62 135.72C1227.62 144.823 1225.79 152.882 1222.15 159.921L1223.93 160.839C1227.73 153.478 1229.62 145.097 1229.62 135.72H1227.62ZM1222.15 159.927C1218.52 167.064 1213.08 172.682 1205.81 176.789L1206.79 178.531C1214.39 174.238 1220.12 168.336 1223.93 160.833L1222.15 159.927ZM1205.8 176.795C1198.54 181.009 1189.72 183.14 1179.3 183.14V185.14C1190 185.14 1199.18 182.951 1206.8 178.525L1205.8 176.795ZM1179.3 183.14C1165.29 183.14 1153.87 179.878 1144.96 173.43L1143.79 175.05C1153.12 181.802 1164.98 185.14 1179.3 185.14V183.14ZM1144.97 173.434C1136.2 167.005 1131.24 158.264 1130.07 147.135L1128.08 147.345C1129.31 159.016 1134.55 168.275 1143.79 175.046L1144.97 173.434ZM1129.08 148.24H1154.1V146.24H1129.08V148.24ZM1153.14 147.518C1154.53 152.335 1157.52 156.133 1162.04 158.893L1163.08 157.187C1158.96 154.667 1156.3 151.265 1155.06 146.962L1153.14 147.518ZM1162.03 158.889C1166.66 161.765 1172.19 163.18 1178.58 163.18V161.18C1172.49 161.18 1167.34 159.835 1163.09 157.191L1162.03 158.889ZM1178.58 163.18C1186.12 163.18 1192.32 160.886 1197.1 156.236L1195.7 154.804C1191.36 159.034 1185.68 161.18 1178.58 161.18V163.18ZM1197.09 156.246C1201.92 151.67 1204.24 144.759 1204.24 135.72H1202.24C1202.24 144.441 1200 150.73 1195.71 154.794L1197.09 156.246ZM1204.24 135.72V120.24H1202.24V135.72H1204.24ZM1202.42 119.671C1199.28 124.203 1194.91 128.004 1189.26 131.061L1190.21 132.819C1196.09 129.636 1200.72 125.637 1204.06 120.809L1202.42 119.671ZM1189.25 131.065C1183.78 134.092 1177.47 135.62 1170.3 135.62V137.62C1177.76 137.62 1184.42 136.028 1190.22 132.815L1189.25 131.065ZM1170.3 135.62C1162.08 135.62 1154.58 133.509 1147.79 129.29L1146.73 130.99C1153.85 135.411 1161.72 137.62 1170.3 137.62V135.62ZM1147.79 129.29C1140.99 125.072 1135.59 119.15 1131.58 111.496L1129.81 112.424C1133.97 120.37 1139.61 126.568 1146.73 130.99L1147.79 129.29ZM1131.59 111.513C1127.71 103.751 1125.76 94.8484 1125.76 84.78H1123.76C1123.76 95.1116 1125.77 104.329 1129.8 112.407L1131.59 111.513ZM1125.76 84.78C1125.76 74.8333 1127.71 66.0524 1131.59 58.4127L1129.81 57.5073C1125.77 65.4675 1123.76 74.5667 1123.76 84.78H1125.76ZM1131.58 58.4235C1135.59 50.7675 1140.93 44.9087 1147.6 40.8122L1146.56 39.1078C1139.55 43.4113 1133.97 49.5525 1129.81 57.4965L1131.58 58.4235ZM1147.6 40.8162C1154.39 36.7149 1161.95 34.66 1170.3 34.66V32.66C1161.61 32.66 1153.69 34.8051 1146.56 39.1038L1147.6 40.8162ZM1204.24 85.14C1204.24 78.8901 1203.01 73.4944 1200.51 68.9944L1198.76 69.9656C1201.06 74.1056 1202.24 79.1499 1202.24 85.14H1204.24ZM1200.52 69.0045C1198.04 64.4114 1194.67 60.9071 1190.41 58.5271L1189.43 60.2729C1193.33 62.4529 1196.44 65.6686 1198.76 69.9555L1200.52 69.0045ZM1190.43 58.5381C1186.19 56.0488 1181.64 54.8 1176.78 54.8V56.8C1181.28 56.8 1185.48 57.9512 1189.41 60.2619L1190.43 58.5381ZM1176.78 54.8C1171.93 54.8 1167.44 55.9838 1163.32 58.3534L1164.32 60.0866C1168.12 57.8962 1172.27 56.8 1176.78 56.8V54.8ZM1163.32 58.3534C1159.19 60.7325 1155.83 64.2298 1153.23 68.8064L1154.97 69.7936C1157.41 65.4902 1160.53 62.2675 1164.32 60.0866L1163.32 58.3534ZM1153.22 68.8144C1150.73 73.3116 1149.5 78.6462 1149.5 84.78H1151.5C1151.5 78.9138 1152.67 73.9284 1154.97 69.7856L1153.22 68.8144ZM1149.5 84.78C1149.5 90.9155 1150.73 96.3602 1153.21 101.086L1154.98 100.154C1152.67 95.7598 1151.5 90.6445 1151.5 84.78H1149.5ZM1153.23 101.114C1155.82 105.687 1159.18 109.238 1163.3 111.735L1164.34 110.025C1160.54 107.722 1157.41 104.433 1154.97 100.126L1153.23 101.114ZM1163.31 111.742C1167.54 114.229 1172.03 115.48 1176.78 115.48V113.48C1172.4 113.48 1168.26 112.331 1164.33 110.018L1163.31 111.742ZM1176.78 115.48C1181.63 115.48 1186.18 114.296 1190.41 111.933L1189.43 110.187C1185.5 112.384 1181.29 113.48 1176.78 113.48V115.48ZM1190.43 111.922C1194.67 109.427 1198.03 105.934 1200.51 101.466L1198.76 100.494C1196.45 104.666 1193.33 107.893 1189.41 110.198L1190.43 111.922ZM1200.52 101.456C1203.01 96.8415 1204.24 91.391 1204.24 85.14H1202.24C1202.24 91.129 1201.06 96.2385 1198.76 100.504L1200.52 101.456ZM1267.63 50.76H1266.63V54.3016L1268.48 51.283L1267.63 50.76ZM1280.23 38.34L1279.74 37.4705L1279.73 37.4755L1280.23 38.34ZM1298.23 33.84H1299.23V32.84H1298.23V33.84ZM1298.23 60.3V61.3H1299.23V60.3H1298.23ZM1273.57 65.88L1272.9 65.141L1272.89 65.1461L1272.89 65.1512L1273.57 65.88ZM1267.63 135V136H1268.63V135H1267.63ZM1242.43 135H1241.43V136H1242.43V135ZM1242.43 35.28V34.28H1241.43V35.28H1242.43ZM1267.63 35.28H1268.63V34.28H1267.63V35.28ZM1268.48 51.283C1271.64 46.1385 1275.72 42.1181 1280.73 39.2045L1279.73 37.4755C1274.42 40.5618 1270.1 44.8215 1266.78 50.237L1268.48 51.283ZM1280.72 39.2095C1285.84 36.3039 1291.67 34.84 1298.23 34.84V32.84C1291.36 32.84 1285.18 34.3761 1279.74 37.4705L1280.72 39.2095ZM1297.23 33.84V60.3H1299.23V33.84H1297.23ZM1298.23 59.3H1291.57V61.3H1298.23V59.3ZM1291.57 59.3C1283.51 59.3 1277.23 61.1926 1272.9 65.141L1274.24 66.619C1278.07 63.1274 1283.79 61.3 1291.57 61.3V59.3ZM1272.89 65.1512C1268.62 69.1568 1266.63 75.9869 1266.63 85.32H1268.63C1268.63 76.1731 1270.6 70.0432 1274.26 66.6088L1272.89 65.1512ZM1266.63 85.32V135H1268.63V85.32H1266.63ZM1267.63 134H1242.43V136H1267.63V134ZM1243.43 135V35.28H1241.43V135H1243.43ZM1242.43 36.28H1267.63V34.28H1242.43V36.28ZM1266.63 35.28V50.76H1268.63V35.28H1266.63ZM1303.86 57.96L1302.98 57.4965L1302.97 57.5073L1303.86 57.96ZM1320.24 39.96L1319.73 39.1038L1319.72 39.1078L1320.24 39.96ZM1362.9 38.16L1362.43 39.0387L1362.43 39.0429L1362.9 38.16ZM1376.4 49.5L1375.6 50.0932L1377.4 52.5429V49.5H1376.4ZM1376.4 35.28V34.28H1375.4V35.28H1376.4ZM1401.78 35.28H1402.78V34.28H1401.78V35.28ZM1401.78 135V136H1402.78V135H1401.78ZM1376.4 135H1375.4V136H1376.4V135ZM1376.4 120.42H1377.4V117.219L1375.58 119.851L1376.4 120.42ZM1362.9 132.12L1363.37 133.003L1363.38 132.999L1362.9 132.12ZM1320.24 130.14L1319.71 130.986L1319.72 130.99L1320.24 130.14ZM1303.86 111.96L1302.97 112.407L1302.97 112.415L1302.98 112.424L1303.86 111.96ZM1372.8 69.48L1371.92 69.9555L1371.93 69.9656L1372.8 69.48ZM1363.08 59.4L1362.58 60.2619L1362.59 60.2675L1362.6 60.2729L1363.08 59.4ZM1336.98 59.22L1336.49 58.3534L1336.98 59.22ZM1327.26 69.3L1326.39 68.8064L1326.39 68.8144L1327.26 69.3ZM1327.26 100.62L1326.38 101.086L1326.39 101.1L1326.39 101.114L1327.26 100.62ZM1336.98 110.88L1336.47 111.735L1336.48 111.742L1336.98 110.88ZM1363.08 111.06L1363.57 111.933L1363.58 111.928L1363.59 111.922L1363.08 111.06ZM1372.8 100.98L1373.68 101.466L1373.68 101.456L1372.8 100.98ZM1298.92 84.78C1298.92 74.8333 1300.88 66.0524 1304.76 58.4127L1302.97 57.5073C1298.93 65.4675 1296.92 74.5667 1296.92 84.78H1298.92ZM1304.75 58.4235C1308.76 50.7675 1314.1 44.9087 1320.77 40.8122L1319.72 39.1078C1312.71 43.4113 1307.13 49.5525 1302.98 57.4965L1304.75 58.4235ZM1320.76 40.8162C1327.56 36.7149 1335.12 34.66 1343.46 34.66V32.66C1334.77 32.66 1326.85 34.8051 1319.73 39.1038L1320.76 40.8162ZM1343.46 34.66C1350.77 34.66 1357.08 36.1318 1362.43 39.0386L1363.38 37.2814C1357.69 34.1882 1351.04 32.66 1343.46 32.66V34.66ZM1362.43 39.0429C1367.96 41.9816 1372.34 45.6682 1375.6 50.0932L1377.21 48.9068C1373.75 44.2118 1369.13 40.3383 1363.37 37.2771L1362.43 39.0429ZM1377.4 49.5V35.28H1375.4V49.5H1377.4ZM1376.4 36.28H1401.78V34.28H1376.4V36.28ZM1400.78 35.28V135H1402.78V35.28H1400.78ZM1401.78 134H1376.4V136H1401.78V134ZM1377.4 135V120.42H1375.4V135H1377.4ZM1375.58 119.851C1372.44 124.383 1368.07 128.184 1362.43 131.241L1363.38 132.999C1369.26 129.816 1373.88 125.816 1377.23 120.989L1375.58 119.851ZM1362.43 131.237C1356.96 134.148 1350.59 135.62 1343.28 135.62V137.62C1350.86 137.62 1357.57 136.092 1363.37 133.003L1362.43 131.237ZM1343.28 135.62C1335.07 135.62 1327.57 133.509 1320.77 129.29L1319.72 130.99C1326.84 135.411 1334.7 137.62 1343.28 137.62V135.62ZM1320.78 129.295C1314.1 125.077 1308.76 119.155 1304.75 111.496L1302.98 112.424C1307.13 120.365 1312.71 126.563 1319.71 130.985L1320.78 129.295ZM1304.76 111.513C1300.88 103.751 1298.92 94.8484 1298.92 84.78H1296.92C1296.92 95.1116 1298.93 104.329 1302.97 112.407L1304.76 111.513ZM1377.4 85.14C1377.4 78.8901 1376.18 73.4944 1373.68 68.9944L1371.93 69.9656C1374.23 74.1056 1375.4 79.1499 1375.4 85.14H1377.4ZM1373.68 69.0045C1371.2 64.4114 1367.83 60.9071 1363.57 58.5271L1362.6 60.2729C1366.5 62.4529 1369.61 65.6686 1371.92 69.9555L1373.68 69.0045ZM1363.59 58.5381C1359.36 56.0488 1354.8 54.8 1349.94 54.8V56.8C1354.44 56.8 1358.65 57.9512 1362.58 60.2619L1363.59 58.5381ZM1349.94 54.8C1345.09 54.8 1340.6 55.9838 1336.49 58.3534L1337.48 60.0866C1341.29 57.8962 1345.44 56.8 1349.94 56.8V54.8ZM1336.49 58.3534C1332.35 60.7325 1328.99 64.2298 1326.39 68.8064L1328.13 69.7936C1330.58 65.4902 1333.7 62.2675 1337.48 60.0866L1336.49 58.3534ZM1326.39 68.8144C1323.89 73.3116 1322.66 78.6462 1322.66 84.78H1324.66C1324.66 78.9138 1325.84 73.9284 1328.14 69.7856L1326.39 68.8144ZM1322.66 84.78C1322.66 90.9155 1323.89 96.3602 1326.38 101.086L1328.15 100.154C1325.84 95.7598 1324.66 90.6445 1324.66 84.78H1322.66ZM1326.39 101.114C1328.99 105.687 1332.35 109.238 1336.47 111.735L1337.5 110.025C1333.7 107.722 1330.58 104.433 1328.13 100.126L1326.39 101.114ZM1336.48 111.742C1340.7 114.229 1345.2 115.48 1349.94 115.48V113.48C1345.57 113.48 1341.42 112.331 1337.49 110.018L1336.48 111.742ZM1349.94 115.48C1354.79 115.48 1359.34 114.296 1363.57 111.933L1362.6 110.187C1358.67 112.384 1354.45 113.48 1349.94 113.48V115.48ZM1363.59 111.922C1367.83 109.427 1371.2 105.934 1373.68 101.466L1371.93 100.494C1369.61 104.666 1366.5 107.893 1362.58 110.198L1363.59 111.922ZM1373.68 101.456C1376.18 96.8415 1377.4 91.391 1377.4 85.14H1375.4C1375.4 91.129 1374.23 96.2385 1371.92 100.504L1373.68 101.456ZM1440.8 49.68H1439.8V52.8139L1441.61 50.2592L1440.8 49.68ZM1454.12 38.34L1454.59 39.2229L1454.59 39.2193L1454.12 38.34ZM1496.78 39.96L1496.25 40.8122L1496.26 40.8162L1496.78 39.96ZM1513.16 57.96L1512.26 58.4127L1512.27 58.421L1512.27 58.4292L1513.16 57.96ZM1513.16 111.96L1512.27 111.502L1512.26 111.507L1513.16 111.96ZM1496.78 130.14L1496.25 129.29L1496.24 129.295L1496.78 130.14ZM1454.3 132.12L1453.82 132.999L1453.83 133.003L1454.3 132.12ZM1440.8 120.78L1441.59 120.173L1439.8 117.821V120.78H1440.8ZM1440.8 182.52V183.52H1441.8V182.52H1440.8ZM1415.6 182.52H1414.6V183.52H1415.6V182.52ZM1415.6 35.28V34.28H1414.6V35.28H1415.6ZM1440.8 35.28H1441.8V34.28H1440.8V35.28ZM1489.76 69.3L1488.88 69.7755L1488.88 69.7898L1488.89 69.8039L1489.76 69.3ZM1480.04 59.22L1479.54 60.0867L1479.55 60.0929L1480.04 59.22ZM1454.12 59.4L1454.62 60.2667L1454.62 60.2619L1454.12 59.4ZM1444.4 69.48L1443.53 68.9864L1443.52 68.9954L1443.52 69.0045L1444.4 69.48ZM1444.4 100.8L1443.52 101.276L1443.52 101.285L1443.53 101.294L1444.4 100.8ZM1454.12 111.06L1453.6 111.915L1453.61 111.924L1453.63 111.933L1454.12 111.06ZM1480.04 110.88L1479.53 110.018L1479.52 110.025L1480.04 110.88ZM1489.76 100.62L1488.89 100.126L1488.88 100.135L1488.88 100.144L1489.76 100.62ZM1441.61 50.2592C1444.75 45.8428 1449.06 42.1603 1454.59 39.2229L1453.65 37.4571C1447.89 40.5197 1443.32 44.3972 1439.98 49.1008L1441.61 50.2592ZM1454.59 39.2193C1460.19 36.1875 1466.56 34.66 1473.74 34.66V32.66C1466.27 32.66 1459.56 34.2525 1453.64 37.4607L1454.59 39.2193ZM1473.74 34.66C1482.08 34.66 1489.58 36.7148 1496.25 40.8122L1497.3 39.1078C1490.29 34.8051 1482.43 32.66 1473.74 32.66V34.66ZM1496.26 40.8162C1503.05 44.9121 1508.38 50.7664 1512.26 58.4127L1514.05 57.5073C1510.01 49.5536 1504.43 43.4079 1497.29 39.1038L1496.26 40.8162ZM1512.27 58.4292C1516.26 65.9416 1518.28 74.7153 1518.28 84.78H1520.28C1520.28 74.4447 1518.21 65.3384 1514.04 57.4908L1512.27 58.4292ZM1518.28 84.78C1518.28 94.8439 1516.26 103.743 1512.27 111.502L1514.05 112.418C1518.21 104.337 1520.28 95.1161 1520.28 84.78H1518.28ZM1512.26 111.507C1508.38 119.156 1503.04 125.073 1496.25 129.29L1497.3 130.99C1504.43 126.567 1510.01 120.364 1514.05 112.413L1512.26 111.507ZM1496.24 129.295C1489.57 133.508 1482.08 135.62 1473.74 135.62V137.62C1482.44 137.62 1490.3 135.412 1497.31 130.985L1496.24 129.295ZM1473.74 135.62C1466.56 135.62 1460.24 134.15 1454.77 131.237L1453.83 133.003C1459.63 136.09 1466.28 137.62 1473.74 137.62V135.62ZM1454.77 131.241C1449.37 128.302 1444.98 124.611 1441.59 120.173L1440 121.387C1443.57 126.069 1448.19 129.938 1453.82 132.999L1454.77 131.241ZM1439.8 120.78V182.52H1441.8V120.78H1439.8ZM1440.8 181.52H1415.6V183.52H1440.8V181.52ZM1416.6 182.52V35.28H1414.6V182.52H1416.6ZM1415.6 36.28H1440.8V34.28H1415.6V36.28ZM1439.8 35.28V49.68H1441.8V35.28H1439.8ZM1494.54 84.78C1494.54 78.6384 1493.25 73.297 1490.62 68.7961L1488.89 69.8039C1491.31 73.943 1492.54 78.9216 1492.54 84.78H1494.54ZM1490.64 68.8245C1488.15 64.2314 1484.78 60.7271 1480.52 58.3471L1479.55 60.0929C1483.45 62.2729 1486.56 65.4886 1488.88 69.7755L1490.64 68.8245ZM1480.54 58.3534C1476.42 55.9838 1471.93 54.8 1467.08 54.8V56.8C1471.59 56.8 1475.73 57.8962 1479.54 60.0866L1480.54 58.3534ZM1467.08 54.8C1462.33 54.8 1457.84 56.0513 1453.61 58.5381L1454.62 60.2619C1458.56 57.9487 1462.7 56.8 1467.08 56.8V54.8ZM1453.62 58.5334C1449.49 60.9125 1446.12 64.4098 1443.53 68.9864L1445.27 69.9736C1447.71 65.6702 1450.83 62.4475 1454.62 60.2666L1453.62 58.5334ZM1443.52 69.0045C1441.02 73.6158 1439.8 79.0053 1439.8 85.14H1441.8C1441.8 79.2747 1442.97 74.2242 1445.28 69.9555L1443.52 69.0045ZM1439.8 85.14C1439.8 91.2747 1441.02 96.6642 1443.52 101.276L1445.28 100.324C1442.97 96.0558 1441.8 91.0053 1441.8 85.14H1439.8ZM1443.53 101.294C1446.12 105.867 1449.48 109.418 1453.6 111.915L1454.63 110.205C1450.84 107.902 1447.71 104.613 1445.27 100.306L1443.53 101.294ZM1453.63 111.933C1457.85 114.294 1462.34 115.48 1467.08 115.48V113.48C1462.69 113.48 1458.54 112.386 1454.6 110.187L1453.63 111.933ZM1467.08 115.48C1471.94 115.48 1476.44 114.231 1480.55 111.735L1479.52 110.025C1475.72 112.329 1471.58 113.48 1467.08 113.48V115.48ZM1480.54 111.742C1484.79 109.243 1488.16 105.685 1490.64 101.096L1488.88 100.144C1486.56 104.435 1483.44 107.717 1479.53 110.018L1480.54 111.742ZM1490.63 101.114C1493.25 96.4958 1494.54 91.0387 1494.54 84.78H1492.54C1492.54 90.7613 1491.31 95.8642 1488.89 100.126L1490.63 101.114ZM1603.11 38.88L1602.61 39.7482L1602.62 39.7521L1602.63 39.7558L1603.11 38.88ZM1616.79 53.46L1615.89 53.9072L1615.9 53.9172L1615.9 53.9271L1616.79 53.46ZM1621.83 135V136H1622.83V135H1621.83ZM1596.63 135H1595.63V136H1596.63V135ZM1590.69 61.74L1589.95 62.4158L1589.96 62.426L1590.69 61.74ZM1557.93 61.74L1557.2 61.0534L1557.2 61.054L1557.93 61.74ZM1551.99 135V136H1552.99V135H1551.99ZM1526.79 135H1525.79V136H1526.79V135ZM1526.79 1.8V0.799998H1525.79V1.8H1526.79ZM1551.99 1.8H1552.99V0.799998H1551.99V1.8ZM1551.99 47.7H1550.99V50.7L1552.79 48.3L1551.99 47.7ZM1564.95 37.62L1565.35 38.5338L1565.36 38.5301L1565.37 38.5262L1564.95 37.62ZM1582.95 34.84C1590.36 34.84 1596.9 36.4843 1602.61 39.7482L1603.6 38.0117C1597.56 34.5557 1590.66 32.84 1582.95 32.84V34.84ZM1602.63 39.7558C1608.31 42.8902 1612.74 47.5934 1615.89 53.9072L1617.68 53.0128C1614.36 46.3665 1609.66 41.3498 1603.59 38.0042L1602.63 39.7558ZM1615.9 53.9271C1619.17 60.1114 1620.83 67.6227 1620.83 76.5H1622.83C1622.83 67.3773 1621.13 59.5285 1617.67 52.9929L1615.9 53.9271ZM1620.83 76.5V135H1622.83V76.5H1620.83ZM1621.83 134H1596.63V136H1621.83V134ZM1597.63 135V79.92H1595.63V135H1597.63ZM1597.63 79.92C1597.63 71.8411 1595.61 65.4994 1591.42 61.054L1589.96 62.426C1593.69 66.3806 1595.63 72.1589 1595.63 79.92H1597.63ZM1591.43 61.0643C1587.24 56.5026 1581.56 54.26 1574.49 54.26V56.26C1581.1 56.26 1586.21 58.3374 1589.95 62.4157L1591.43 61.0643ZM1574.49 54.26C1567.3 54.26 1561.5 56.4989 1557.2 61.0534L1558.66 62.4266C1562.51 58.3411 1567.75 56.26 1574.49 56.26V54.26ZM1557.2 61.054C1553.01 65.4994 1550.99 71.8411 1550.99 79.92H1552.99C1552.99 72.1589 1554.93 66.3806 1558.66 62.426L1557.2 61.054ZM1550.99 79.92V135H1552.99V79.92H1550.99ZM1551.99 134H1526.79V136H1551.99V134ZM1527.79 135V1.8H1525.79V135H1527.79ZM1526.79 2.8H1551.99V0.799998H1526.79V2.8ZM1550.99 1.8V47.7H1552.99V1.8H1550.99ZM1552.79 48.3C1555.92 44.1291 1560.1 40.8712 1565.35 38.5338L1564.54 36.7062C1559 39.1688 1554.54 42.6309 1551.19 47.1L1552.79 48.3ZM1565.37 38.5262C1570.63 36.0743 1576.48 34.84 1582.95 34.84V32.84C1576.22 32.84 1570.07 34.1256 1564.53 36.7138L1565.37 38.5262ZM1730.39 35.28L1731.31 35.6675L1731.9 34.28H1730.39V35.28ZM1668.65 182.16V183.16H1669.32L1669.57 182.548L1668.65 182.16ZM1641.83 182.16L1640.92 181.761L1640.31 183.16H1641.83V182.16ZM1663.43 132.48L1664.35 132.879L1664.52 132.491L1664.36 132.1L1663.43 132.48ZM1623.47 35.28V34.28H1621.98L1622.55 35.6602L1623.47 35.28ZM1651.73 35.28L1652.67 34.9334L1652.43 34.28H1651.73V35.28ZM1677.47 104.94L1676.53 105.287L1677.47 107.808L1678.41 105.291L1677.47 104.94ZM1703.57 35.28V34.28H1702.88L1702.64 34.9291L1703.57 35.28ZM1729.47 34.8925L1667.73 181.773L1669.57 182.548L1731.31 35.6675L1729.47 34.8925ZM1668.65 181.16H1641.83V183.16H1668.65V181.16ZM1642.75 182.559L1664.35 132.879L1662.52 132.081L1640.92 181.761L1642.75 182.559ZM1664.36 132.1L1624.4 34.8998L1622.55 35.6602L1662.51 132.86L1664.36 132.1ZM1623.47 36.28H1651.73V34.28H1623.47V36.28ZM1650.79 35.6266L1676.53 105.287L1678.41 104.593L1652.67 34.9334L1650.79 35.6266ZM1678.41 105.291L1704.51 35.6309L1702.64 34.9291L1676.54 104.589L1678.41 105.291ZM1703.57 36.28H1730.39V34.28H1703.57V36.28Z" fill="black"/>
</svg>
